<?xml version="1.0" encoding="utf-8"?>
<!-- Generator: Adobe Illustrator 15.1.0, SVG Export Plug-In . SVG Version: 6.00 Build 0)  -->
<!DOCTYPE svg PUBLIC "-//W3C//DTD SVG 1.1//EN" "http://www.w3.org/Graphics/SVG/1.1/DTD/svg11.dtd">
<svg version="1.1" xmlns="http://www.w3.org/2000/svg" xmlns:xlink="http://www.w3.org/1999/xlink" x="0px" y="0px" width="17px"
	 height="17px" viewBox="0 0 17 17" enable-background="new 0 0 17 17" xml:space="preserve">
<g id="Layer_2" display="none">
	<path display="inline" fill="#00A69C" d="M388.334-83.83l-55.225,28.263c13.8,69.344,5.335,143.632-27.596,210.349v0.002
		c-50.003,101.195-150.078,172.871-266.965,183.23c0-0.425,0.111-60.2,0.111-60.623c20.828-2.266,40.952-6.907,60.073-13.632v0.229
		c48.019-16.928,91.265-47.5,123.888-89.45v-0.003c12.255-15.77,22.803-32.928,31.373-51.204v-0.007
		c7.537-16.044,13.316-32.646,17.486-49.522L93.095,73.896c-47.258,62.88-134.768,58.643-177.777,1.491
		c-25.232-33.528-29.193-77.826-10.342-115.601c46.604-93.377,181.62-75.21,205.915,22.711H53.18
		C25.693-62.58-42.94-42.812-42.94,9.097c0,51.981,68.736,71.603,96.137,26.591h111.988C180.674-71.378,98.66-154.593,4.65-154.593
		c-151.373,0-218.009,180.202-115.447,280.603c63.4,62.081,163.996,62.362,227.769,1.074h64.778
		C66.134,295.783-200.014,214.463-200.014,9.012c0-115.503,93.631-209.137,209.148-209.137c119.823,0,216.108,100.8,208.712,222
		h61.176c1.755-36.891-3.985-73.898-17.108-108.475c58.239-29.796,37.56-19.22,107.376-54.938
		C261.41-398.574-72.256-463.037-267.937-265.687l52.932,32.313c151.744-140.415,392.527-108.397,503.207,65.859
		c-0.223,0.124-53.651,27.455-53.868,27.576c-11.424-17.208-24.725-33.03-39.668-47.168l0.127-0.066
		c-115.675-109.577-300.684-96.015-399.149,30.666c-62.72-38.292-34.372-20.986-102.937-62.852
		c-81.808,112.905-94.768,257.332-43.733,378.938h0.003c7.794,18.576,16.998,36.408,27.455,53.41
		c53.565,87.033,140.018,151.387,241.895,175.739l0.119-62.069c-79.123-22.614-145.744-73.933-188.384-141.11v-0.002
		c-63.314-99.761-66.63-222.4-17.306-322.296c0.288,0.174,51.399,31.384,51.682,31.559c-8.618,18.441-15.212,38.008-19.506,58.444
		l-0.233-0.144c-10.584,50.112-6.751,103.018,11.663,151.522c35.512,93.577,120.971,161.475,222.228,172.911
		c-0.122,74.004-0.073,46.579-0.223,120.618c128.326,11.135,263.716-45.497,347.202-160.768v-0.009
		c11.721-16.184,22.195-33.3,31.349-51.21v-0.005C399.853,102.282,410.35,6.089,388.334-83.83"/>
</g>
<g id="Layer_2_copy">
	<circle display="none" fill="#00A6FA" cx="-81.041" cy="-76.041" r="249.852"/>
	<path fill="#00A69C" d="M13.156,11.863c-2.455,3.266-7.003,3.045-9.238,0.077C2.607,10.199,2.401,7.9,3.381,5.938
		c2.421-4.848,9.438-3.905,10.7,1.18h-2.998C9.654,4.777,6.087,5.804,6.087,8.5c0,2.699,3.572,3.717,4.996,1.38h5.819
		C17.707,4.32,13.445,0,8.561,0c-7.866,0-11.329,9.356-6,14.569c3.295,3.224,8.523,3.238,11.836,0.056h0.312
		c0.837-0.809,1.565-1.809,1.943-2.765L13.156,11.863z"/>
</g>
<g id="Layer_5">
</g>
<g id="Layer_4">
</g>
</svg>
