<?xml version="1.0" encoding="UTF-8" standalone="no"?>
<svg version="1.1" xmlns="http://www.w3.org/2000/svg" xmlns:xlink="http://www.w3.org/1999/xlink" xmlns:sketch="http://www.bohemiancoding.com/sketch/ns">
	<symbol viewBox="0 0 11 12" id="svg-glass">
        <path d="M6.132,8.326a5.12,5.12,0,0,1-1.987.635C1.805,8.961,0,6.736,0,4.281A4.131,4.131,0,0,1,4.144-.006,4.4,4.4,0,0,1,8.6,4.281,5.231,5.231,0,0,1,7.567,7.107l3.285,3.237a0.538,0.538,0,0,1,0,.735l-0.7.735a0.479,0.479,0,0,1-.7,0Zm-1.8-6.887A2.945,2.945,0,0,1,7.2,4.452,2.945,2.945,0,0,1,4.327,7.466,2.945,2.945,0,0,1,1.457,4.452,2.945,2.945,0,0,1,4.327,1.439Z"/>
	</symbol>
    <symbol viewBox="0 0 12 10" id="svg-heart">
        <path d="M6,1.441A2.629,2.629,0,0,0,3.5,0,3.343,3.343,0,0,0,0,3.254C0,6.74,3.565,7.669,5.5,9.761a0.437,0.437,0,0,0,.06.062,0.663,0.663,0,0,0,.885,0A0.4,0.4,0,0,0,6.5,9.761C8.438,7.665,12,6.754,12,3.254A3.344,3.344,0,0,0,8.5,0,2.629,2.629,0,0,0,6,1.441Z"/>
	</symbol>
    <symbol viewBox="0 0 30 26" id="svg-cart">
        <path d="M29.134,2.462H11.115a0.852,0.852,0,0,0,0,1.7H28.041L25.92,13.259H11.727L7.112,0.626A0.889,0.889,0,0,0,6.271,0H0.846a0.853,0.853,0,0,0,0,1.705H5.659l4.616,12.633,1.55,3.6a0.9,0.9,0,0,0,.841.626H25.452a0.853,0.853,0,0,0,0-1.705H13.236L12.42,14.964H26.615a0.87,0.87,0,0,0,.841-0.626q1.26-5.4,2.519-10.8A0.867,0.867,0,0,0,29.134,2.462ZM18.691,22.325a3.5,3.5,0,1,0-3.485,3.682,3.484,3.484,0,0,0,3.483-3.177A1.281,1.281,0,0,0,18.691,22.325Zm-5.25.25c-0.123-2.227,3.409-2.215,3.531,0A1.769,1.769,0,0,1,13.44,22.575Zm9.494,3.431a3.484,3.484,0,0,0,3.484-3.177,1.275,1.275,0,0,0,0-.5A3.5,3.5,0,1,0,22.934,26.006ZM24.7,22.575a1.768,1.768,0,0,1-3.531,0C21.045,20.348,24.577,20.36,24.7,22.575Z"/>
    </symbol>
    <symbol viewBox="0 0 24 20" id="svg-cart2">
        <path d="M4.24,8.221a0.213,0.213,0,0,0,.136.03H6.094a1.452,1.452,0,0,0,1.078-.7l4.053-7.244A0.363,0.363,0,0,0,11.3.028,0.211,0.211,0,0,0,11.159,0H9.44A1.449,1.449,0,0,0,8.364.693L4.31,7.937A0.366,0.366,0,0,0,4.24,8.221Zm3.89-.689,7.728-.009L15.091,6.151H8.9Zm8.692,0.024a1.452,1.452,0,0,0,1.078.7h1.719a0.211,0.211,0,0,0,.136-0.03,0.366,0.366,0,0,0-.07-0.283L15.632,0.694A1.451,1.451,0,0,0,14.554,0H12.835A0.21,0.21,0,0,0,12.7.028a0.363,0.363,0,0,0,.07.284Zm5.76-1.4H19.63l0.765,1.367,2.163,0V9.535l-21.12.023L1.412,7.539l2.178,0L4.364,6.151H1.412A1.391,1.391,0,0,0,0,7.515V9.558a1.391,1.391,0,0,0,1.412,1.365H2.074v6.949A2.169,2.169,0,0,0,4.28,20H19.716a2.168,2.168,0,0,0,2.2-2.13V10.923h0.662a1.391,1.391,0,0,0,1.413-1.365V7.515A1.391,1.391,0,0,0,22.582,6.151ZM5.5,17.579a0.719,0.719,0,0,1-1.438,0v-5.9a0.719,0.719,0,0,1,1.438,0v5.9Zm2.888,0a0.719,0.719,0,0,1-1.438,0v-5.9a0.719,0.719,0,0,1,1.438,0v5.9Zm2.889,0a0.719,0.719,0,0,1-1.438,0v-5.9a0.719,0.719,0,0,1,1.438,0v5.9Zm2.887,0a0.719,0.719,0,0,1-1.438,0v-5.9a0.719,0.719,0,0,1,1.438,0v5.9Zm2.889,0a0.719,0.719,0,0,1-1.438,0v-5.9a0.719,0.719,0,0,1,1.438,0v5.9Zm2.887,0a0.719,0.719,0,0,1-1.437,0v-5.9a0.719,0.719,0,0,1,1.437,0v5.9Z"/>
	</symbol>
    <symbol viewBox="0 0 65 53" id="svg-incart">
        <path d="M56.508,17.008a8.5,8.5,0,1,1,8.5-8.5A8.5,8.5,0,0,1,56.508,17.008ZM61.253,5.529l-0.846-.846a0.4,0.4,0,0,0-.564,0L54.772,9.754,52.36,7.324a0.4,0.4,0,0,0-.564,0L50.95,8.17a0.4,0.4,0,0,0,0,.564l2.683,2.7s0,0.009.009,0.013l0.58,0.58,0.14,0.141h0l0.125,0.125a0.4,0.4,0,0,0,.564,0l6.2-6.2A0.4,0.4,0,0,0,61.253,5.529ZM52.279,19.013c-0.562,1.75-3.03,9.485-3.03,9.485H22.282Q17.9,16.352,13.512,4.2a1.692,1.692,0,0,0-1.6-1.2H1.608a1.64,1.64,0,0,0,0,3.279h9.145l8.769,24.295L22.466,37.5a1.714,1.714,0,0,0,1.6,1.2h24.3a1.64,1.64,0,0,0,0-3.279H25.149Q24.374,33.6,23.6,31.777h26.97a1.657,1.657,0,0,0,1.6-1.2C53.762,23.653,55,19,55,19S52.9,18.982,52.279,19.013ZM35.512,45.932a6.766,6.766,0,0,0-6.621-6.117c-3.762-.2-6.482,3.169-6.668,6.6-0.2,3.722,3.2,6.414,6.668,6.6,3.582,0.191,6.214-2.858,6.619-6.109A2.5,2.5,0,0,0,35.512,45.932Zm-9.976.481c-0.233-4.283,6.477-4.26,6.71,0A3.358,3.358,0,0,1,25.536,46.414Zm18.038,6.6c3.582,0.191,6.214-2.858,6.619-6.109a1.677,1.677,0,0,0,.049-0.489,1.658,1.658,0,0,0-.047-0.481,6.765,6.765,0,0,0-6.62-6.117c-3.761-.2-6.481,3.169-6.668,6.6C36.7,50.135,40.11,52.828,43.574,53.012Zm3.354-6.6a3.358,3.358,0,0,1-6.709,0C39.986,42.131,46.7,42.154,46.928,46.414ZM45.6,7.75S31.729,7.735,20.318,7.735c0,0-1.336,3.278.8,3.278H45.881A25.04,25.04,0,0,0,45.6,7.75Z"/>
	</symbol>
    <symbol viewBox="0 0 15 25" id="svg-right">
        <path d="M0.651,3.644A2.1,2.1,0,0,1,.661.613a2.253,2.253,0,0,1,3.12.011L14.373,10.983a2.1,2.1,0,0,1,0,3.02L3.782,24.362a2.253,2.253,0,0,1-3.12.01,2.1,2.1,0,0,1-.011-3.031L9.7,12.493Z"/>
	</symbol>
    <symbol viewBox="0 0 15 25" id="svg-left">
        <path d="M14.349,3.644A2.1,2.1,0,0,0,14.339.613a2.253,2.253,0,0,0-3.12.011L0.627,10.983a2.1,2.1,0,0,0,0,3.02L11.218,24.362a2.253,2.253,0,0,0,3.12.01,2.1,2.1,0,0,0,.011-3.031L5.3,12.493Z"/>
	</symbol>
    <symbol viewBox="0 0 24 30" id="svg-right-triangle">
        <path d="M0.007,3.234A3.249,3.249,0,0,1,5.07.541l17.5,11.766a3.244,3.244,0,0,1,0,5.386L5.07,29.459A3.249,3.249,0,0,1,.007,26.766V3.234Z"/>
	</symbol>
    <symbol viewBox="0 0 24 30" id="svg-left-triangle">
        <path d="M23.993,3.234A3.249,3.249,0,0,0,18.93.541L1.425,12.307a3.244,3.244,0,0,0,0,5.386L18.93,29.459a3.249,3.249,0,0,0,5.063-2.693V3.234Z"/>
	</symbol>
    <symbol viewBox="0 0 30 30" id="svg-right-round">
        <path d="M15,0A15,15,0,1,1,0,15,15,15,0,0,1,15,0Zm0,2A13,13,0,1,1,2,15,13,13,0,0,1,15,2ZM10.063,22V8C10.054,6.988,11.8,6.04,13,7c0.527,0.371,9.35,6.843,9.35,6.843a1.321,1.321,0,0,1,0,2.313L13,23C12.09,23.639,10.063,23,10.063,22ZM12,21V9c0.63-.479,1.27-0.118,1.9.361l6.431,4.771a1.032,1.032,0,0,1,0,1.735L13.9,20.638C13.27,21.117,12.63,21.479,12,21Z"/>
	</symbol>
    <symbol viewBox="0 0 30 30" id="svg-left-round">
        <path d="M15,0A15,15,0,1,1,0,15,15,15,0,0,1,15,0Zm0,2A13,13,0,1,1,2,15,13,13,0,0,1,15,2Zm4.938,6V22C19.946,23.012,18.2,23.96,17,23c-0.527-.371-9.35-6.843-9.35-6.843a1.321,1.321,0,0,1,0-2.313L17,7C17.91,6.361,19.938,7,19.938,8ZM18,9V21c-0.63.479-1.27,0.118-1.9-.361L9.669,15.868a1.032,1.032,0,0,1,0-1.735L16.1,9.362C16.73,8.883,17.37,8.521,18,9Z"/>
	</symbol>
    <symbol viewBox="0 0 30 30" id="svg-down-round">
        <path d="M15,0A15,15,0,1,1,0,15,15,15,0,0,1,15,0Zm0,2A13,13,0,1,1,2,15,13,13,0,0,1,15,2ZM8,10.063H22c1.012-.008,1.96,1.739,1,2.938-0.371.527-6.843,9.35-6.843,9.35a1.321,1.321,0,0,1-2.313,0L7,13C6.361,12.09,7,10.063,8,10.063ZM9,12H21c0.479,0.63.118,1.27-.361,1.9l-4.771,6.431a1.032,1.032,0,0,1-1.735,0L9.362,13.9C8.883,13.27,8.521,12.63,9,12Z"/>
	</symbol>
    <symbol viewBox="0 0 15 13.969" id="svg-right-quote">
        <path d="M6.982,13.49A40.57,40.57,0,0,0,10.534,10.3a65.226,65.226,0,0,0,4.339-5.366,0.8,0.8,0,0,0-.262-1.057C12.685,2.51,10.517-.1,8,0.474a0.412,0.412,0,0,0-.168.671,27.648,27.648,0,0,0,5.333,3.643C11.892,6.6,10.508,8.309,9.088,10c-0.792.94-2.193,1.847-2.779,2.949A0.438,0.438,0,0,0,6.982,13.49ZM6.054,5.674c-1.884,2.717-4.283,5-6.035,7.8a0.33,0.33,0,0,0,.437.46c2.89-2.041,5.2-5.221,7.258-8.144a0.77,0.77,0,0,0-.254-1.022C5.126,3.372,3.2.8,0.591,0.012A0.519,0.519,0,0,0,.114.878,19.719,19.719,0,0,0,6.054,5.674Z"/>
	</symbol>
    <symbol viewBox="0 0 15 14" id="svg-left-quote">
        <path d="M8.018,13.522a40.552,40.552,0,0,1-3.552-3.2A65.221,65.221,0,0,1,.127,4.961,0.8,0.8,0,0,1,.389,3.9C2.315,2.541,4.483-.071,7,0.505a0.412,0.412,0,0,1,.168.671A27.648,27.648,0,0,1,1.839,4.819c1.27,1.812,2.654,3.521,4.073,5.208C6.7,10.967,8.1,11.874,8.691,12.976A0.438,0.438,0,0,1,8.018,13.522ZM8.947,5.706c1.884,2.717,4.283,5,6.035,7.8a0.33,0.33,0,0,1-.437.46c-2.889-2.041-5.2-5.221-7.258-8.144A0.77,0.77,0,0,1,7.541,4.8C9.874,3.4,11.8.828,14.409,0.044a0.519,0.519,0,0,1,.477.866A19.718,19.718,0,0,1,8.947,5.706Z"/>
	</symbol>
    <symbol viewBox="0 0 18 20" id="svg-phone-big">
        <path d="M9.226,18.691a4.08,4.08,0,0,0,5.94,0,4.465,4.465,0,0,0,1.157-3.9,8.134,8.134,0,0,0,1.145-.745c0.036-.029.2-0.146,0.236-0.179a0.852,0.852,0,0,0,.3-0.649,0.832,0.832,0,0,0-.272-0.624l-3.3-2.829a0.773,0.773,0,0,0-.5-0.187,0.791,0.791,0,0,0-.557.229c-0.056.058-.552,0.586-0.552,0.586a0.856,0.856,0,0,1-1.245,0L8.2,6.882a0.945,0.945,0,0,1,0-1.3l0.548-.57a0.837,0.837,0,0,0,.228-0.582,0.847,0.847,0,0,0-.22-0.574L5.924,0.3A0.785,0.785,0,0,0,4.659.337L4.611,0.4A6.736,6.736,0,0,0,3.19,3.932C3.19,7.486,10.811,15.4,14.2,15.4c0.064,0,.128,0,0.188,0a2.34,2.34,0,0,1-.632,1.831,2.142,2.142,0,0,1-3.114,0l-5.528-5.9a2.917,2.917,0,0,0-4.243,0,3.2,3.2,0,0,0,0,4.41l1.813,1.86a0.98,0.98,0,0,0,1.417,0,1.076,1.076,0,0,0,0-1.473L2.281,14.26a1.077,1.077,0,0,1,0-1.473,0.98,0.98,0,0,1,1.417,0Z"/>
	</symbol>
    <symbol viewBox="0 0 18 22" id="svg-reply">
        <path d="M18.007,7.13l-7.19,7.082V9.921c-2.177,0-7.722.049-7.722,5.887a6.293,6.293,0,0,0,4.932,6.2,9.386,9.386,0,0,1-8.021-9.36c0-8.924,9.31-9,10.81-9V-0.005Z"/>
	</symbol>
    <symbol viewBox="0 0 14 14" id="svg-error">
        <path id="error.svg" class="cls-1" d="M9.714,6.989l4.275,4.281a0.713,0.713,0,0,1,0,1.007L12.48,13.788a0.71,0.71,0,0,1-1.006,0L7.2,9.507,2.924,13.788a0.711,0.711,0,0,1-1.006,0L0.409,12.278a0.713,0.713,0,0,1,0-1.007L4.685,6.989,0.409,2.708a0.713,0.713,0,0,1,0-1.007L1.918,0.19a0.711,0.711,0,0,1,1.006,0L7.2,4.471,11.475,0.19a0.71,0.71,0,0,1,1.006,0L13.989,1.7a0.713,0.713,0,0,1,0,1.007Z"/>
	</symbol>
    <symbol viewBox="0 0 14 14" id="svg-user">
        <path d="M6.354,0.024c-0.487,0-.061.159-0.323,0.2a0.733,0.733,0,0,1-.441.12C4.8,0.5,4.643,1.579,4.605,1.977A6.221,6.221,0,0,0,4.584,3.1a0.289,0.289,0,0,1-.3.359C3.808,3.425,3.728,4.988,3.728,4.988a0.815,0.815,0,0,0,.673.875A3.018,3.018,0,0,0,5.579,7.38s0.042,0.646.055,1.106C5.563,8.449,5.511,9.663,3.344,10a4.039,4.039,0,0,0-2.991,1.5c-0.408.416-.378,2.336-0.378,2.336H13.931a5.994,5.994,0,0,0-.5-2.336A4.133,4.133,0,0,0,10.413,10C8.246,9.663,8.4,8.482,8.381,8.41c0-.182.08-0.95,0.08-0.95a4.073,4.073,0,0,0,1.03-1.626A1.284,1.284,0,0,0,10.3,5.028S10.534,3.5,9.973,3.5c0,0-.643.04-0.568-0.319A2.321,2.321,0,0,0,9.417,2.3c-0.037-.4.189-1.538-0.6-1.7a1.632,1.632,0,0,0-.627.015C7.93,0.575,7.618-.148,7.131-0.148Z"/>
	</symbol>
    <symbol viewBox="0 0 16 16" id="svg-locked">
        <path d="M8.044,0.1A7.991,7.991,0,1,1,0,8.092,7.975,7.975,0,0,1,8.044.1ZM8.049,4.977A1.867,1.867,0,0,1,9.912,6.847a1.633,1.633,0,0,1-1.2,1.559,23.256,23.256,0,0,0,.534,2.638l-2.414.018A12.323,12.323,0,0,0,7.448,8.43,1.643,1.643,0,0,1,6.186,6.847,1.867,1.867,0,0,1,8.049,4.977ZM2.008,7.055A1.008,1.008,0,1,1,1,8.063,1.006,1.006,0,0,1,2.008,7.055Zm12.047,0a1.008,1.008,0,1,1-1,1.008A1.006,1.006,0,0,1,14.055,7.055Z"/>
	</symbol>
    <symbol viewBox="0 0 11 15" id="svg-marker">
        <path d="M5.552,0a5.432,5.432,0,0,1,5.437,5.371c0,2.843-5.5,9.618-5.5,9.618S0,8.122,0,5.371A5.533,5.533,0,0,1,5.552,0ZM5.487,1.972A1.55,1.55,0,1,1,3.94,3.522,1.549,1.549,0,0,1,5.487,1.972Z"/>
	</symbol>
    <symbol viewBox="0 0 9 16" id="svg-phone">
        <path d="M1,0H7.833A1.11,1.11,0,0,1,9,1.084V14.938A1.087,1.087,0,0,1,7.875,16H1.125A1.011,1.011,0,0,1,0,14.855V1.063A1.051,1.051,0,0,1,1,0ZM8,3V13H1V3H8ZM4.469,14a0.531,0.531,0,1,1-.531.531A0.531,0.531,0,0,1,4.469,14ZM4,1H7V2H4V1ZM2,1H3V2H2V1Z"/>
	</symbol>
    <symbol viewBox="0 0 14.969 11" id="svg-dialog">
        <path d="M5.9,0C9.178,0,10.98,1.877,10.98,4.233s-1.8,3.91-5.079,3.91a8.273,8.273,0,0,1-1.167-.082A4.847,4.847,0,0,1,.964,9.872c1.7-.8,1.49-2.153,1.187-2.331A3.953,3.953,0,0,1-.035,4.233C-0.035,1.877,2.622,0,5.9,0ZM6.889,9.05a2.735,2.735,0,0,0,2.286.888,8.186,8.186,0,0,0,1.167-.165,3.735,3.735,0,0,0,4.02,1.032c-1.7-.8-1.74-1.731-1.438-1.909a3.8,3.8,0,0,0,2.05-3.308,4.169,4.169,0,0,0-3.631-4.108C13.089,4.991,11.959,9.082,6.889,9.05Z"/>
	</symbol>
    <symbol viewBox="0 0 6 12" id="svg-fb">
        <path id="facebook.svg" class="cls-1" d="M-0.009,5.647H1.11v6.348H3.5V5.647H5L5.41,3.736H3.5V3.05a1.4,1.4,0,0,1,.232-0.941,1.157,1.157,0,0,1,.818-0.261,1.926,1.926,0,0,1,1.018.416l0.436-1.8a6.289,6.289,0,0,0-1.92-.46A4.03,4.03,0,0,0,2.3.362,2.209,2.209,0,0,0,1.36,1.4a3.863,3.863,0,0,0-.25,1.607v0.73h-1.12V5.647Z"/>
	</symbol>
    <symbol viewBox="0 0 8 11" id="svg-vk">
        <path d="M7.437,5.84a2.659,2.659,0,0,0-1.483-.875V4.906a2.213,2.213,0,0,0,1.01-.923A2.794,2.794,0,0,0,7.329,2.55a2.713,2.713,0,0,0-.265-1.226,2.024,2.024,0,0,0-.8-0.849A3.014,3.014,0,0,0,5.2.088,11.235,11.235,0,0,0,3.532,0H0V10.99H4a5.963,5.963,0,0,0,1.714-.206,3.4,3.4,0,0,0,1.238-.694,2.892,2.892,0,0,0,.758-1.027,3.438,3.438,0,0,0,.282-1.439A2.679,2.679,0,0,0,7.437,5.84Zm-2.771-2.1a0.849,0.849,0,0,1-.416.428,1.332,1.332,0,0,1-.533.155q-0.259.015-.9,0.015H2.5V2.011H2.673q0.671,0,1.01.011a1.476,1.476,0,0,1,.587.129,0.79,0.79,0,0,1,.386.406A1.354,1.354,0,0,1,4.78,3.1,1.64,1.64,0,0,1,4.666,3.739ZM5.253,8.284a1.035,1.035,0,0,1-.5.477,1.96,1.96,0,0,1-.765.2q-0.376.014-1.355,0.014H2.5V6.22H2.961q0.671,0,1.07.011a1.807,1.807,0,0,1,.627.107,1.157,1.157,0,0,1,.564.436,1.45,1.45,0,0,1,.188.8A1.568,1.568,0,0,1,5.253,8.284Z"/>
	</symbol>
    <symbol viewBox="0 0 8 11" id="svg-tw">
        <path d="M6.548,6.071H2.914V7.209a0.746,0.746,0,0,0,.727.76H6.548a1.52,1.52,0,0,1,0,3.038H2.914A2.974,2.974,0,0,1,.006,7.969V1.514A1.487,1.487,0,0,1,1.46,0,1.487,1.487,0,0,1,2.914,1.514V3.033H6.548A1.487,1.487,0,0,1,8,4.552,1.487,1.487,0,0,1,6.548,6.071Z"/>
	</symbol>
    <symbol viewBox="0 0 13 10" id="svg-mail">
        <path d="M0,8.857A1.114,1.114,0,0,0,1.084,10H11.917A1.114,1.114,0,0,0,13,8.857V1.143A1.114,1.114,0,0,0,11.917,0H1.084A1.114,1.114,0,0,0,0,1.143V8.857ZM3.987,5.009L1.508,2.377a0.578,0.578,0,0,1,0-.785,0.507,0.507,0,0,1,.745,0L6.208,5.769a0.4,0.4,0,0,0,.58,0l3.959-4.177a0.507,0.507,0,0,1,.745,0,0.577,0.577,0,0,1,0,.785L9.011,5.009l2.481,2.614a0.577,0.577,0,0,1,0,.786,0.507,0.507,0,0,1-.745,0L8.269,5.8s-0.775.831-.915,0.979a1.19,1.19,0,0,1-.853.366,1.177,1.177,0,0,1-.859-0.375C5.5,6.62,4.729,5.8,4.729,5.8L2.253,8.409a0.507,0.507,0,0,1-.745,0,0.578,0.578,0,0,1,0-.786Z"/>
	</symbol>
    <symbol viewBox="0 0 13 17" id="svg-crumb">
        <path d="M0.909,16.537A0.458,0.458,0,0,1,.455,17h0A0.458,0.458,0,0,1,0,16.537V0.462A0.458,0.458,0,0,1,.455,0h0A0.458,0.458,0,0,1,.909.462V16.537ZM1,1H3V3H1V1ZM3,3H5V5H3V3ZM1,5H3V7H1V5ZM3,7H5V9H3V7ZM5,1H7V3H5V1ZM7,3H9V5H7V3ZM5,5H7V7H5V5ZM7,7H9V9H7V7ZM9,1h2V3H9V1Zm2,2h2V5H11V3ZM9,5h2V7H9V5Zm2,2h2V9H11V7Zm2,3H0V0H13V10ZM1,9H13V1H1V9Z"/>
	</symbol>
    <symbol viewBox="0 0 11 28" id="svg-men">
        <path d="M11,7.12v8.569a1.02,1.02,0,0,1-2.041,0V9.211H8.481V26.248C8.481,27.216,8.192,28,7.835,28H6.377c-0.356,0-.645-0.784-0.645-1.752V16.442H5.269v9.95C5.269,27.28,4.97,28,4.6,28H3.094c-0.368,0-.667-0.719-0.667-1.608V15.754a3.748,3.748,0,0,1,.022-0.4,1.216,1.216,0,0,1-.022-0.224V9.211H1.9v6.478A0.984,0.984,0,0,1,.949,16.7,0.984,0.984,0,0,1,0,15.689V7.12A1.039,1.039,0,0,1,.374,6.313,4.11,4.11,0,0,1,3.4,5.169h0A1.523,1.523,0,0,1,3.848,5.1H4.977c2.047-.085,4.354-0.078,5.542,1.157A1.012,1.012,0,0,1,11,7.12ZM5.43,0A2.31,2.31,0,0,0,3.152,2.339,2.309,2.309,0,0,0,5.43,4.678,2.309,2.309,0,0,0,7.708,2.339,2.31,2.31,0,0,0,5.43,0Z"/>
	</symbol>
    <symbol viewBox="0 0 13 28" id="svg-women">
        <path d="M8.806,2.39A2.4,2.4,0,1,1,6.406,0,2.4,2.4,0,0,1,8.806,2.39Zm4.157,11.324L10.87,6.747a0.859,0.859,0,0,0-.1-0.21A1.954,1.954,0,0,0,9,5.248H4.179a2.175,2.175,0,0,0-1.961,1.23v0a1.018,1.018,0,0,0-.055.143l-2.121,7.2a0.956,0.956,0,0,0,.622,1.2,0.961,0.961,0,0,0,1.176-.677L3.59,8.413,3.832,8.457,1.141,18.674H4.088v7.981A1.261,1.261,0,0,0,5.244,28,1.261,1.261,0,0,0,6.4,26.655V18.674H6.916v7.981A1.261,1.261,0,0,0,8.072,28a1.261,1.261,0,0,0,1.156-1.345V18.674h2.721L8.867,8.321H9.149l1.8,5.993A1.056,1.056,0,0,0,12.963,13.714Z"/>
	</symbol>
    <symbol viewBox="0 0 12 12" id="svg-settings">
        <path d="M11.038,7.233H10.4A4.535,4.535,0,0,1,9.961,8.29l0.587,0.587a0.963,0.963,0,0,1,0,1.361l-0.34.34a0.963,0.963,0,0,1-1.361,0L8.256,9.987a4.547,4.547,0,0,1-1.053.433v0.616A0.962,0.962,0,0,1,6.241,12H5.759A0.962,0.962,0,0,1,4.8,11.037V10.421a4.551,4.551,0,0,1-1.053-.433l-0.591.591a0.962,0.962,0,0,1-1.361,0l-0.34-.34a0.963,0.963,0,0,1,0-1.361L2.039,8.29A4.538,4.538,0,0,1,1.6,7.233H0.962A0.962,0.962,0,0,1,0,6.27V5.789A0.963,0.963,0,0,1,.962,4.827H1.59a4.537,4.537,0,0,1,.426-1.05L1.451,3.212a0.962,0.962,0,0,1,0-1.361l0.34-.34a0.963,0.963,0,0,1,1.361,0L3.706,2.065A4.534,4.534,0,0,1,4.8,1.609V0.962A0.963,0.963,0,0,1,5.759,0H6.241A0.962,0.962,0,0,1,7.2.962V1.609a4.533,4.533,0,0,1,1.091.456l0.554-.554a0.963,0.963,0,0,1,1.361,0l0.34,0.34a0.962,0.962,0,0,1,0,1.361l-0.565.565a4.539,4.539,0,0,1,.426,1.05h0.628A0.962,0.962,0,0,1,12,5.789V6.27A0.962,0.962,0,0,1,11.038,7.233ZM6,3.4A2.647,2.647,0,1,0,8.647,6.045,2.647,2.647,0,0,0,6,3.4Zm0,3.82a1.2,1.2,0,1,1,1.2-1.2A1.2,1.2,0,0,1,6,7.218Z"/>
	</symbol>
    <symbol viewBox="0 0 10 10" id="svg-close">
        <path d="M6.791,4.992L9.848,8.05a0.509,0.509,0,0,1,0,.719L8.769,9.848a0.509,0.509,0,0,1-.719,0L4.992,6.79,1.934,9.848a0.509,0.509,0,0,1-.719,0L0.135,8.769a0.509,0.509,0,0,1,0-.719L3.193,4.992,0.135,1.934a0.509,0.509,0,0,1,0-.72L1.215,0.135a0.509,0.509,0,0,1,.719,0L4.992,3.193,8.05,0.135a0.509,0.509,0,0,1,.72,0L9.848,1.214a0.509,0.509,0,0,1,0,.72Z"/>
	</symbol>
    <symbol viewBox="0 0 12 16" id="svg-lock">
        <path d="M9.064,5H2.953S2.88,0.9,5.923.9C5.923,0.9,9.064.255,9.064,5ZM2.005,5H1A0.9,0.9,0,0,0,0,6v9a0.9,0.9,0,0,0,1,1H11a0.9,0.9,0,0,0,1-1V6a0.9,0.9,0,0,0-1-1H9.968S9.746-.007,5.884-0.007C5.884-.007,2.005-0.119,2.005,5ZM11,13v1a1,1,0,0,1-1,1H2a1,1,0,0,1-1-1V13H11Z"/>
	</symbol>
    <symbol viewBox="0 0 15 9" id="svg-refresh">
        <path d="M3,3.341V7.129H7.756L9.721,8.994H0.97V3.341H-1.007L2.012,0.065,4.968,3.341H3Zm8,2.347V1.9H6.244l-2-1.894H13.03V5.688h1.978L11.988,8.964,9.032,5.688H11Z"/>
	</symbol>
    <symbol viewBox="0 0 23 22" id="svg-box">
        <path d="M1.4,0L23,5.677,22.116,8.928,0.508,3.249ZM0,7.366V20.288A1.729,1.729,0,0,0,1.738,22H18.145a1.729,1.729,0,0,0,1.74-1.707V9.5L11.759,7.366H0Zm12.8,4.95H7.083V10.073H12.8v2.243h0Z"/>
    </symbol>
    <symbol viewBox="0 0 24 16" id="svg-postal">
        <path d="M0.828,0H23.173A0.814,0.814,0,0,1,24,.8V15.2a0.814,0.814,0,0,1-.828.8H0.828A0.814,0.814,0,0,1,0,15.2V0.8A0.814,0.814,0,0,1,.828,0ZM20.664,1.6a0.756,0.756,0,0,1,.828.775,0.864,0.864,0,0,1-.828.8h0A0.873,0.873,0,0,1,21.517,4a0.759,0.759,0,0,1-.8.85,0.807,0.807,0,0,1-.8-0.8H19.862a0.758,0.758,0,0,1-.8.725A0.812,0.812,0,0,1,18.155,4a0.814,0.814,0,0,1,.828-0.8V3.15a0.688,0.688,0,0,1-.776-0.725,0.726,0.726,0,0,1,.8-0.825,0.825,0.825,0,0,1,.828.8h0.077A0.728,0.728,0,0,1,20.664,1.6ZM12,1.6a0.407,0.407,0,0,1,.414.4V14a0.414,0.414,0,0,1-.828,0V2A0.407,0.407,0,0,1,12,1.6Zm2.483,5.6H21.1a0.4,0.4,0,1,1,0,.8H14.483A0.4,0.4,0,1,1,14.483,7.2Zm0,2.4H21.1a0.4,0.4,0,1,1,0,.8H14.483A0.4,0.4,0,1,1,14.483,9.6Zm0,2.4H21.1a0.4,0.4,0,1,1,0,.8H14.483A0.4,0.4,0,1,1,14.483,12Z"/>
    </symbol>
    <symbol viewBox="0 0 15 16" id="svg-blocks">
        <path d="M1.665,0H5A1.724,1.724,0,0,1,6.662,1.778V5.334A1.725,1.725,0,0,1,5,7.112H1.665A1.724,1.724,0,0,1,0,5.334V1.778A1.724,1.724,0,0,1,1.665,0ZM9.993,0h3.331a1.724,1.724,0,0,1,1.665,1.778V5.334a1.724,1.724,0,0,1-1.665,1.778H9.993A1.725,1.725,0,0,1,8.327,5.334V1.778A1.724,1.724,0,0,1,9.993,0ZM1.665,8.889H5a1.724,1.724,0,0,1,1.665,1.777v3.556A1.724,1.724,0,0,1,5,16H1.665A1.724,1.724,0,0,1,0,14.222V10.667A1.724,1.724,0,0,1,1.665,8.889Zm8.327,0h3.331a1.724,1.724,0,0,1,1.665,1.777v3.556A1.724,1.724,0,0,1,13.324,16H9.993a1.724,1.724,0,0,1-1.665-1.778V10.667A1.724,1.724,0,0,1,9.993,8.889Z"/>
	</symbol>
    <symbol viewBox="0 0 28 17" id="svg-car">
        <path d="M8.587,14.055a2.954,2.954,0,1,1-2.954-2.943A2.948,2.948,0,0,1,8.587,14.055ZM28,9.834V13a1.06,1.06,0,0,1-1.06,1.058H26.45a3.834,3.834,0,0,0-7.669,0H9.472a3.84,3.84,0,0,0-7.68,0H1.062A1.063,1.063,0,0,1,0,13V8.713H13.535V0.525A0.526,0.526,0,0,1,14,0a0.2,0.2,0,0,1,.067-0.008h4.7a1.965,1.965,0,0,1,1.565.931l2.812,5.2a3.407,3.407,0,0,0,1.49,1.323l2.374,0.942A1.68,1.68,0,0,1,28,9.834ZM21.672,7.009L19.039,2.233a1,1,0,0,0-.787-0.464H15.781a0.533,0.533,0,0,0-.532.531V6.942a0.533,0.533,0,0,0,.532.531H21.4A0.286,0.286,0,0,0,21.672,7.009ZM14-.006V0a0.2,0.2,0,0,1,.068-0.008H14Zm8.617,11.118a2.943,2.943,0,1,0,2.949,2.943A2.945,2.945,0,0,0,22.616,11.112Zm-21-9.13V7.446L6.405,4.718ZM7.162,5.151L2.328,7.906h9.65Zm-4.793-3.6L7.158,4.292,11.97,1.553h-9.6ZM7.914,4.722l4.808,2.751V1.986Z"/>
	</symbol>
    <symbol viewBox="0 0 13 13" id="svg-star">
        <path d="M6.5,0A0.527,0.527,0,0,0,6,.4L4.718,4.522H0.52A0.549,0.549,0,0,0,0,5.09a0.56,0.56,0,0,0,.225.452c0.084,0.06,3.391,2.58,3.391,2.58s-1.27,4.07-1.295,4.135a0.639,0.639,0,0,0-.032.192A0.538,0.538,0,0,0,2.814,13a0.514,0.514,0,0,0,.3-0.1L6.5,10.329S9.81,12.845,9.886,12.9a0.513,0.513,0,0,0,.3.1,0.54,0.54,0,0,0,.526-0.551,0.631,0.631,0,0,0-.033-0.192c-0.024-.065-1.295-4.135-1.295-4.135s3.307-2.521,3.391-2.58A0.562,0.562,0,0,0,13,5.087a0.544,0.544,0,0,0-.515-0.565h-4.2L7,0.4A0.527,0.527,0,0,0,6.5,0Z"/>
	</symbol>
    <symbol viewBox="0 0 12 12" id="svg-check">
        <path d="M12.825,3.74l-7.641,7.12a0.517,0.517,0,0,1-.695,0l-0.154-.144h0L4.167,10.56,3.446,9.888S3.44,9.878,3.436,9.874l-3.305-3.1a0.436,0.436,0,0,1,0-.647l1.042-.971a0518,0.518,0,0,1,.695,0L4.84,7.943l6.248-5.821a0.517,0.517,0,0,1,.695,0l1.042,0.971A0.436,0.436,0,0,1,12.825,3.74Z"/>
    </symbol>
    <symbol viewBox="0 0 13 14" id="svg-cmp">
        <path d="M0,7H3v7H0V7ZM5,0H8V14H5V0Zm5,3h3V14H10V3Z"/>
    </symbol>
    <symbol viewBox="0 0 14 10" id="svg-scale">
		<rect y="4" width="2" height="6"/>
		<rect x="3" y="3" width="2" height="7"/>
		<rect x="6" y="2" width="2" height="8"/>
		<rect x="9" y="1" width="2" height="9"/>
		<rect x="12" width="2" height="10"/>
	</symbol>
    <symbol viewBox="0 0 23 20" id="svg-box2">
        <path d="M4.518,4.724A0.958,0.958,0,0,0,5.227,5H17.773a0.908,0.908,0,0,0,.666-0.279,0.961,0.961,0,0,0,.279-0.709,0.954,0.954,0,0,0-.945-0.945H5.227a0.961,0.961,0,0,0-.709.279,0.908,0.908,0,0,0-.279.666A0.958,0.958,0,0,0,4.518,4.724ZM6.193,1.69a0.861,0.861,0,0,1-.236-0.6,0.9,0.9,0,0,1,.236-0.6A0.755,0.755,0,0,1,6.773.235h9.453a0.757,0.757,0,0,1,.58.258,0.9,0.9,0,0,1,.236.6,0.864,0.864,0,0,1-.236.6,0.757,0.757,0,0,1-.58.258H6.773A0.755,0.755,0,0,1,6.193,1.69Zm16.4,3.441a0.91,0.91,0,0,0-.666-0.279,0.961,0.961,0,0,0-.709.279,0.908,0.908,0,0,0-.279.666V7.042H2.028V5.8a0.911,0.911,0,0,0-.279-0.666,0.963,0.963,0,0,0-.709-0.279,0.91,0.91,0,0,0-.666.279A0.908,0.908,0,0,0,.094,5.8v2.19a0.389,0.389,0,0,1,.043.172L3.551,19.245a0.814,0.814,0,0,0,.9.73H18.5a0.876,0.876,0,0,0,.9-0.688l3.42-11.129a0.566,0.566,0,0,1,.021-0.129A0.6,0.6,0,0,0,22.869,7.9V5.8A0.911,0.911,0,0,0,22.59,5.131ZM17.73,18.042H5.184l-2.9-9.066H20.635ZM8,13.65a0.945,0.945,0,0,1,.666-1.611h5.672a0.945,0.945,0,0,1,0,1.891H8.664A0.907,0.907,0,0,1,8,13.65Z"/>
    </symbol>
    <symbol viewBox="0 0 21.25 21.031" id="svg-rocket">
        <path d="M17.995,10.818a15.7,15.7,0,0,1-2.774,2.526,5.271,5.271,0,0,1-.455,4.39,8.05,8.05,0,0,1-3.643,3.23,0.673,0.673,0,0,1-.373.083,0.9,0.9,0,0,1-.662-0.248,0.972,0.972,0,0,1-.166-1.077,3.9,3.9,0,0,0,.476-2.236,2.81,2.81,0,0,0-.849-1.863V15.58L5.491,11.522a2.951,2.951,0,0,0-1.884-.849,4.038,4.038,0,0,0-2.256.476,0.781,0.781,0,0,1-1.035-.124A0.835,0.835,0,0,1,.109,9.948a7.261,7.261,0,0,1,3.229-3.6,5.282,5.282,0,0,1,4.347-.5A13.488,13.488,0,0,1,20.313-.074a0.868,0.868,0,0,1,.828.87,12.618,12.618,0,0,1-3.147,10.022h0ZM5.7,9.41Q6.36,8,6.651,7.5A3.981,3.981,0,0,0,3.131,8.83,4.532,4.532,0,0,1,5.7,9.41h0Zm7.949,5.011a18.46,18.46,0,0,1-1.946.953,5.439,5.439,0,0,1,.621,2.609,4.03,4.03,0,0,0,1.325-3.561h0Zm-1.159-1.47a15.724,15.724,0,0,0,2.339-1.574,13.168,13.168,0,0,0,2.319-2.319,10.792,10.792,0,0,0,1.615-3.189,12.229,12.229,0,0,0,.6-4.12,11.2,11.2,0,0,0-7.618,2.526A14.676,14.676,0,0,0,7.23,10.611l3.229,3.272A22.214,22.214,0,0,0,12.488,12.951Zm2.9-8.717a1.472,1.472,0,0,0-1.076.456,1.263,1.263,0,0,0-.455,1.035,1.556,1.556,0,0,0,1.532,1.532A1.263,1.263,0,0,0,16.421,6.8a1.473,1.473,0,0,0,.455-1.077,1.265,1.265,0,0,0-.455-1.035,1.264,1.264,0,0,0-1.035-.456h0ZM5.057,13.489a2.633,2.633,0,0,1,1.842.725,2.34,2.34,0,0,1,.745,1.7,2.552,2.552,0,0,1-.787,1.781A4.9,4.9,0,0,1,3.3,18.769H3.256a0.919,0.919,0,0,1-.911-0.911,4.941,4.941,0,0,1,1.118-3.6A2.452,2.452,0,0,1,5.057,13.489Zm0.766,2.423a0.574,0.574,0,0,0-.207-0.373A0.919,0.919,0,0,0,5.2,15.332a0.689,0.689,0,0,0-.455.248,2.2,2.2,0,0,0-.455,1.242,2.455,2.455,0,0,0,1.283-.456,2.763,2.763,0,0,0,.248-0.456h0Z"/>
    </symbol>
    <symbol viewBox="0 0 15.406 21.438" id="svg-geo">
        <path d="M15.406,8.087a10.211,10.211,0,0,1-.73,3.58,18.454,18.454,0,0,1-1.719,3.474q-0.989,1.538-2.106,2.969T9.068,20.258a10.729,10.729,0,0,1-.881.884,0.868,0.868,0,0,1-.688.295,0.954,0.954,0,0,1-.687-0.295,10.507,10.507,0,0,1-.881-0.884q-0.667-.716-1.783-2.148T2.043,15.141A18.373,18.373,0,0,1,.324,11.667a10.2,10.2,0,0,1-.73-3.58q0-4.211,2.535-6.359A7.933,7.933,0,0,1,7.5-.125a7.934,7.934,0,0,1,5.371,1.853q2.535,2.148,2.535,6.359h0ZM9.863,16.321A24.447,24.447,0,0,0,12.248,12.4a9.777,9.777,0,0,0,1.225-4.317A8.247,8.247,0,0,0,13.3,6.445a9.8,9.8,0,0,0-.709-2.021,4.211,4.211,0,0,0-1.848-1.916A6.545,6.545,0,0,0,7.5,1.77a6.744,6.744,0,0,0-1.568.19,8.973,8.973,0,0,0-1.912.758,4.156,4.156,0,0,0-1.8,1.958,7.642,7.642,0,0,0-.687,3.411q0,3.159,3.309,7.749A39.112,39.112,0,0,0,7.5,19.121Q8.7,17.816,9.863,16.321Zm1.418-8.612a3.681,3.681,0,0,1-1.1,2.674A3.618,3.618,0,0,1,7.5,11.5a3.741,3.741,0,0,1-3.781-3.79,3.683,3.683,0,0,1,1.1-2.674A3.62,3.62,0,0,1,7.5,3.918a3.741,3.741,0,0,1,3.781,3.79h0Zm-1.633,0A2.029,2.029,0,0,0,9,6.171,2.157,2.157,0,0,0,6,6.171a2.029,2.029,0,0,0-.645,1.537A2.047,2.047,0,0,0,6,9.224,2.106,2.106,0,0,0,9,9.224a2.047,2.047,0,0,0,.645-1.516h0Z"/>
    </symbol>
    <symbol viewBox="0 0 21 19" id="svg-wallet">
        <path d="M15.518,9.8a1.63,1.63,0,0,0-1.2.473,1.827,1.827,0,0,0-.473,1.2,1.488,1.488,0,0,0,.473,1.16,1.649,1.649,0,0,0,1.2.516,1.432,1.432,0,0,0,1.16-.516,1.489,1.489,0,0,0,.473-1.16,1.631,1.631,0,0,0-.473-1.2,1.579,1.579,0,0,0-1.16-.473h0Zm4.95-5.284A1.454,1.454,0,0,0,19,4H18V2A1.705,1.705,0,0,0,17.482.564,1.716,1.716,0,0,0,16,0H2A1.483,1.483,0,0,0,.6.693,1.243,1.243,0,0,0,0,2V17a1.515,1.515,0,0,0,.4,1.354,2.123,2.123,0,0,0,1.59.666L19,19a2.635,2.635,0,0,0,1.684-.539A1.933,1.933,0,0,0,21,17V6A1.586,1.586,0,0,0,20.469,4.518ZM2,2H16c0.286,0,0-.286,0,0V4H2C1.742,4,2.186,3.187,2,3S2,3.258,2,3A1.816,1.816,0,0,1,2,2a0.474,0.474,0,0,1,.465-0.211ZM19,17H2c-0.23,0,0,.23,0,0V7A1.646,1.646,0,0,1,3,6H18a1.825,1.825,0,0,1,1,0,2.149,2.149,0,0,1,0,1V17Z"/>
    </symbol>
    <symbol viewBox="0 0 22 20.844" id="svg-user-stroke">
        <path d="M5.055,6.5A6.207,6.207,0,0,1,6.945,1.945,6.208,6.208,0,0,1,11.5.054a6.21,6.21,0,0,1,4.555,1.891,6.26,6.26,0,0,1,1.891,4.6A6.208,6.208,0,0,1,16.055,11.1,6.208,6.208,0,0,1,11.5,12.988a6.171,6.171,0,0,1-4.555-1.912A6.276,6.276,0,0,1,5.055,6.5Zm1.934,0A4.388,4.388,0,0,0,8.32,9.722a4.461,4.461,0,0,0,6.359,0A4.39,4.39,0,0,0,16.012,6.5,4.392,4.392,0,0,0,14.68,3.277a4.461,4.461,0,0,0-6.359,0A4.39,4.39,0,0,0,6.988,6.5Zm9.389,8.1q1.009,0.409,2.557,1.2a8.669,8.669,0,0,1,2.557,1.7,3.763,3.763,0,0,1,1.01,2.446,0.954,0.954,0,0,1-.945.945H1.445a0.907,0.907,0,0,1-.666-0.279A0.907,0.907,0,0,1,.5,19.951a3.76,3.76,0,0,1,1.01-2.446,8.66,8.66,0,0,1,2.557-1.7q1.547-.795,2.557-1.2C11,12.832,17.5,15.054,16.377,14.6Zm3.717,4.4a14.531,14.531,0,0,0-5.715-3.094H8.621a14.527,14.527,0,0,0-5.715,3.094H20.094Z" transform="translate(-0.5 -0.063)"/>
    </symbol>
    <symbol viewBox="0 0 19 19" id="svg-floppy">
      <path d="M8.312,13.26a0.99,0.99,0,1,0,.99-0.99A0.99,0.99,0,0,0,8.312,13.26ZM1.583,0A1.583,1.583,0,0,0,0,1.583V17.417A1.583,1.583,0,0,0,1.583,19H17.417A1.583,1.583,0,0,0,19,17.417V3.927a1.9,1.9,0,0,0-.546-1.342l-2.011-2A1.969,1.969,0,0,0,15.042,0H1.583ZM2.85,1.979H3.958V5.067a0.868,0.868,0,0,0,.871.871H5.858a0.868,0.868,0,0,0,.871-0.871V1.979h7.442a0.868,0.868,0,0,1,.871.871v3.8a0.868,0.868,0,0,1-.871.871H2.85A0.868,0.868,0,0,1,1.979,6.65V2.85A0.868,0.868,0,0,1,2.85,1.979ZM6.729,13.26A2.573,2.573,0,1,1,9.3,15.833,2.573,2.573,0,0,1,6.729,13.26Z"/>
    </symbol>
    <symbol viewBox="0 0 13 12" id="svg-refresh2">
        <path d="M11.118,6.345L9.235,4.5h1.1l-0.031-.08a4.471,4.471,0,0,0-4.16-2.775A4.428,4.428,0,0,0,1.677,6.028a4.428,4.428,0,0,0,4.471,4.384,4.476,4.476,0,0,0,4.079-2.587c0.007-.014.011-0.03,0.018-0.045l1.2,1.168c-0.008.014-.014,0.029-0.022,0.043L11.416,9a6.138,6.138,0,0,1-5.3,3A6.059,6.059,0,0,1,0,6,6.059,6.059,0,0,1,6.118,0a6.1,6.1,0,0,1,5.906,4.427c0.006,0.023.008,0.048,0.015,0.072H13Z"/>
    </symbol>
    <symbol viewBox="0 0 14.969 9.906" id="svg-list">
        <path id="list.svg" class="cls-1" d="M0.393-.036H14.464a0.5,0.5,0,0,1,0,1H0.393A0.5,0.5,0,0,1,.393-0.036Zm0,2.929H14.464a0.5,0.5,0,1,1,0,1H0.393A0.5,0.5,0,0,1,.393,2.893Zm0,3.071H14.464a0.5,0.5,0,0,1,0,1H0.393A0.5,0.5,0,0,1,.393,5.964Zm0,2.929H14.464a0.5,0.5,0,0,1,0,1H0.393A0.5,0.5,0,0,1,.393,8.893Z"/>
    </symbol>
	<symbol viewBox="0 0 38 39" id="svg-payment-clock">
		<path d="M36.666,20.149a17.293,17.293,0,0,1-4.219,11.484l0.078,0.078L35.1,35.539a1.527,1.527,0,0,1-.547,2.344,1.273,1.273,0,0,1-.937.313,1.534,1.534,0,0,1-1.406-.781l-2.344-3.437a16.364,16.364,0,0,1-10.625,3.672A17,17,0,0,1,8.619,34.055L6.353,37.414a1.534,1.534,0,0,1-1.406.781,1.451,1.451,0,0,1-.937-0.312,1.519,1.519,0,0,1-.742-1.055,1.78,1.78,0,0,1,.273-1.289l2.5-3.828,0.078-.078A16.557,16.557,0,0,1,1.744,20.149a18.22,18.22,0,0,1,1.641-7.5A6.3,6.3,0,0,1,.963,7.8,7.047,7.047,0,0,1,3.7,2.492l0.078-.078A6.772,6.772,0,0,1,9.088.852a6.872,6.872,0,0,1,4.141,2.734,18.962,18.962,0,0,1,6.016-1.016A16.872,16.872,0,0,1,25.26,3.664,7.057,7.057,0,0,1,29.479.93a6.967,6.967,0,0,1,5.312,1.562V2.571A6.673,6.673,0,0,1,37.525,7.8,6.3,6.3,0,0,1,35.1,12.649a17.656,17.656,0,0,1,1.563,7.5h0Zm-8.2-14.922A18.256,18.256,0,0,1,33.229,9.6a2.558,2.558,0,0,0,.781-1.875,3.425,3.425,0,0,0-1.484-2.5A2.921,2.921,0,0,0,30.1,4.367a3.344,3.344,0,0,0-1.641.859h0ZM5.26,9.6a18.236,18.236,0,0,1,4.766-4.375,3.344,3.344,0,0,0-1.641-.859,2.919,2.919,0,0,0-2.422.859,3.421,3.421,0,0,0-1.484,2.5A3.758,3.758,0,0,0,5.26,9.6h0ZM33.229,20.071a13.6,13.6,0,0,0-4.1-9.922,13.409,13.409,0,0,0-9.883-4.141,13.347,13.347,0,0,0-9.883,4.18,13.731,13.731,0,0,0-4.1,9.961,13.6,13.6,0,0,0,4.1,9.922,13.4,13.4,0,0,0,9.883,4.141,13.344,13.344,0,0,0,9.883-4.18A13.727,13.727,0,0,0,33.229,20.071Zm-12.266-.7V10.774a1.75,1.75,0,0,0-.508-1.289,1.7,1.7,0,0,0-2.422,0,1.746,1.746,0,0,0-.508,1.289v9.375a1.992,1.992,0,0,0,.469,1.172L23.15,26.4a1.479,1.479,0,0,0,1.172.547,1.72,1.72,0,0,0,1.25-.547,1.486,1.486,0,0,0,0-2.422Z"/>
    </symbol>
	<symbol viewBox="0 0 41 33" id="svg-payment-box">
		<path d="M33.955,7.5a1.656,1.656,0,0,1,.508,1.211L34.619,30.9a1.865,1.865,0,0,1-.469,1.25,1.691,1.691,0,0,1-1.25.469H7.51a2.075,2.075,0,0,1-1.25-.469,2.075,2.075,0,0,1-.469-1.25L6.025,8.711A1.734,1.734,0,0,1,7.744,6.992h25A1.656,1.656,0,0,1,33.955,7.5ZM31.1,29.1L30.947,10.43H9.463L9.228,29.1H31.1Zm-5.82-15.117a1.75,1.75,0,0,0-1.289-.508H16.416A1.734,1.734,0,0,0,14.7,15.2a1.743,1.743,0,0,0,.508,1.289,1.65,1.65,0,0,0,1.211.508h7.656a1.651,1.651,0,0,0,1.211-.508,1.747,1.747,0,0,0,.508-1.289A1.656,1.656,0,0,0,25.283,13.985ZM40.166,6.211L39.307,1.836A1.626,1.626,0,0,0,38.76.86,1.572,1.572,0,0,0,37.666.43H2.822A1.607,1.607,0,0,0,1.1,1.836L0.244,6.211A1.637,1.637,0,0,0,.518,7.539a1.529,1.529,0,0,0,1.133.7,1.71,1.71,0,0,0,1.328-.234,1.478,1.478,0,0,0,.7-1.172L4.228,3.946H36.26l0.547,2.891a1.546,1.546,0,0,0,1.719,1.406h0.313a1.54,1.54,0,0,0,1.328-2.031h0Z"/>
    </symbol>
</svg>