<svg width="30" height="30" viewBox="0 0 30 30" xmlns="http://www.w3.org/2000/svg" xmlns:xlink="http://www.w3.org/1999/xlink"><title>info</title><defs><path id="a" d="M15 30C6.716 30 0 23.284 0 15 0 6.716 6.716 0 15 0c8.284 0 15 6.716 15 15 0 8.284-6.716 15-15 15z"/><path d="M13.026 20.992l.984-.475-.038-7.039-.947-.007-.027-1.116 3.018-.33.01 8.473.962.462.019 1.058-4 .024.019-1.05zM14.95 7.898h.077c.586 0 1.061.488 1.061 1.1 0 .607-.477 1.1-1.06 1.1h-.078c-.586 0-1.062-.489-1.062-1.1 0-.608.478-1.1 1.062-1.1z" id="b"/></defs><g fill="none" fill-rule="evenodd"><use fill="#4474BE" xlink:href="#a"/><use xlink:href="#a"/><g><use fill="#E5E5E5" xlink:href="#b"/><use xlink:href="#b"/></g></g></svg>