<?xml version="1.0" standalone="no"?>
<!DOCTYPE svg PUBLIC "-//W3C//DTD SVG 1.1//EN" "http://www.w3.org/Graphics/SVG/1.1/DTD/svg11.dtd" >
<svg>
<metadata>
Created by FontForge 20110222 at Fri Sep 27 09:16:22 2013
 By www-data
</metadata>
<defs>
<font id="PragmaticaLightC" horiz-adv-x="566" >
  <font-face 
    font-family="PragmaticaLightC"
    font-weight="400"
    font-stretch="normal"
    units-per-em="1000"
    panose-1="2 0 5 3 5 0 0 2 0 4"
    ascent="800"
    descent="-200"
    x-height="508"
    cap-height="700"
    bbox="-7 -224 1197 900"
    underline-thickness="50"
    underline-position="-50"
    unicode-range="U+0020-2122"
  />
<missing-glyph horiz-adv-x="233" 
 />
    <glyph glyph-name=".notdef" horiz-adv-x="233" 
 />
    <glyph glyph-name=".null" horiz-adv-x="0" 
 />
    <glyph glyph-name="nonmarkingreturn" horiz-adv-x="233" 
 />
    <glyph glyph-name="space" unicode=" " horiz-adv-x="233" 
 />
    <glyph glyph-name="space" unicode="&#xa0;" horiz-adv-x="233" 
 />
    <glyph glyph-name="numbersign" unicode="#" horiz-adv-x="627" 
d="M399 442h-143l-28 -179h143zM340 60l23 153h-143l-23 -153h-36l23 153h-134l8 50h134l28 179h-134l8 50h134l23 152h36l-23 -152h143l23 152h36l-23 -152h134l-8 -50h-134l-28 -179h134l-8 -50h-134l-23 -153h-36z" />
    <glyph glyph-name="dollar" unicode="$" 
d="M273 680q-22 -2 -47.5 -8t-47.5 -21.5t-36.5 -42.5t-14.5 -70q0 -25 6 -46t22.5 -39t45 -33t72.5 -27v287zM308 25q23 1 50 7t50.5 22t39 44.5t15.5 75.5q0 24 -5.5 48.5t-22.5 47t-47.5 40.5t-79.5 28v-313zM103 219q0 -53 15.5 -89t40 -59t55 -34t59.5 -12v322
q-47 15 -83.5 30t-61 37t-37 52t-12.5 75q0 48 17.5 82t45 55.5t62 32t69.5 11.5v55h35v-55q45 -1 78.5 -15.5t57 -38.5t36 -54.5t14.5 -63.5h-48q-1 20 -8.5 41.5t-23.5 40t-42 32t-64 16.5v-297q52 -14 90.5 -31t64 -41t38 -56.5t12.5 -77.5q0 -62 -21.5 -100.5t-53 -59.5
t-67 -27.5t-63.5 -6.5v-76h-35v76q-61 1 -103 23t-68 56t-37.5 75.5t-11.5 81.5h50z" />
    <glyph glyph-name="percent" unicode="%" horiz-adv-x="870" 
d="M543 192q0 -30 6.5 -59.5t20 -53t35 -38t52.5 -14.5t52.5 14.5t35 38t20 53t6.5 59.5t-6.5 59.5t-20 53t-35 38t-52.5 14.5t-52.5 -14.5t-35 -38t-20 -53t-6.5 -59.5zM497 192q0 60 17 98.5t41.5 61t52.5 31.5t49 9t49 -9t52.5 -31.5t41.5 -61t17 -98.5t-17 -99
t-41.5 -61.5t-52.5 -31t-49 -8.5t-49 8.5t-52.5 31t-41.5 61.5t-17 99zM99 508q0 -30 6.5 -59.5t20 -53t35 -38t52.5 -14.5t52.5 14.5t35 38t20 53t6.5 59.5t-6.5 59.5t-20 53t-35 38t-52.5 14.5t-52.5 -14.5t-35 -38t-20 -53t-6.5 -59.5zM53 508q0 60 17 98.5t41.5 61
t52.5 31.5t49 9t49 -9t52.5 -31.5t41.5 -61t17 -98.5t-17 -99t-41.5 -61.5t-52.5 -31t-49 -8.5t-49 8.5t-52.5 31t-41.5 61.5t-17 99zM664 700h41l-499 -700h-41z" />
    <glyph glyph-name="ampersand" unicode="&#x26;" horiz-adv-x="632" 
d="M261 425q16 6 36 18t37 29.5t28.5 41.5t11.5 54q0 17 -6 33t-17 29t-27.5 20.5t-38.5 7.5q-42 0 -68 -26t-26 -69q0 -31 16 -61.5t54 -76.5zM246 373q-34 -16 -62.5 -34t-49.5 -41t-32.5 -52.5t-11.5 -67.5q0 -34 12 -62.5t34 -49.5t52.5 -33t67.5 -12q74 0 121 30t75 74
zM550 295q-5 -53 -15.5 -90t-29.5 -72l114 -133h-60l-80 94q-40 -60 -95 -87.5t-128 -27.5q-56 0 -96.5 16.5t-67 44.5t-39.5 64.5t-13 77.5q0 44 13 78t37 60t57 46t73 37q-18 23 -32 41.5t-24 37t-15.5 38t-5.5 43.5q0 25 8.5 50t26.5 44t45 31t63 12q28 0 53 -9
t43.5 -25.5t29 -41t10.5 -55.5q0 -20 -5 -42.5t-20 -45.5t-42 -45.5t-70 -41.5l191 -227q8 20 17.5 51.5t11.5 76.5h45z" />
    <glyph glyph-name="quotesingle" unicode="'" horiz-adv-x="180" 
d="M105 508h-30l-25 192h80z" />
    <glyph glyph-name="parenleft" unicode="(" horiz-adv-x="333" 
d="M250 700q-63 -109 -96 -217.5t-33 -224.5t33 -224.5t96 -217.5h-31q-33 52 -60 103.5t-46.5 105.5t-30.5 111t-11 122q0 64 11 121.5t30.5 111.5t46.5 105t60 104h31z" />
    <glyph glyph-name="parenright" unicode=")" horiz-adv-x="333" 
d="M83 -184q63 109 96 217.5t33 224.5t-33 224.5t-96 217.5h31q33 -53 60 -104t46.5 -105t30.5 -111.5t11 -121.5q0 -65 -11 -122t-30.5 -111t-46.5 -105.5t-60 -103.5h-31z" />
    <glyph glyph-name="asterisk" unicode="*" horiz-adv-x="486" 
d="M158 388l-28 20l84 117l-135 43l11 32l137 -43v143h33v-143l136 43l11 -32l-135 -43l84 -117l-28 -20l-85 117z" />
    <glyph glyph-name="plus" unicode="+" horiz-adv-x="600" 
d="M285 370v235h30v-235h235v-30h-235v-235h-30v235h-235v30h235z" />
    <glyph glyph-name="comma" unicode="," horiz-adv-x="275" 
d="M165 74v-113q0 -14 -1.5 -28.5t-7 -28t-16.5 -24t-30 -15.5v36q4 1 9 4.5t9 10t6.5 17.5t2.5 28v39h-27v74h55z" />
    <glyph glyph-name="period" unicode="." horiz-adv-x="275" 
d="M110 74h55v-74h-55v74z" />
    <glyph glyph-name="slash" unicode="/" horiz-adv-x="394" 
d="M357 700h37l-357 -885h-37z" />
    <glyph glyph-name="zero" unicode="0" 
d="M283 21q45 0 80 23.5t59 67t36.5 104t12.5 134.5t-12.5 134.5t-36.5 104t-59 67t-80 23.5t-80 -23.5t-59 -67t-36.5 -104t-12.5 -134.5t12.5 -134.5t36.5 -104t59 -67t80 -23.5zM283 -21q-12 0 -34 2.5t-48.5 13.5t-54 34.5t-50 64.5t-37 103.5t-14.5 152.5t14.5 152.5
t37 103.5t50 64.5t54 34.5t48.5 13.5t34 2.5t34 -2.5t48.5 -13.5t54 -34.5t50 -64.5t37 -103.5t14.5 -152.5t-14.5 -152.5t-37 -103.5t-50 -64.5t-54 -34.5t-48.5 -13.5t-34 -2.5z" />
    <glyph glyph-name="one" unicode="1" 
d="M160 575h17q48 0 78.5 13.5t48 32.5t24.5 40.5t9 38.5h29v-700h-50v548h-156v27z" />
    <glyph glyph-name="two" unicode="2" 
d="M506 0h-432q-1 49 9 87t30.5 69t50.5 57.5t69 53.5q20 14 40 26t40 25q23 14 47.5 31.5t44.5 41t33 54t13 71.5q0 31 -10 60.5t-30.5 52.5t-51 36.5t-70.5 13.5q-23 0 -51 -7t-52.5 -26.5t-41 -53t-16.5 -86.5v-16h-50v16q0 59 19 100t49.5 66.5t68.5 37t77 11.5
q46 0 84.5 -13.5t66 -40t43 -64t15.5 -85.5t-14 -83.5t-36 -62t-50.5 -46.5t-56.5 -38q-33 -20 -71 -43t-70.5 -52t-54 -66t-22.5 -85h380v-42z" />
    <glyph glyph-name="three" unicode="3" 
d="M99 196q1 -25 9 -55.5t27.5 -57t53 -44.5t85.5 -18q57 0 92 18.5t54 45.5t25 57.5t6 54.5t-6.5 51t-25 49t-51.5 36.5t-87 14.5h-48v42h29q6 0 21 0.5t33 4.5t37 13t35 25t26 40.5t10 60.5q0 65 -42.5 105t-113.5 40q-51 0 -82 -18.5t-47.5 -45.5t-21.5 -58.5t-5 -58.5
h-48q-1 34 7.5 73.5t31.5 72.5t63 55t103 22q54 0 92.5 -16.5t63 -43t36 -60t11.5 -68.5q0 -39 -12 -66.5t-29 -46.5t-35.5 -30t-31.5 -16v-2q25 -4 49.5 -16.5t44 -34t31.5 -53t12 -73.5q0 -49 -15.5 -88.5t-44.5 -68t-72 -44t-97 -15.5q-60 0 -102 19.5t-68 50.5t-38 70
t-13 77h48z" />
    <glyph glyph-name="four" unicode="4" 
d="M362 216v415l-268 -415h268zM42 174v42l316 484h52v-484h114v-42h-114v-174h-48v174h-320z" />
    <glyph glyph-name="five" unicode="5" horiz-adv-x="540" 
d="M103 165q3 -26 14 -51.5t31.5 -46t50 -33.5t68.5 -13q37 0 70 12t58 36.5t40 61t15 86.5q0 39 -11 73t-33 59t-54 39t-74 14q-50 0 -89 -17t-68 -49h-45l52 364h335v-42h-295l-40 -269q31 29 73.5 42t80.5 13q48 0 88 -15t69 -43.5t45 -70.5t16 -96q0 -56 -17 -100.5
t-48 -75.5t-74 -47.5t-95 -16.5q-53 0 -92 16.5t-65 43t-39.5 59.5t-16.5 67h50z" />
    <glyph glyph-name="six" unicode="6" 
d="M124 213q0 -50 14.5 -86t38.5 -59.5t55 -35t63 -11.5q37 0 67.5 14.5t51.5 40.5t32.5 62.5t11.5 80.5q0 48 -14 82.5t-37.5 56t-53 32t-60.5 10.5q-32 0 -62.5 -11t-54 -34t-38 -58t-14.5 -84zM449 553q-4 25 -15 48t-29 40t-44 27.5t-60 10.5q-59 0 -97 -28.5
t-59.5 -77.5t-30 -113.5t-7.5 -136.5h2q16 57 68 88t121 31q53 0 92.5 -17.5t65.5 -48.5t39 -72t13 -87q0 -61 -18 -106t-47.5 -74t-68 -43.5t-79.5 -14.5q-70 0 -115.5 28t-72.5 76t-37.5 111t-10.5 133q0 112 19 187.5t52 121.5t77.5 65.5t95.5 19.5q23 0 52.5 -6t58 -24
t51 -51t32.5 -87h-48z" />
    <glyph glyph-name="seven" unicode="7" 
d="M51 700h464v-32q-46 -56 -95.5 -136.5t-94.5 -197.5q-28 -72 -50.5 -160.5t-31.5 -173.5h-54q2 21 7 54t15 77t25.5 96.5t39.5 112.5q32 82 79 164.5t102 151.5h-406v44z" />
    <glyph glyph-name="eight" unicode="8" 
d="M283 21q39 0 72 12t56 34.5t36 54.5t13 71q0 35 -10.5 66t-32.5 53.5t-55.5 35.5t-78.5 13t-78.5 -13t-55.5 -35.5t-32.5 -53.5t-10.5 -66q0 -39 13 -71t36 -54.5t56 -34.5t72 -12zM283 403q67 0 108 38t41 99q0 27 -9.5 52t-28 44.5t-46.5 31t-65 11.5t-65 -11.5
t-46.5 -31t-28 -44.5t-9.5 -52q0 -61 41 -99t108 -38zM201 384q-54 16 -85 57.5t-31 97.5q0 40 14.5 73.5t40.5 57.5t62.5 37.5t80.5 13.5t80.5 -13.5t62.5 -37.5t40.5 -57.5t14.5 -73.5q0 -56 -31 -97.5t-85 -57.5q28 -6 54 -21t46.5 -39t32.5 -57t12 -74q0 -44 -14 -83
t-42.5 -68t-71 -46t-99.5 -17t-99.5 17t-71 46t-42.5 68t-14 83q0 41 12 74t32.5 57t46.5 39t54 21z" />
    <glyph glyph-name="nine" unicode="9" 
d="M442 487q0 50 -14.5 86t-38.5 59.5t-55 35t-63 11.5q-38 0 -68 -14.5t-51 -40.5t-32.5 -62.5t-11.5 -80.5q0 -48 14 -82.5t37.5 -56t53 -32t60.5 -10.5q32 0 62.5 11t54 34t38 58t14.5 84zM117 147q4 -25 15 -48t29 -40t44 -27.5t60 -10.5q59 0 97 28.5t59.5 77.5
t30 113.5t7.5 136.5h-2q-16 -57 -68 -88t-121 -31q-53 0 -92.5 17.5t-65.5 48.5t-39 71.5t-13 87.5q0 61 18 106t47.5 74t68 43.5t79.5 14.5q70 0 115.5 -28t72.5 -76t37.5 -111t10.5 -133q0 -112 -19 -187.5t-52 -121.5t-77.5 -65.5t-95.5 -19.5q-23 0 -52.5 6t-58 24
t-51 51t-32.5 87h48z" />
    <glyph glyph-name="colon" unicode=":" horiz-adv-x="275" 
d="M110 74h55v-74h-55v74zM110 508h55v-74h-55v74z" />
    <glyph glyph-name="semicolon" unicode=";" horiz-adv-x="275" 
d="M165 74v-113q0 -14 -1.5 -28.5t-7 -28t-16.5 -24t-30 -15.5v36q4 1 9 4.5t9 10t6.5 17.5t2.5 28v39h-27v74h55zM110 508h55v-74h-55v74z" />
    <glyph glyph-name="semicolon" unicode="&#x37e;" horiz-adv-x="275" 
d="M165 74v-113q0 -14 -1.5 -28.5t-7 -28t-16.5 -24t-30 -15.5v36q4 1 9 4.5t9 10t6.5 17.5t2.5 28v39h-27v74h55zM110 508h55v-74h-55v74z" />
    <glyph glyph-name="less" unicode="&#x3c;" horiz-adv-x="656" 
d="M572 63l-17 -30l-495 294v30l495 294l16 -30l-471 -279z" />
    <glyph glyph-name="equal" unicode="=" horiz-adv-x="600" 
d="M550 260v-30h-500v30h500zM550 460v-30h-500v30h500z" />
    <glyph glyph-name="greater" unicode="&#x3e;" horiz-adv-x="656" 
d="M84 621l17 30l495 -294v-30l-495 -294l-16 30l471 279z" />
    <glyph glyph-name="question" unicode="?" horiz-adv-x="538" 
d="M66 496q-1 34 6 73.5t29.5 73.5t63.5 56t108 22q60 0 99 -17.5t61 -44.5t30.5 -58.5t8.5 -59.5q0 -35 -9.5 -61.5t-25.5 -49t-36.5 -42t-42.5 -39.5q-15 -14 -28 -27.5t-22.5 -30t-15 -37.5t-5.5 -49v-18h-39q-1 5 -1 9v9q0 32 5.5 56.5t15.5 43.5t23.5 34.5t29.5 30.5
q19 18 37.5 36t32.5 37.5t22.5 42.5t8.5 53q0 38 -13.5 65t-34.5 43.5t-47.5 24t-53.5 7.5q-40 0 -67 -11.5t-44.5 -29t-27 -39t-14 -41.5t-5 -37t0.5 -25h-50zM240 74h55v-74h-55v74z" />
    <glyph glyph-name="at" unicode="@" horiz-adv-x="860" 
d="M552 337q0 31 -6.5 60.5t-22 52.5t-40.5 36.5t-62 13.5q-32 0 -56 -12t-40 -34t-24 -51.5t-8 -65.5q0 -20 4 -47.5t17.5 -53t38.5 -43t67 -17.5q19 0 42 5.5t43 23t33.5 49t13.5 83.5zM617 29q-46 -27 -89.5 -38.5t-96.5 -11.5q-77 0 -144.5 24t-118 71.5t-79.5 117
t-29 159.5q0 82 29 150.5t79 117t118 75.5t145 27q94 0 163.5 -29t115 -77.5t68 -111.5t22.5 -132q0 -60 -15.5 -102.5t-40.5 -69.5t-55 -39.5t-58 -12.5q-27 0 -51.5 16t-27.5 52q-9 -19 -23.5 -33t-32 -23t-37.5 -13.5t-39 -4.5q-42 0 -75.5 14.5t-57.5 41t-37 62.5
t-13 79q0 52 16.5 89t43 61t59.5 35.5t67 11.5q19 0 38.5 -4t37 -13t31.5 -23t20 -35h2v61h44v-272q0 -22 4.5 -35.5t12 -20.5t17 -9t18.5 -2q30 0 51 18t34.5 45.5t20 61t6.5 64.5q0 77 -26 137t-70.5 100.5t-104.5 61.5t-128 21q-78 0 -139 -28.5t-104 -75.5t-65.5 -108.5
t-22.5 -127.5q0 -89 30 -153.5t77 -106.5t106 -62t118 -20q36 0 79 10.5t88 36.5z" />
    <glyph glyph-name="A" unicode="A" horiz-adv-x="600" 
d="M443 269l-143 391l-143 -391h286zM56 0h-53l267 700h60l267 -700h-53l-86 227h-316z" />
    <glyph glyph-name="B" unicode="B" horiz-adv-x="674" 
d="M140 42h221q18 0 50 2.5t63.5 17t54.5 45t23 87.5q0 43 -14.5 72t-40 46t-61.5 24t-79 7h-217v-301zM140 385h216q52 0 84.5 13.5t51 34.5t25 46.5t6.5 49.5q0 48 -20.5 74t-47 38t-52 14.5t-36.5 2.5h-227v-273zM367 700q63 0 102.5 -16t62 -41t31 -56t8.5 -61
q0 -37 -11 -64.5t-28 -46t-38 -29.5t-41 -16v-2q31 -3 58.5 -17t47.5 -36.5t31.5 -53t11.5 -67.5q0 -36 -10.5 -70.5t-38 -62t-74.5 -44.5t-119 -17h-268v700h275z" />
    <glyph glyph-name="C" unicode="C" horiz-adv-x="717" 
d="M667 222q-4 -36 -19.5 -78t-48.5 -79t-86.5 -61.5t-132.5 -24.5q-73 0 -125 22t-87 56.5t-55 76.5t-30.5 81.5t-13.5 72.5t-3 50q0 86 19.5 156.5t59 121t99 78t139.5 27.5t132.5 -22t83.5 -55.5t44.5 -72.5t15.5 -73h-50q-2 34 -16 67t-42 58t-69.5 40.5t-98.5 15.5
q-65 0 -114.5 -23.5t-83.5 -68t-51.5 -107t-17.5 -140.5q0 -71 18 -129.5t52 -100.5t83 -65.5t112 -23.5q61 0 104.5 19t71.5 48.5t42.5 65t17.5 68.5h50z" />
    <glyph glyph-name="D" unicode="D" horiz-adv-x="701" 
d="M140 42h148q32 0 68 3t70.5 13t65.5 30t54.5 54t37.5 85t14 123q0 68 -14 117.5t-37 84t-52 55.5t-59.5 32t-59.5 15t-52 4h-184v-616zM321 700q15 0 45.5 -1.5t67 -11.5t74.5 -30.5t69 -59.5t51 -98.5t20 -146.5q0 -112 -30.5 -181t-82 -107t-119.5 -51t-144 -13h-180
v700h229z" />
    <glyph glyph-name="E" unicode="E" horiz-adv-x="592" 
d="M523 385v-42h-383v-301h428v-42h-476v700h464v-42h-416v-273h383z" />
    <glyph glyph-name="F" unicode="F" horiz-adv-x="547" 
d="M485 381v-42h-345v-339h-48v700h435v-42h-387v-277h345z" />
    <glyph glyph-name="G" unicode="G" horiz-adv-x="735" 
d="M669 351v-351h-48v137h-2q-13 -30 -34.5 -58.5t-53 -50.5t-73.5 -35t-94 -13q-72 0 -130 26.5t-98 75t-61.5 117t-21.5 153.5q0 84 19.5 153t60.5 118t103.5 75.5t149.5 26.5q76 0 126.5 -22t81 -55t45 -71t17.5 -71h-50q-4 34 -18.5 66t-41.5 56.5t-66.5 39.5t-93.5 15
q-89 0 -144 -31.5t-86 -79.5t-42 -106t-11 -111q0 -26 3.5 -60.5t14 -71.5t28.5 -73t47.5 -64.5t72 -46t100.5 -17.5q52 0 91.5 14.5t67.5 38t46 53.5t29 62t15 63t4 56h-240v42h287z" />
    <glyph glyph-name="H" unicode="H" horiz-adv-x="688" 
d="M140 0h-48v700h48v-308h408v308h48v-700h-48v350h-408v-350z" />
    <glyph glyph-name="I" unicode="I" horiz-adv-x="232" 
d="M140 700v-700h-48v700h48z" />
    <glyph glyph-name="J" unicode="J" horiz-adv-x="493" 
d="M78 217v-29q0 -15 4 -43t19 -55.5t44.5 -47.5t80.5 -20q27 0 52 6.5t44.5 29t31.5 64t12 112.5v466h48v-466q0 -34 -4 -78t-23 -83t-57 -66t-106 -27q-59 0 -97 20t-59.5 50.5t-29.5 66.5t-8 68v32h48z" />
    <glyph glyph-name="K" unicode="K" horiz-adv-x="625" 
d="M540 700h64l-293 -285l314 -415h-62l-287 383l-136 -133v-250h-48v700h48v-390z" />
    <glyph glyph-name="L" unicode="L" horiz-adv-x="516" 
d="M516 0h-424v700h48v-658h376v-42z" />
    <glyph glyph-name="M" unicode="M" horiz-adv-x="844" 
d="M140 634h-2l2 -27v-607h-48v700h73l257 -637l257 637h73v-700h-48v607l2 27h-2l-258 -634h-48z" />
    <glyph glyph-name="N" unicode="N" horiz-adv-x="712" 
d="M140 0h-48v700h60l420 -633v633h48v-700h-59l-421 633v-633z" />
    <glyph glyph-name="O" unicode="O" horiz-adv-x="778" 
d="M116 350q0 -92 23 -155t61.5 -101.5t87.5 -55.5t101 -17t101 17t87.5 55.5t61.5 101.5t23 155t-23 155t-61.5 101.5t-87.5 55.5t-101 17t-101 -17t-87.5 -55.5t-61.5 -101.5t-23 -155zM66 350q0 87 21.5 155.5t63 116.5t101.5 73.5t137 25.5t137 -25.5t101.5 -73.5
t63 -117t21.5 -155t-21.5 -155t-63 -117t-101.5 -73.5t-137 -25.5t-137 25.5t-101.5 73.5t-63 116.5t-21.5 155.5z" />
    <glyph glyph-name="P" unicode="P" horiz-adv-x="614" 
d="M140 350h196q52 0 88 12t58.5 33t32 50t9.5 64q0 51 -19.5 80.5t-48 45t-61 19.5t-59.5 4h-196v-308zM348 700q28 0 66.5 -4.5t74 -23.5t60.5 -57t25 -105q0 -50 -14 -84.5t-36.5 -57t-49.5 -34.5t-53.5 -18t-49 -7t-35.5 -1h-196v-308h-48v700h256z" />
    <glyph glyph-name="Q" unicode="Q" horiz-adv-x="778" 
d="M568 84q54 54 74 120.5t20 145.5q0 92 -23 155t-61.5 101.5t-87.5 55.5t-101 17t-101 -17t-87.5 -55.5t-61.5 -101.5t-23 -155t23 -155t61.5 -101.5t87.5 -55.5t101 -17q58 0 94 14t51 24l-80 70l28 31zM697 -29l-28 -31l-99 87q-30 -20 -73.5 -34t-107.5 -14
q-77 0 -137 25.5t-101.5 73.5t-63 117t-21.5 155q0 87 21.5 155.5t63 116.5t101.5 73.5t137 25.5t137 -25.5t101.5 -73.5t63 -117t21.5 -155q0 -62 -10.5 -110t-26 -83.5t-35 -60.5t-37.5 -42z" />
    <glyph glyph-name="R" unicode="R" horiz-adv-x="673" 
d="M140 365h251q20 0 48 5.5t53 22t42.5 47t17.5 80.5q0 51 -20 78.5t-48.5 41t-59.5 16t-53 2.5h-231v-293zM92 700h279q30 0 69.5 -4t75.5 -21.5t61 -53.5t25 -99q0 -67 -32.5 -114.5t-91.5 -62.5v-2q34 -9 53.5 -26t29 -38.5t12.5 -45.5t4 -45q3 -45 4 -74t3.5 -49
t7.5 -34.5t15 -30.5h-55q-8 15 -12 29t-6 34t-3 49t-4 75q-2 24 -5.5 48t-17.5 43.5t-41.5 32t-75.5 12.5h-247v-323h-48v700z" />
    <glyph glyph-name="S" unicode="S" horiz-adv-x="634" 
d="M103 219q0 -33 10.5 -67t36.5 -62t69 -46t108 -18q70 0 110.5 19t61.5 45t26.5 53t5.5 44q0 38 -16 63.5t-40.5 42t-54.5 25.5t-57 15q-23 5 -44.5 9t-44.5 9q-33 7 -69.5 16.5t-67 28.5t-51 50t-20.5 80q0 31 11 66t39 64t77 48t125 19q68 0 113.5 -19.5t73.5 -48.5
t40.5 -64.5t15.5 -66.5h-50q-2 18 -9.5 44.5t-28.5 51.5t-59 43t-99 18q-95 0 -147 -42t-52 -108q0 -38 14.5 -62t41 -39t63.5 -24t82 -17q21 -4 49 -9t57.5 -13.5t57.5 -22t50.5 -35t36 -51.5t13.5 -72q0 -29 -9 -64.5t-36 -66t-77 -51t-133 -20.5q-82 0 -135 22.5
t-83.5 57t-42.5 76t-12 79.5h50z" />
    <glyph glyph-name="T" unicode="T" horiz-adv-x="536" 
d="M6 658v42h524v-42h-238v-658h-48v658h-238z" />
    <glyph glyph-name="U" unicode="U" horiz-adv-x="676" 
d="M127 700v-425q0 -47 7 -91t29 -79t64 -56t111 -21t110.5 21t64 55.5t29.5 79t7 91.5v425h48v-426q0 -46 -7.5 -97t-33.5 -93.5t-78 -70t-140 -27.5q-91 0 -142.5 27.5t-77.5 69.5t-32.5 93t-6.5 98v426h48z" />
    <glyph glyph-name="V" unicode="V" horiz-adv-x="572" 
d="M514 700h54l-250 -700h-64l-250 700h54l228 -652z" />
    <glyph glyph-name="W" unicode="W" horiz-adv-x="846" 
d="M249 0h-62l-181 700h54l159 -637l175 637h60l173 -637l159 637h54l-181 -700h-62l-173 643z" />
    <glyph glyph-name="X" unicode="X" horiz-adv-x="542" 
d="M474 700h58l-228 -342l234 -358h-62l-205 320l-205 -320h-62l234 358l-228 342h58l203 -305z" />
    <glyph glyph-name="Y" unicode="Y" horiz-adv-x="580" 
d="M517 700h59l-262 -391v-309h-48v309l-262 391h59l227 -347z" />
    <glyph glyph-name="Z" unicode="Z" 
d="M522 700v-44l-443 -614h461v-42h-514v48l445 610h-420v42h471z" />
    <glyph glyph-name="bracketleft" unicode="[" horiz-adv-x="343" 
d="M290 700v-35h-136v-815h136v-35h-184v885h184z" />
    <glyph glyph-name="backslash" unicode="\" horiz-adv-x="394" 
d="M357 -185l-357 885h37l357 -885h-37z" />
    <glyph glyph-name="bracketright" unicode="]" horiz-adv-x="343" 
d="M237 700v-885h-184v35h136v815h-136v35h184z" />
    <glyph glyph-name="asciicircum" unicode="^" horiz-adv-x="374" 
d="M92 482h-36l111 218h40l111 -218h-36l-95 188z" />
    <glyph glyph-name="underscore" unicode="_" horiz-adv-x="500" 
d="M0 -155h500v-30h-500v30z" />
    <glyph glyph-name="grave" unicode="`" horiz-adv-x="266" 
d="M172 568h-35l-95 132h60z" />
    <glyph glyph-name="a" unicode="a" horiz-adv-x="537" 
d="M396 281q-11 -9 -23 -13t-28.5 -6.5t-39 -4.5t-53.5 -6q-40 -5 -70 -12t-50 -20t-30 -33.5t-10 -51.5q0 -51 33 -81t90 -30q30 0 62 9.5t58 32.5t42.5 60t17.5 93zM70 367q0 24 8 52.5t29 52.5t59 40t98 16q61 0 97 -16t54.5 -40t23.5 -51.5t5 -51.5l-5 -278
q0 -4 0.5 -14t4 -20t11.5 -18t23 -8q10 0 19 3v-34q-5 -2 -13.5 -3.5t-19.5 -1.5q-23 0 -36.5 8.5t-21 22t-10 30.5t-1.5 33q-9 -18 -23.5 -36t-36.5 -32.5t-52 -23.5t-69 -9q-29 0 -59 6.5t-54 23t-39.5 44.5t-15.5 72q0 52 23.5 81.5t57 44.5t69.5 20t61 7q48 4 76.5 7
t43 10.5t19 23.5t4.5 47q0 43 -17.5 67t-40.5 35.5t-45.5 13.5t-32.5 2q-47 0 -76.5 -12t-45.5 -30.5t-22 -40.5t-6 -43h-44z" />
    <glyph glyph-name="b" unicode="b" horiz-adv-x="570" 
d="M121 251q0 -65 15.5 -109.5t41 -73t57.5 -41t64 -12.5q26 0 56 9t56 35.5t43 75t17 127.5q0 51 -11 93.5t-32.5 73t-53.5 47.5t-73 17q-42 0 -75.5 -17t-57 -48.5t-35.5 -76.5t-12 -100zM123 700v-277q20 43 64 74t112 31q60 0 101.5 -22.5t67.5 -59.5t37.5 -85.5
t11.5 -99.5q0 -54 -11.5 -104.5t-37.5 -89.5t-68 -63t-103 -24q-37 0 -65 8.5t-49 23t-35 32.5t-23 37h-2v-81h-44v700h44z" />
    <glyph glyph-name="c" unicode="c" horiz-adv-x="527" 
d="M487 174q-8 -69 -32 -107.5t-54.5 -58t-62.5 -24t-54 -4.5q-60 0 -103.5 21.5t-72 59t-42 89t-13.5 112.5q0 54 12.5 102.5t40.5 85t71.5 57.5t106.5 21q55 0 91.5 -16t59 -40.5t33 -53.5t13.5 -55h-43q-3 25 -14 48.5t-30 41.5t-46.5 29t-63.5 11q-89 0 -137 -61.5
t-48 -166.5q0 -75 17.5 -123t44.5 -76.5t59.5 -39.5t63.5 -11q49 0 79.5 19t47.5 45t24 53t9 42h43z" />
    <glyph glyph-name="d" unicode="d" horiz-adv-x="568" 
d="M99 262q0 -59 10 -100.5t25.5 -69t35 -43t38.5 -23t35.5 -9.5t25.5 -2q32 0 64 12.5t57.5 41t41 73t15.5 109.5q0 55 -12 100t-35.5 76.5t-57 48.5t-75.5 17q-47 0 -79.5 -21t-52 -54t-28 -74.5t-8.5 -81.5zM489 700v-700h-44v81h-2q-3 -8 -12.5 -24.5t-29 -33.5
t-51.5 -30t-79 -13q-52 0 -88.5 17t-61 43.5t-38 59t-20.5 63.5t-8.5 57.5t-1.5 40.5q0 71 17.5 121.5t47 83t68.5 47.5t83 15q57 0 104.5 -27t71.5 -78v277h44z" />
    <glyph glyph-name="e" unicode="e" horiz-adv-x="558" 
d="M458 284q0 28 -6.5 64.5t-25.5 68.5t-53 54t-89 22q-57 0 -92.5 -22.5t-56 -54.5t-28 -68t-8.5 -64h359zM499 147q-5 -24 -17 -53.5t-36.5 -54.5t-63 -42t-95.5 -17q-11 0 -32 1.5t-47 9.5t-53.5 24.5t-50 48t-37 79.5t-14.5 118q0 12 1.5 36t8.5 54t21.5 61t40.5 57
t65.5 42.5t96.5 16.5q29 0 67 -7.5t72 -36t57 -84t22 -151.5h-406q0 -33 7.5 -73.5t28.5 -76.5t58 -60t96 -24q37 0 65.5 10.5t49.5 28.5t33.5 42t17.5 51h44z" />
    <glyph glyph-name="f" unicode="f" horiz-adv-x="257" 
d="M251 473h-107v-473h-44v473h-94v35h94v76q0 37 8.5 60t22.5 36t33 17.5t40 4.5h13.5t33.5 -2v-35q-21 1 -30.5 1.5t-16.5 0.5q-23 0 -35 -9.5t-17.5 -22.5t-6.5 -26.5t-1 -21.5v-79h107v-35z" />
    <glyph glyph-name="g" unicode="g" horiz-adv-x="565" 
d="M280 27q29 0 58.5 9.5t53 35t38 69.5t14.5 113q0 118 -44.5 178.5t-132.5 60.5q-40 0 -68 -13.5t-47 -35t-29.5 -48t-15.5 -52.5t-6.5 -48t-1.5 -35q0 -69 16.5 -114.5t43 -72t58.5 -37t63 -10.5zM128 -68q10 -36 44.5 -63t103.5 -27q14 0 42 4.5t55.5 23t48 56.5
t20.5 106v60q-20 -49 -65 -74.5t-102 -25.5q-54 0 -91.5 17t-62 43t-38.5 58t-20.5 61.5t-8 53.5t-1.5 35q0 129 56 198.5t154 69.5q38 0 67.5 -9t51 -23t35.5 -32.5t23 -37.5h2v82h44v-470q0 -26 -4 -65t-24 -76t-63.5 -63.5t-122.5 -26.5q-21 0 -50 3t-57.5 15.5
t-52.5 37.5t-34 69h50z" />
    <glyph glyph-name="h" unicode="h" horiz-adv-x="540" 
d="M123 700v-269q19 34 45.5 53.5t52 29.5t46.5 12t31 2q57 0 89.5 -19t49 -47t20.5 -58.5t4 -53.5v-350h-44v323q0 24 -2 53.5t-13 55.5t-36 43.5t-70 17.5q-31 0 -62 -10.5t-55.5 -34t-40 -61.5t-15.5 -93v-294h-44v700h44z" />
    <glyph glyph-name="i" unicode="i" horiz-adv-x="202" 
d="M76 700h50v-73h-50v73zM123 508v-508h-44v508h44z" />
    <glyph glyph-name="j" unicode="j" horiz-adv-x="202" 
d="M76 700h50v-73h-50v73zM123 508v-571q0 -61 -20.5 -92.5t-78.5 -31.5q-9 0 -17 0.5t-14 1.5v37q5 -1 14 -1q16 0 29.5 2.5t23 12t14.5 28t5 49.5v565h44z" />
    <glyph glyph-name="k" unicode="k" horiz-adv-x="479" 
d="M407 508h55l-203 -193l220 -315h-51l-201 286l-104 -100v-186h-44v700h44v-460z" />
    <glyph glyph-name="l" unicode="l" horiz-adv-x="202" 
d="M123 700v-700h-44v700h44z" />
    <glyph glyph-name="m" unicode="m" horiz-adv-x="824" 
d="M123 508v-74q7 15 20 32t32 30.5t45 22.5t60 9q52 0 92 -26.5t51 -75.5q8 16 21.5 34t33.5 33t48 25t66 10q57 0 88 -23t45.5 -54t17 -62.5t2.5 -48.5v-340h-44v335q0 12 -1.5 38t-12 53t-33 47t-63.5 20q-26 0 -53.5 -8.5t-50.5 -29t-38 -54.5t-15 -84v-317h-44v335
q0 10 -2 36t-12.5 53t-33 48t-64.5 21q-32 0 -60 -13.5t-49 -38t-33.5 -58t-12.5 -73.5v-310h-44v508h44z" />
    <glyph glyph-name="n" unicode="n" horiz-adv-x="540" 
d="M123 508v-77q19 34 45.5 53.5t52 29.5t46.5 12t31 2q57 0 89.5 -19t49 -47t20.5 -58.5t4 -53.5v-350h-44v323q0 24 -2 53.5t-13 55.5t-36 43.5t-70 17.5q-31 0 -62 -10.5t-55.5 -34t-40 -61.5t-15.5 -93v-294h-44v508h44z" />
    <glyph glyph-name="o" unicode="o" horiz-adv-x="574" 
d="M99 254q0 -54 11.5 -98t35 -75.5t58.5 -48.5t83 -17t83 17t58.5 48.5t35 75.5t11.5 98t-11.5 98t-35 75.5t-58.5 48.5t-83 17t-83 -17t-58.5 -48.5t-35 -75.5t-11.5 -98zM53 254q0 57 13 106.5t41.5 87t72.5 59t107 21.5t107 -21.5t72.5 -59t41.5 -87t13 -106.5
t-13 -106.5t-41.5 -87t-72.5 -59t-107 -21.5t-107 21.5t-72.5 59t-41.5 87t-13 106.5z" />
    <glyph glyph-name="p" unicode="p" horiz-adv-x="570" 
d="M121 251q0 -65 15.5 -109.5t41 -73t57.5 -41t64 -12.5q26 0 56 9t56 35.5t43 75t17 127.5q0 51 -11 93.5t-32.5 73t-53.5 47.5t-73 17q-42 0 -75.5 -17t-57 -48.5t-35.5 -76.5t-12 -100zM123 508v-81h2q12 26 30.5 45t41.5 31.5t49 18.5t53 6q60 0 101.5 -22t67.5 -58.5
t37.5 -85t11.5 -101.5t-11.5 -103.5t-37.5 -90t-68 -63.5t-103 -24q-58 0 -103 25t-71 80v-270h-44v693h44z" />
    <glyph glyph-name="q" unicode="q" horiz-adv-x="570" 
d="M125 262q0 -79 17 -127.5t43 -75t56 -35.5t56 -9q32 0 64 12.5t57.5 41t41 73t15.5 109.5q0 55 -12 100t-35.5 76.5t-57 48.5t-75.5 17q-41 0 -73 -17t-53.5 -47.5t-32.5 -73t-11 -93.5zM517 508v-693h-44v270q-20 -43 -64 -74t-112 -31q-54 0 -90.5 18t-61 46.5t-38 62
t-19.5 65t-7.5 56t-1.5 33.5q0 53 12.5 101.5t38.5 85t67.5 58.5t99.5 22q27 0 53 -6t49 -18.5t41.5 -31.5t30.5 -45h2v81h44z" />
    <glyph glyph-name="r" unicode="r" horiz-adv-x="318" 
d="M318 473h-22q-24 -1 -54.5 -8t-56.5 -30.5t-44 -69t-18 -122.5v-243h-44v508h44v-105h2q9 24 25 44.5t38 36.5t49 25t58 9h23v-45z" />
    <glyph glyph-name="s" unicode="s" horiz-adv-x="470" 
d="M85 145q0 -26 9.5 -49.5t29 -41.5t48 -28.5t67.5 -10.5q43 0 71 11t44.5 28t23 37.5t6.5 38.5q0 25 -10 42t-26.5 28.5t-38.5 19t-47 13.5q-14 4 -27.5 7t-27.5 6q-33 8 -61 18t-48.5 26.5t-31.5 41t-11 60.5q0 13 4.5 35.5t22 45t52.5 39t95 16.5q58 0 93.5 -15.5
t55.5 -38.5t27.5 -49t9.5 -47h-45q-1 16 -7 36.5t-21.5 37.5t-42 29t-68.5 12q-36 0 -60.5 -8.5t-40 -23t-22.5 -33t-7 -38.5q0 -30 11 -48t31 -29.5t49 -18.5t64 -16q37 -9 69 -19t55.5 -25.5t36.5 -39t13 -59.5q0 -33 -11 -61.5t-35 -49t-61.5 -32.5t-89.5 -12
q-50 0 -86.5 14t-60 37t-35 52.5t-11.5 61.5h45z" />
    <glyph glyph-name="t" unicode="t" horiz-adv-x="274" 
d="M107 508v152h44v-152h110v-35h-110v-380q0 -14 0.5 -27t5 -23t13.5 -16t26 -6t34.5 4.5t30.5 9.5v-35q-14 -5 -33.5 -9.5t-37.5 -4.5q-29 0 -46 8.5t-25 23t-10 32.5t-2 38v385h-101v35h101z" />
    <glyph glyph-name="u" unicode="u" horiz-adv-x="540" 
d="M417 0v75h-2q-24 -44 -69.5 -69.5t-103.5 -25.5q-57 0 -89.5 19t-49 47t-20.5 58.5t-4 53.5v350h44v-323q0 -24 2 -53.5t13 -55.5t36 -43.5t70 -17.5q31 0 61.5 10.5t55.5 34t40.5 61.5t15.5 93v294h44v-508h-44z" />
    <glyph glyph-name="v" unicode="v" horiz-adv-x="432" 
d="M382 508h50l-190 -508h-52l-190 508h50l166 -461z" />
    <glyph glyph-name="w" unicode="w" horiz-adv-x="672" 
d="M209 0h-56l-147 508h46l130 -455l128 455h52l128 -455l130 455h46l-147 -508h-56l-127 456z" />
    <glyph glyph-name="x" unicode="x" horiz-adv-x="434" 
d="M363 508h53l-171 -243l189 -265h-57l-160 236l-160 -236h-57l189 265l-172 243h54l146 -211z" />
    <glyph glyph-name="y" unicode="y" horiz-adv-x="447" 
d="M79 -148q13 -2 22 -2.5t13 -0.5q19 0 31.5 4.5t21.5 15t16.5 28.5t16.5 45l19 57l-206 509h53l176 -456l160 456h45l-214 -590q-6 -17 -13 -36t-19 -35t-32 -26t-51 -10q-7 0 -17 1t-22 3v37z" />
    <glyph glyph-name="z" unicode="z" horiz-adv-x="439" 
d="M400 508v-40l-318 -433h331v-35h-387v31l329 442h-307v35h352z" />
    <glyph glyph-name="braceleft" unicode="{" horiz-adv-x="366" 
d="M75 278q42 4 65.5 42t23.5 105q0 14 -0.5 27t-1.5 27t-1.5 26.5t-0.5 26.5q0 5 0.5 19.5t5 33t13.5 38.5t26.5 37t44.5 28.5t66 11.5v-35q-17 -2 -35.5 -8t-35 -19t-27 -34t-10.5 -52q0 -12 0.5 -21t1.5 -20t1.5 -27t0.5 -42q0 -29 -3 -57t-13 -52.5t-29 -43.5t-51 -31
v-2q32 -12 51 -31t29 -43.5t13 -52.5t3 -57q0 -26 -0.5 -42t-1.5 -27t-1.5 -20t-0.5 -21q0 -31 10.5 -52t27 -34t35 -19.5t35.5 -7.5v-35q-39 0 -66 11.5t-44.5 28.5t-26.5 37t-13.5 38.5t-5 33t-0.5 19.5q0 14 0.5 26.5t1.5 26.5t1.5 27t0.5 27q0 67 -23.5 105t-65.5 42v42
z" />
    <glyph glyph-name="bar" unicode="|" horiz-adv-x="450" 
d="M208 829h34v-1053h-34v1053z" />
    <glyph glyph-name="braceright" unicode="}" horiz-adv-x="366" 
d="M291 236q-42 -4 -65.5 -42t-23.5 -105q0 -14 0.5 -27t1.5 -27t1.5 -26.5t0.5 -26.5q0 -5 -0.5 -19.5t-5 -33t-13.5 -38.5t-26.5 -37t-44.5 -28.5t-66 -11.5v35q16 1 35 7.5t35.5 19.5t27 34t10.5 52q0 12 -0.5 21t-1.5 20t-1.5 27t-0.5 42q0 29 3 57t13 52.5t29 43.5
t51 31v2q-32 12 -51 31t-29 43.5t-13 52.5t-3 57q0 26 0.5 42t1.5 27t1.5 20t0.5 21q0 31 -10.5 52t-27 34t-35.5 19t-35 8v35q39 -1 66 -12t44.5 -28t26.5 -37t13.5 -38.5t5 -33t0.5 -19.5q0 -14 -0.5 -26.5t-1.5 -26.5t-1.5 -27t-0.5 -27q0 -67 23.5 -105t65.5 -42v-42z
" />
    <glyph glyph-name="asciitilde" unicode="~" horiz-adv-x="580" 
d="M50 314q6 17 16.5 36t26 35t35.5 26.5t45 10.5t46 -7.5t37 -15.5l103 -55q23 -13 54 -13q18 0 32 7.5t25 19t18.5 25t12.5 25.5l29 -12q-15 -35 -32 -56.5t-33 -33t-31 -15t-27 -3.5q-26 0 -44.5 6t-38.5 17l-103 55q-11 6 -26 9.5t-29 3.5q-30 0 -53 -22.5t-34 -54.5z
" />
    <glyph glyph-name="quotesinglbase" unicode="&#x201a;" horiz-adv-x="275" 
d="M165 74v-113q0 -14 -1.5 -28.5t-7 -28t-16.5 -24t-30 -15.5v36q4 1 9 4.5t9 10t6.5 17.5t2.5 28v39h-27v74h55z" />
    <glyph glyph-name="quotedblbase" unicode="&#x201e;" horiz-adv-x="320" 
d="M250 74v-113q0 -14 -1.5 -28.5t-7 -28t-16.5 -24t-30 -15.5v36q4 1 9 4.5t9 10t6.5 17.5t2.5 28v39h-27v74h55zM125 74v-113q0 -14 -1.5 -28.5t-7 -28t-16.5 -24t-30 -15.5v36q4 1 9 4.5t9 10t6.5 17.5t2.5 28v39h-27v74h55z" />
    <glyph glyph-name="ellipsis" unicode="&#x2026;" horiz-adv-x="825" 
d="M660 74h55v-74h-55v74zM385 74h55v-74h-55v74zM110 74h55v-74h-55v74z" />
    <glyph glyph-name="dagger" unicode="&#x2020;" horiz-adv-x="480" 
d="M262 700v-192h185v-35h-185v-658h-44v658h-185v35h185v192h44z" />
    <glyph glyph-name="daggerdbl" unicode="&#x2021;" horiz-adv-x="480" 
d="M262 700v-192h185v-35h-185v-225h185v-35h-185v-398h-44v398h-185v35h185v225h-185v35h185v192h44z" />
    <glyph glyph-name="circumflex" unicode="&#x2c6;" horiz-adv-x="430" 
d="M92 568h-42l119 132h92l119 -132h-42l-123 112z" />
    <glyph glyph-name="perthousand" unicode="&#x2030;" horiz-adv-x="1250" 
d="M923 192q0 -30 6.5 -59.5t20 -53t35 -38t52.5 -14.5t52.5 14.5t35 38t20 53t6.5 59.5t-6.5 59.5t-20 53t-35 38t-52.5 14.5t-52.5 -14.5t-35 -38t-20 -53t-6.5 -59.5zM877 192q0 60 17 98.5t41.5 61t52.5 31.5t49 9t49 -9t52.5 -31.5t41.5 -61t17 -98.5t-17 -99
t-41.5 -61.5t-52.5 -31t-49 -8.5t-49 8.5t-52.5 31t-41.5 61.5t-17 99zM543 192q0 -30 6.5 -59.5t20 -53t35 -38t52.5 -14.5t52.5 14.5t35 38t20 53t6.5 59.5t-6.5 59.5t-20 53t-35 38t-52.5 14.5t-52.5 -14.5t-35 -38t-20 -53t-6.5 -59.5zM497 192q0 60 17 98.5t41.5 61
t52.5 31.5t49 9t49 -9t52.5 -31.5t41.5 -61t17 -98.5t-17 -99t-41.5 -61.5t-52.5 -31t-49 -8.5t-49 8.5t-52.5 31t-41.5 61.5t-17 99zM99 508q0 -30 6.5 -59.5t20 -53t35 -38t52.5 -14.5t52.5 14.5t35 38t20 53t6.5 59.5t-6.5 59.5t-20 53t-35 38t-52.5 14.5t-52.5 -14.5
t-35 -38t-20 -53t-6.5 -59.5zM53 508q0 60 17 98.5t41.5 61t52.5 31.5t49 9t49 -9t52.5 -31.5t41.5 -61t17 -98.5t-17 -99t-41.5 -61.5t-52.5 -31t-49 -8.5t-49 8.5t-52.5 31t-41.5 61.5t-17 99zM664 700h41l-499 -700h-41z" />
    <glyph glyph-name="quoteleft" unicode="&#x2018;" horiz-adv-x="275" 
d="M110 508v113q0 13 1.5 28t7 28.5t16.5 24t30 15.5v-36q-8 -3 -17.5 -14.5t-9.5 -45.5v-39h27v-74h-55z" />
    <glyph glyph-name="quoteright" unicode="&#x2019;" horiz-adv-x="275" 
d="M165 700v-113q0 -14 -1.5 -28.5t-7 -28t-16.5 -24t-30 -15.5v36q4 1 9 4.5t9 10t6.5 17.5t2.5 28v39h-27v74h55z" />
    <glyph glyph-name="quotedblleft" unicode="&#x201c;" horiz-adv-x="320" 
d="M70 508v113q0 13 1.5 28t7 28.5t16.5 24t30 15.5v-36q-8 -3 -17.5 -14.5t-9.5 -45.5v-39h27v-74h-55zM195 508v113q0 13 1.5 28t7 28.5t16.5 24t30 15.5v-36q-8 -3 -17.5 -14.5t-9.5 -45.5v-39h27v-74h-55z" />
    <glyph glyph-name="quotedblright" unicode="&#x201d;" horiz-adv-x="320" 
d="M250 700v-113q0 -14 -1.5 -28.5t-7 -28t-16.5 -24t-30 -15.5v36q4 1 9 4.5t9 10t6.5 17.5t2.5 28v39h-27v74h55zM125 700v-113q0 -14 -1.5 -28.5t-7 -28t-16.5 -24t-30 -15.5v36q4 1 9 4.5t9 10t6.5 17.5t2.5 28v39h-27v74h55z" />
    <glyph glyph-name="bullet" unicode="&#x2022;" horiz-adv-x="500" 
d="M170 350q0 33 23.5 56.5t56.5 23.5t56.5 -23.5t23.5 -56.5t-23.5 -56.5t-56.5 -23.5t-56.5 23.5t-23.5 56.5z" />
    <glyph glyph-name="endash" unicode="&#x2013;" horiz-adv-x="600" 
d="M550 280v-30h-500v30h500z" />
    <glyph glyph-name="emdash" unicode="&#x2014;" horiz-adv-x="984" 
d="M50 280h884v-30h-884v30z" />
    <glyph glyph-name="tilde" unicode="&#x2dc;" horiz-adv-x="450" 
d="M400 700q-3 -14 -9 -32t-18 -33.5t-30 -26t-44 -10.5q-27 0 -43.5 10t-40.5 31q-16 14 -31 26.5t-36 12.5q-23 0 -40.5 -19t-22.5 -51h-35q3 15 9.5 32.5t18.5 32.5t30 25t43 10q26 0 41 -9t39 -31q16 -14 33 -27t38 -13q14 0 25 7t18.5 18t12.5 23.5t7 23.5h35z" />
    <glyph glyph-name="trademark" unicode="&#x2122;" horiz-adv-x="745" 
d="M411 628h-2l3 -45v-233h-44v350h56l97 -255l9 -35h2l9 35l95 255h56v-350h-44v233l3 45h-2l-104 -278h-30zM20 665v35h270v-35h-113v-315h-44v315h-113z" />
    <glyph glyph-name="currency" unicode="&#xa4;" horiz-adv-x="560" 
d="M90 330q0 -40 15 -74.5t40.5 -60t60 -40.5t74.5 -15t74.5 15t60 40.5t40.5 60t15 74.5t-15 74.5t-40.5 60t-60 40.5t-74.5 15t-74.5 -15t-60 -40.5t-40.5 -60t-15 -74.5zM114 185q-29 34 -41.5 72t-12.5 73t12.5 73t41.5 72l-57 57l21 21l57 -57q34 29 72 41.5t73 12.5
t73 -12.5t72 -41.5l57 57l21 -21l-57 -57q29 -34 41.5 -72t12.5 -73t-12.5 -73t-41.5 -72l57 -57l-21 -21l-57 57q-34 -29 -72 -41.5t-73 -12.5t-73 12.5t-72 41.5l-57 -57l-21 21z" />
    <glyph glyph-name="section" unicode="&#xa7;" horiz-adv-x="550" 
d="M314 136q48 13 75 33t39.5 40.5t15.5 39.5t3 30q0 33 -11.5 57.5t-37 44t-66.5 37.5t-99 38q-21 -3 -44 -11.5t-42 -24t-31.5 -40t-12.5 -58.5q0 -35 10.5 -60t35.5 -45t65.5 -39t99.5 -42zM384 562q0 37 -8 60.5t-22.5 37.5t-35.5 19.5t-46 5.5q-5 0 -22.5 -1.5
t-36.5 -10t-33.5 -26.5t-14.5 -51q0 -26 9 -42.5t29 -29.5t52.5 -26t79.5 -33q36 -16 66 -32.5t51.5 -37.5t33 -48.5t11.5 -64.5q0 -41 -13.5 -70t-33.5 -49.5t-43.5 -32t-43.5 -17.5q45 -22 59 -52t14 -61q0 -29 -10 -53.5t-30 -43.5t-50 -29.5t-71 -10.5q-53 0 -85.5 16
t-50.5 41t-24 55.5t-6 58.5h44q0 -16 3.5 -38t16.5 -42.5t37 -34.5t65 -14q22 0 42 5t36 16t25.5 28.5t9.5 42.5q0 28 -11.5 45.5t-32.5 30.5t-49 23t-61 24q-45 19 -79 38.5t-56.5 43t-34 52.5t-11.5 65q0 41 13.5 69.5t33.5 47.5t44.5 30t46.5 16q-44 25 -59 52.5
t-15 66.5q0 37 14.5 61.5t37.5 38.5t50.5 20t53.5 6q33 0 61.5 -8.5t49.5 -27.5t32.5 -51t11.5 -78h-44z" />
    <glyph glyph-name="copyright" unicode="&#xa9;" horiz-adv-x="800" 
d="M548 297q-2 -14 -9 -35t-23 -41t-43 -34.5t-69 -14.5q-77 0 -121.5 46.5t-44.5 132.5t40 137t122 51q28 0 54 -8t45.5 -22.5t31.5 -36t12 -48.5h-44q-2 15 -7.5 29.5t-16.5 25.5t-29.5 18t-45.5 7q-43 0 -66.5 -19t-34.5 -44.5t-13 -51t-2 -38.5q0 -52 15.5 -81t35.5 -43
t40.5 -17t29.5 -3q30 0 48.5 10.5t29.5 25t15.5 29.5t5.5 25h44zM90 350q0 -66 24 -124.5t65.5 -102t98 -68.5t122.5 -25q63 0 119.5 25t99 68.5t67 102t24.5 124.5q0 67 -25 125.5t-67.5 101.5t-98.5 68t-119 25q-65 0 -121.5 -25t-98.5 -68.5t-66 -101.5t-24 -125zM50 350
q0 72 27 135.5t74.5 111.5t111 75.5t137.5 27.5q72 0 135.5 -27.5t111.5 -75t75.5 -111t27.5 -136.5t-27.5 -136.5t-75.5 -111t-111.5 -75t-135.5 -27.5q-74 0 -137.5 27.5t-111 75.5t-74.5 111.5t-27 135.5z" />
    <glyph glyph-name="guillemotleft" unicode="&#xab;" horiz-adv-x="462" 
d="M387 173v-50l-149 130v44l149 130v-50l-121 -102zM211 173v-50l-149 130v44l149 130v-50l-121 -102z" />
    <glyph glyph-name="logicalnot" unicode="&#xac;" horiz-adv-x="600" 
d="M550 360v-170h-30v140h-470v30h500z" />
    <glyph glyph-name="hyphen" unicode="-" horiz-adv-x="404" 
d="M70 300h264v-70h-264v70z" />
    <glyph glyph-name="hyphen" unicode="&#xad;" horiz-adv-x="404" 
d="M70 300h264v-70h-264v70z" />
    <glyph glyph-name="registered" unicode="&#xae;" horiz-adv-x="800" 
d="M316 358h96q16 0 31 4t27 12t19 21.5t7 31.5q0 20 -8 33t-21 20.5t-29.5 10t-32.5 2.5h-89v-135zM272 528h151q41 0 65 -11.5t36 -27.5t15 -33t3 -29q0 -20 -6 -34t-15 -24t-19 -16.5t-19 -9.5v-2q17 -4 26.5 -12t14.5 -18.5t6.5 -23.5t2.5 -26q1 -20 1.5 -33t1.5 -21.5
t3.5 -15t7.5 -13.5h-47q-5 5 -7 10t-3 13.5t-1.5 21.5t-1.5 35q0 12 -2 23.5t-9.5 21t-22.5 15t-43 5.5h-94v-145h-44v350zM90 350q0 -66 24.5 -124.5t66.5 -102t98.5 -68.5t120.5 -25q65 0 121.5 25t98.5 68.5t66 102t24 124.5q0 67 -24.5 125.5t-66.5 101.5t-98.5 68
t-120.5 25q-63 0 -119.5 -25t-98.5 -68.5t-67 -101.5t-25 -125zM50 350q0 72 27.5 136t75 111.5t111.5 75t136 27.5q73 0 137 -27.5t111 -75t74.5 -111.5t27.5 -136t-27.5 -136t-74.5 -111.5t-111 -75t-137 -27.5q-72 0 -136 27.5t-111.5 75t-75 111.5t-27.5 136z" />
    <glyph glyph-name="degree" unicode="&#xb0;" horiz-adv-x="264" 
d="M67 605q0 -27 19 -46t46 -19t46 19t19 46t-19 46t-46 19t-46 -19t-19 -46zM37 605q0 19 7.5 36.5t20.5 30.5t30 20.5t37 7.5q19 0 36.5 -7.5t30.5 -20.5t20.5 -30.5t7.5 -36.5q0 -20 -7.5 -37t-20.5 -30t-30.5 -20.5t-36.5 -7.5q-20 0 -37 7.5t-30 20.5t-20.5 30t-7.5 37
z" />
    <glyph glyph-name="plusminus" unicode="&#xb1;" horiz-adv-x="600" 
d="M550 110v-30h-500v30h500zM285 435v215h30v-215h235v-30h-235v-195h-30v195h-235v30h235z" />
    <glyph glyph-name="mu" unicode="&#xb5;" horiz-adv-x="554" 
d="M123 -185h-44v693h44v-277q0 -11 0.5 -30.5t4 -43t12 -47.5t25 -43.5t42 -32t63.5 -12.5q35 0 60 11t41.5 29t25.5 41t13.5 46t5.5 44.5t1 37.5v277h44v-414q0 -11 1 -22.5t5 -20.5t12.5 -14.5t24.5 -3.5l10 1v-34q-8 -2 -16.5 -3t-16.5 -1q-22 0 -34.5 9t-19 21t-8.5 25
t-2 21q-28 -48 -65 -70t-82 -22q-42 0 -81.5 21t-65.5 61v-247z" />
    <glyph glyph-name="mu" unicode="&#x3bc;" horiz-adv-x="554" 
d="M123 -185h-44v693h44v-277q0 -11 0.5 -30.5t4 -43t12 -47.5t25 -43.5t42 -32t63.5 -12.5q35 0 60 11t41.5 29t25.5 41t13.5 46t5.5 44.5t1 37.5v277h44v-414q0 -11 1 -22.5t5 -20.5t12.5 -14.5t24.5 -3.5l10 1v-34q-8 -2 -16.5 -3t-16.5 -1q-22 0 -34.5 9t-19 21t-8.5 25
t-2 21q-28 -48 -65 -70t-82 -22q-42 0 -81.5 21t-65.5 61v-247z" />
    <glyph glyph-name="paragraph" unicode="&#xb6;" horiz-adv-x="400" 
d="M298 700h35v-885h-35v885zM185 410q-32 0 -59 11t-46 30.5t-29.5 46t-10.5 57.5t10.5 58t30 46t46 30t58.5 11h35v-885h-35v595z" />
    <glyph glyph-name="periodcentered" unicode="&#xb7;" horiz-adv-x="275" 
d="M110 304h55v-74h-55v74z" />
    <glyph glyph-name="periodcentered" unicode="&#x2219;" horiz-adv-x="275" 
d="M110 304h55v-74h-55v74z" />
    <glyph glyph-name="guillemotright" unicode="&#xbb;" horiz-adv-x="462" 
d="M75 377v50l149 -130v-44l-149 -130v50l121 102zM251 377v50l149 -130v-44l-149 -130v50l121 102z" />
    <glyph glyph-name="quotedbl" unicode="&#x22;" horiz-adv-x="310" 
d="M235 508h-30l-25 192h80zM105 508h-30l-25 192h80z" />
    <glyph glyph-name="exclam" unicode="!" horiz-adv-x="275" 
d="M110 74h55v-74h-55v74zM164 700v-307l-12 -217h-29l-12 217v307h53z" />
    <glyph glyph-name="hyphenminus" horiz-adv-x="404" 
d="M70 300h264v-70h-264v70z" />
    <glyph glyph-name="afii10051" unicode="&#x402;" horiz-adv-x="718" 
d="M6 700h486v-42h-238v-265q4 0 22.5 1.5t42 2.5t47.5 2t41 1q79 0 127.5 -19.5t74.5 -49t34.5 -65t8.5 -67.5q0 -99 -56 -155.5t-155 -56.5q-25 0 -43.5 3.5t-35.5 9.5v42q17 -5 36 -9t39 -4q31 0 60.5 8.5t53 29t37.5 53.5t14 83q0 26 -6.5 53.5t-27.5 50t-61 37
t-107 14.5q-31 0 -72.5 -2.5t-73.5 -4.5v-351h-48v658h-200v42z" />
    <glyph glyph-name="afii10058" unicode="&#x409;" horiz-adv-x="1032" 
d="M560 42h211q56 0 89.5 15.5t51.5 38.5t24 50t6 50q0 33 -10 62t-31.5 50t-56.5 33.5t-84 12.5h-200v-312zM0 42q6 -1 12 -1h12q38 0 64 19.5t42.5 52.5t26 77.5t13.5 94.5t4.5 103t0.5 103v209h385v-304h199q73 0 118.5 -18.5t71 -47.5t34.5 -64t9 -68
q0 -70 -25.5 -109.5t-61 -59t-73 -24.5t-61.5 -5h-259v658h-289v-161q0 -139 -9.5 -234.5t-32 -154t-58.5 -84t-90 -25.5h-16.5t-16.5 1v42z" />
    <glyph glyph-name="quilsinglleft" horiz-adv-x="286" 
d="M211 173v-50l-149 130v44l149 130v-50l-121 -102z" />
    <glyph glyph-name="afii10059" unicode="&#x40a;" horiz-adv-x="1068" 
d="M596 42h211q56 0 89.5 15.5t51.5 38.5t24 50t6 50q0 33 -10 62t-31.5 50t-56.5 33.5t-84 12.5h-200v-312zM140 0h-48v700h48v-308h408v308h48v-304h199q73 0 118.5 -18.5t71 -47.5t34.5 -64t9 -68q0 -70 -25.5 -109.5t-61 -59t-73 -24.5t-61.5 -5h-259v350h-408v-350z
" />
    <glyph glyph-name="afii10060" unicode="&#x40b;" horiz-adv-x="720" 
d="M600 0v236q0 40 -10.5 64.5t-34.5 37t-61.5 16.5t-91.5 4q-17 0 -37.5 -1t-41.5 -2t-39.5 -2t-29.5 -2v-351h-48v658h-200v42h486v-42h-238v-265q34 2 75 4.5t77 2.5q85 0 133.5 -11t72.5 -32.5t30 -53t6 -71.5v-232h-48z" />
    <glyph glyph-name="afii10145" unicode="&#x40f;" horiz-adv-x="688" 
d="M548 700h48v-700h-228v-185h-48v185h-228v700h48v-658h408v658z" />
    <glyph glyph-name="afii10099" unicode="&#x452;" horiz-adv-x="540" 
d="M123 700v-70h220v-35h-220v-164q15 27 35.5 45.5t43.5 30t47.5 16.5t48.5 5q63 0 98 -27t51.5 -71.5t20 -102t3.5 -118.5q0 -44 -1 -90.5t-7 -90t-18.5 -82.5t-35.5 -68t-58 -46t-86 -17v35h13q56 0 86 33.5t43.5 85.5t15.5 115.5t2 122.5q0 69 -5 122.5t-19.5 90
t-39.5 55t-65 18.5q-31 0 -62 -10.5t-55.5 -34t-40 -61.5t-15.5 -93v-294h-44v595h-80v35h80v70h44z" />
    <glyph glyph-name="afii10106" unicode="&#x459;" horiz-adv-x="810" 
d="M436 35h149q19 0 43.5 4t45.5 16t35.5 35.5t14.5 62.5q0 40 -15 63t-37 33.5t-47 13t-46 2.5h-143v-230zM6 35q5 -1 10 -1h10q40 0 62 23.5t32.5 65.5t12.5 99.5t2 125.5v160h301v-208h139h30t41 -3.5t44 -12t40 -25.5t29 -44t11 -67q0 -36 -10.5 -61t-27.5 -41.5
t-37.5 -25.5t-40 -13.5t-36 -5.5t-25.5 -1h-201v473h-215v-124q0 -102 -7.5 -169.5t-25 -107.5t-46 -56.5t-70.5 -16.5h-11t-11 1v35z" />
    <glyph glyph-name="quilsinglright" horiz-adv-x="286" 
d="M75 377v50l149 -130v-44l-149 -130v50l121 102z" />
    <glyph glyph-name="afii10107" unicode="&#x45a;" horiz-adv-x="835" 
d="M461 35h149q19 0 43.5 4t45.5 16t35.5 35.5t14.5 62.5q0 40 -15 62.5t-37 33.5t-47 13.5t-46 2.5h-143v-230zM123 0h-44v508h44v-208h294v208h44v-208h139h30t41 -3.5t44 -12t40 -25.5t29 -44t11 -67q0 -36 -10.5 -61t-27.5 -41.5t-37.5 -25.5t-40 -13.5t-36 -5.5
t-25.5 -1h-201v265h-294v-265z" />
    <glyph glyph-name="afii10108" unicode="&#x45b;" horiz-adv-x="540" 
d="M123 700v-70h220v-35h-220v-164q19 34 45.5 53.5t52 29.5t46.5 12t31 2q57 0 89.5 -19t49 -47t20.5 -58.5t4 -53.5v-350h-44v323q0 24 -2 53.5t-13 55.5t-36 43.5t-70 17.5q-31 0 -62 -10.5t-55.5 -34t-40 -61.5t-15.5 -93v-294h-44v595h-80v35h80v70h44z" />
    <glyph glyph-name="afii10193" unicode="&#x45f;" horiz-adv-x="542" 
d="M419 508h44v-508h-170v-185h-44v185h-170v508h44v-473h296v473z" />
    <glyph glyph-name="afii10057" unicode="&#x408;" horiz-adv-x="493" 
d="M78 217v-29q0 -15 4 -43t19 -55.5t44.5 -47.5t80.5 -20q27 0 52 6.5t44.5 29t31.5 64t12 112.5v466h48v-466q0 -34 -4 -78t-23 -83t-57 -66t-106 -27q-59 0 -97 20t-59.5 50.5t-29.5 66.5t-8 68v32h48z" />
    <glyph glyph-name="afii10050" unicode="&#x490;" horiz-adv-x="526" 
d="M140 0h-48v700h378v158h44l6 -200h-380v-658z" />
    <glyph glyph-name="brokenbar" unicode="&#xa6;" horiz-adv-x="450" 
d="M208 399v430h34v-430h-34zM242 206v-430h-34v430h34z" />
    <glyph glyph-name="afii10023" unicode="&#x401;" horiz-adv-x="592" 
d="M400 839h50v-67h-50v67zM212 839h50v-67h-50v67zM523 385v-42h-383v-301h428v-42h-476v700h464v-42h-416v-273h383z" />
    <glyph glyph-name="afii10053" unicode="&#x404;" horiz-adv-x="717" 
d="M490 344h-374q1 -57 15.5 -115t46 -104t81.5 -75t122 -29q73 0 118.5 24.5t71 58t35 67t11.5 51.5h50q-4 -36 -19.5 -78t-48.5 -79t-86.5 -61.5t-132.5 -24.5q-73 0 -125 22t-87 56.5t-55 76.5t-30.5 81.5t-13.5 72.5t-3 50q0 86 19.5 156.5t59 121t99 78t139.5 27.5
t132.5 -22t83.5 -55.5t44.5 -72.5t15.5 -73h-50q-2 28 -13.5 60t-37.5 59t-68.5 44.5t-106.5 17.5q-54 0 -94 -14t-69.5 -37.5t-49 -54t-31 -63t-17 -65t-6.5 -59.5h374v-42z" />
    <glyph glyph-name="afii10056" unicode="&#x407;" horiz-adv-x="232" 
d="M149 839h50v-67h-50v67zM33 839h50v-67h-50v67zM140 700v-700h-48v700h48z" />
    <glyph glyph-name="afii10055" horiz-adv-x="232" 
d="M140 700v-700h-48v700h48z" />
    <glyph glyph-name="afii10103" unicode="&#x456;" horiz-adv-x="202" 
d="M76 700h50v-73h-50v73zM123 508v-508h-44v508h44z" />
    <glyph glyph-name="afii10098" unicode="&#x491;" horiz-adv-x="403" 
d="M123 0h-44v508h274v132h41l3 -167h-274v-473z" />
    <glyph glyph-name="afii10071" unicode="&#x451;" horiz-adv-x="558" 
d="M358 700h50v-73h-50v73zM150 700h50v-73h-50v73zM458 284q0 28 -6.5 64.5t-25.5 68.5t-53 54t-89 22q-57 0 -92.5 -22.5t-56 -54.5t-28 -68t-8.5 -64h359zM499 147q-5 -24 -17 -53.5t-36.5 -54.5t-63 -42t-95.5 -17q-11 0 -32 1.5t-47 9.5t-53.5 24.5t-50 48t-37 79.5
t-14.5 118q0 12 1.5 36t8.5 54t21.5 61t40.5 57t65.5 42.5t96.5 16.5q14 0 36 -2t46 -10.5t48.5 -25t44 -45.5t31.5 -72t12 -105v-19h-406q0 -33 7.5 -73.5t28.5 -76.5t58 -60t96 -24q37 0 65.5 10.5t49.5 28.5t33.5 42t17.5 51h44z" />
    <glyph glyph-name="numero" unicode="&#x2116;" horiz-adv-x="1040" 
d="M710 200h274v-42h-274v42zM742 480q0 -19 4.5 -44t16 -47.5t32 -38t52.5 -15.5t52.5 15.5t32 38t16 47.5t4.5 44t-4.5 44t-16 47.5t-32 38t-52.5 15.5t-52.5 -15.5t-32 -38t-16 -47.5t-4.5 -44zM697 480q0 55 16 90t39.5 55t49 27.5t45.5 7.5q19 0 45 -7.5t49.5 -27.5
t39.5 -55t16 -90t-16 -90t-39.5 -55t-49.5 -27.5t-45 -7.5q-20 0 -45.5 7.5t-49 27.5t-39.5 55t-16 90zM140 0h-48v700h60l421 -634v634h48v-700h-60l-421 634v-634z" />
    <glyph glyph-name="afii10101" unicode="&#x454;" horiz-adv-x="527" 
d="M347 251h-248q0 -11 2 -32.5t8 -47.5t17.5 -53.5t32 -50.5t51 -37.5t74.5 -14.5q49 0 79.5 19t47.5 45t24 53t9 42h43q-8 -67 -32 -106t-54 -58.5t-61.5 -24.5t-55.5 -5q-60 0 -103.5 21.5t-72 59t-42 89t-13.5 112.5q0 54 12.5 102.5t40.5 85t71.5 57.5t106.5 21
q56 0 93 -16.5t59 -41.5t32 -53.5t13 -53.5h-43q-3 25 -14 48.5t-30 41.5t-46.5 29t-63.5 11q-55 0 -90.5 -22t-56.5 -53.5t-29 -67.5t-9 -64h248v-35z" />
    <glyph glyph-name="afii10105" unicode="&#x458;" horiz-adv-x="202" 
d="M76 700h50v-73h-50v73zM123 508v-571q0 -61 -20.5 -92.5t-78.5 -31.5q-9 0 -17 0.5t-14 1.5v37q5 -1 14 -1q16 0 29.5 2.5t23 12t14.5 28t5 49.5v565h44z" />
    <glyph glyph-name="afii10054" unicode="&#x405;" horiz-adv-x="634" 
d="M103 219q0 -33 10.5 -67t36.5 -62t69 -46t108 -18q70 0 110.5 19t61.5 45t26.5 53t5.5 44q0 38 -16 63.5t-40.5 42t-54.5 25.5t-57 15q-56 12 -109.5 22.5t-95 29.5t-67 51.5t-25.5 89.5q0 31 11 66t39 64t77 48t125 19q68 0 113.5 -19.5t73.5 -48.5t40.5 -64.5
t15.5 -66.5h-50q-2 18 -9.5 44.5t-28.5 51.5t-59 43t-99 18q-95 0 -147 -42t-52 -108q0 -46 21.5 -72t57 -40.5t80 -22t90.5 -16.5q34 -7 72 -18.5t70 -32.5t53 -55.5t21 -87.5q0 -29 -9 -64.5t-36 -66t-77 -51t-133 -20.5q-82 0 -135 22.5t-83.5 57t-42.5 76t-12 79.5h50z
" />
    <glyph glyph-name="afii10102" unicode="&#x455;" horiz-adv-x="470" 
d="M85 145q0 -26 9.5 -49.5t29 -41.5t48 -28.5t67.5 -10.5q43 0 71 11t44.5 28t23 37.5t6.5 38.5q0 25 -10 42t-26.5 28.5t-38.5 19t-47 13.5q-14 4 -27.5 7t-27.5 6q-33 8 -61 18t-48.5 26.5t-31.5 41t-11 60.5q0 13 4.5 35.5t22 45t52.5 39t95 16.5q58 0 93.5 -15.5
t55.5 -38.5t27.5 -49t9.5 -47h-45q-1 16 -7 36.5t-21.5 37.5t-42 29t-68.5 12q-36 0 -60.5 -8.5t-40 -23t-22.5 -33t-7 -38.5q0 -30 11 -48t31 -29.5t49 -18.5t64 -16q37 -9 69 -19t55.5 -25.5t36.5 -39t13 -59.5q0 -54 -24 -85t-56 -46.5t-63 -19.5t-46 -4q-54 0 -92 14.5
t-62.5 37.5t-35.5 53t-11 60h45z" />
    <glyph glyph-name="afii10104" unicode="&#x457;" horiz-adv-x="202" 
d="M123 700h50v-73h-50v73zM29 700h50v-73h-50v73zM123 508v-508h-44v508h44z" />
    <glyph glyph-name="afii10017" unicode="&#x410;" horiz-adv-x="600" 
d="M443 269l-143 391l-143 -391h286zM56 0h-53l267 700h60l267 -700h-53l-86 227h-316z" />
    <glyph glyph-name="afii10018" unicode="&#x411;" horiz-adv-x="648" 
d="M140 42h231q52 0 87 12.5t56 33.5t29.5 49t8.5 59q0 25 -7 52.5t-27 51t-55.5 39t-92.5 15.5h-230v-312zM140 396h229q73 0 118.5 -18.5t71 -47.5t34.5 -64t9 -68q0 -47 -12.5 -79.5t-32.5 -54.5t-45 -34.5t-51 -19.5t-49.5 -8.5t-40.5 -1.5h-279v700h464v-42h-416v-262z
" />
    <glyph glyph-name="afii10019" unicode="&#x412;" horiz-adv-x="674" 
d="M140 42h221q18 0 50 2.5t63.5 17t54.5 45t23 87.5q0 43 -14.5 72t-40 46t-61.5 24t-79 7h-217v-301zM140 385h216q52 0 84.5 13.5t51 34.5t25 46.5t6.5 49.5q0 48 -20.5 74t-47 38t-52 14.5t-36.5 2.5h-227v-273zM367 700q63 0 102.5 -16t62 -41t31 -56t8.5 -61
q0 -37 -11 -64.5t-28 -46t-38 -29.5t-41 -16v-2q31 -3 58.5 -17t47.5 -36.5t31.5 -53t11.5 -67.5q0 -36 -10.5 -70.5t-38 -62t-74.5 -44.5t-119 -17h-268v700h275z" />
    <glyph glyph-name="afii10020" unicode="&#x413;" horiz-adv-x="526" 
d="M140 0h-48v700h428v-42h-380v-658z" />
    <glyph glyph-name="afii10021" unicode="&#x414;" horiz-adv-x="704" 
d="M264 658v-91q0 -100 -10.5 -179.5t-29 -142.5t-44.5 -112.5t-56 -90.5h418v616h-278zM691 42l-6 -200h-44v158h-591v-158h-44l-6 200h66q21 22 47 61t49 100.5t38.5 150.5t15.5 212v134h374v-658h101z" />
    <glyph glyph-name="afii10022" unicode="&#x415;" horiz-adv-x="592" 
d="M523 385v-42h-383v-301h428v-42h-476v700h464v-42h-416v-273h383z" />
    <glyph glyph-name="afii10024" unicode="&#x416;" horiz-adv-x="838" 
d="M395 368l-334 -368h-61l342 374l-336 326h57l332 -324v324h48v-324l332 324h57l-336 -326l342 -374h-61l-334 368v-368h-48v368z" />
    <glyph glyph-name="afii10025" unicode="&#x417;" horiz-adv-x="643" 
d="M101 199q1 -18 9 -48t31.5 -59t67.5 -50t119 -21q93 0 146 45.5t53 123.5q0 57 -22.5 89t-53.5 48.5t-62 20.5t-49 4h-87v42h83q22 0 50.5 5t53.5 19.5t42.5 41.5t17.5 71q0 21 -7 47t-27.5 48.5t-56.5 37.5t-94 15q-57 0 -94.5 -15t-59.5 -37.5t-31.5 -49t-10.5 -50.5
h-48q2 28 12.5 62t37.5 63t74 49t121 20q60 0 103.5 -15.5t72 -41.5t42.5 -61t14 -75q0 -35 -11.5 -61.5t-29 -44.5t-39 -29t-41.5 -15v-2q30 -5 57.5 -19.5t48 -37.5t32.5 -56t12 -76q0 -16 -3.5 -38t-12.5 -45t-26.5 -45.5t-44.5 -40t-66.5 -28.5t-93.5 -11
q-86 0 -139 22.5t-83.5 56t-42 71.5t-12.5 70h48z" />
    <glyph glyph-name="afii10026" unicode="&#x418;" horiz-adv-x="712" 
d="M568 700h52v-700h-48v637l-428 -637h-52v700h48v-634z" />
    <glyph glyph-name="afii10027" unicode="&#x419;" horiz-adv-x="712" 
d="M254 852q3 -38 30 -62.5t72 -24.5t72 24.5t30 62.5h44q-2 -24 -12.5 -46.5t-29 -39t-45 -26.5t-59.5 -10t-59.5 10t-45 26.5t-29 39t-12.5 46.5h44zM568 700h52v-700h-48v637l-428 -637h-52v700h48v-634z" />
    <glyph glyph-name="afii10028" unicode="&#x41a;" horiz-adv-x="583" 
d="M502 700h64l-364 -326l381 -374h-70l-373 368v-368h-48v700h48v-324z" />
    <glyph glyph-name="afii10029" unicode="&#x41b;" horiz-adv-x="652" 
d="M0 42q6 -1 12 -1h12q38 0 64 19.5t42.5 52.5t26 77.5t13.5 94.5t4.5 103t0.5 103v209h385v-700h-48v658h-289v-161q0 -139 -9.5 -234.5t-32 -154t-58.5 -84t-90 -25.5h-16.5t-16.5 1v42z" />
    <glyph glyph-name="afii10030" unicode="&#x41c;" horiz-adv-x="844" 
d="M140 634h-2l2 -27v-607h-48v700h73l257 -637l257 637h73v-700h-48v607l2 27h-2l-258 -634h-48z" />
    <glyph glyph-name="afii10031" unicode="&#x41d;" horiz-adv-x="688" 
d="M140 0h-48v700h48v-308h408v308h48v-700h-48v350h-408v-350z" />
    <glyph glyph-name="afii10032" unicode="&#x41e;" horiz-adv-x="778" 
d="M116 350q0 -92 23 -155t61.5 -101.5t87.5 -55.5t101 -17t101 17t87.5 55.5t61.5 101.5t23 155t-23 155t-61.5 101.5t-87.5 55.5t-101 17t-101 -17t-87.5 -55.5t-61.5 -101.5t-23 -155zM66 350q0 87 21.5 155.5t63 116.5t101.5 73.5t137 25.5t137 -25.5t101.5 -73.5
t63 -117t21.5 -155t-21.5 -155t-63 -117t-101.5 -73.5t-137 -25.5t-137 25.5t-101.5 73.5t-63 116.5t-21.5 155.5z" />
    <glyph glyph-name="afii10033" unicode="&#x41f;" horiz-adv-x="688" 
d="M140 0h-48v700h504v-700h-48v658h-408v-658z" />
    <glyph glyph-name="afii10034" unicode="&#x420;" horiz-adv-x="614" 
d="M140 350h196q52 0 88 12t58.5 33t32 50t9.5 64q0 51 -19.5 80.5t-48 45t-61 19.5t-59.5 4h-196v-308zM348 700q28 0 66.5 -4.5t74 -23.5t60.5 -57t25 -105q0 -50 -14 -84.5t-36.5 -57t-49.5 -34.5t-53.5 -18t-49 -7t-35.5 -1h-196v-308h-48v700h256z" />
    <glyph glyph-name="afii10035" unicode="&#x421;" horiz-adv-x="717" 
d="M667 222q-4 -36 -19.5 -78t-48.5 -79t-86.5 -61.5t-132.5 -24.5q-73 0 -125 22t-87 56.5t-55 76.5t-30.5 81.5t-13.5 72.5t-3 50q0 86 19.5 156.5t59 121t99 78t139.5 27.5t132.5 -22t83.5 -55.5t44.5 -72.5t15.5 -73h-50q-2 34 -16 67t-42 58t-69.5 40.5t-98.5 15.5
q-65 0 -114.5 -23.5t-83.5 -68t-51.5 -107t-17.5 -140.5q0 -71 18 -129.5t52 -100.5t83 -65.5t112 -23.5q61 0 104.5 19t71.5 48.5t42.5 65t17.5 68.5h50z" />
    <glyph glyph-name="afii10036" unicode="&#x422;" horiz-adv-x="536" 
d="M6 658v42h524v-42h-238v-658h-48v658h-238z" />
    <glyph glyph-name="afii10037" unicode="&#x423;" horiz-adv-x="549" 
d="M497 700h52l-239 -590q-15 -38 -31.5 -61t-35 -36.5t-40 -18t-45.5 -4.5q-17 0 -31 2t-29 7v42q7 -2 22 -5.5t35 -3.5q18 0 34.5 4.5t31.5 18.5t29 39t28 66l-265 540h59l231 -479z" />
    <glyph glyph-name="afii10038" unicode="&#x424;" horiz-adv-x="852" 
d="M516 132q73 0 119 20.5t72.5 53t36.5 72.5t10 78q0 19 -2.5 42.5t-11 48.5t-25 48.5t-45 42t-70.5 29.5t-101 11h-49v-446h66zM402 578h-49q-59 0 -101 -11t-70.5 -29.5t-45 -42t-25 -48.5t-11 -48.5t-2.5 -42.5q0 -38 10 -78t36.5 -72.5t72.5 -53t119 -20.5h66v446z
M402 90h-67q-86 0 -141.5 24.5t-87.5 63t-45 86t-13 93.5q0 45 11.5 91.5t44.5 85t91.5 62.5t151.5 24h55v100h48v-100h55q93 0 151.5 -24t91.5 -62.5t44.5 -85t11.5 -91.5q0 -61 -15 -104t-40 -72.5t-56 -47.5t-63 -27.5t-61.5 -12.5t-51.5 -3h-67v-110h-48v110z" />
    <glyph glyph-name="afii10039" unicode="&#x425;" horiz-adv-x="542" 
d="M474 700h58l-228 -342l234 -358h-62l-205 320l-205 -320h-62l234 358l-228 342h58l203 -305z" />
    <glyph glyph-name="afii10040" unicode="&#x426;" horiz-adv-x="710" 
d="M548 42v658h48v-658h101l-6 -200h-44v158h-555v700h48v-658h408z" />
    <glyph glyph-name="afii10041" unicode="&#x427;" horiz-adv-x="606" 
d="M120 700v-227q0 -43 11.5 -67.5t36 -36.5t62 -15t88.5 -3q17 0 37.5 1l41 2t39 2t30.5 2v342h48v-700h-48v316q-34 -2 -75 -4.5t-77 -2.5q-68 0 -114 6.5t-74.5 25t-41 51t-12.5 85.5v223h48z" />
    <glyph glyph-name="afii10042" unicode="&#x428;" horiz-adv-x="1024" 
d="M488 42v658h48v-658h348v658h48v-700h-840v700h48v-658h348z" />
    <glyph glyph-name="afii10043" unicode="&#x429;" horiz-adv-x="1046" 
d="M488 42v658h48v-658h348v658h48v-658h101l-6 -200h-44v158h-891v700h48v-658h348z" />
    <glyph glyph-name="afii10044" unicode="&#x42a;" horiz-adv-x="684" 
d="M212 42h211q56 0 89.5 15.5t51.5 38.5t24 50t6 50q0 33 -10 62t-31.5 50t-56.5 33.5t-84 12.5h-200v-312zM212 396h199q73 0 118.5 -18.5t71 -47.5t34.5 -64t9 -68q0 -70 -25.5 -109.5t-61 -59t-73 -24.5t-61.5 -5h-259v658h-160v42h208v-304z" />
    <glyph glyph-name="afii10045" unicode="&#x42b;" horiz-adv-x="806" 
d="M714 700v-700h-48v700h48zM140 42h211q56 0 89.5 15.5t51.5 38.5t24 50t6 50q0 33 -10 62t-31.5 50t-56.5 33.5t-84 12.5h-200v-312zM140 396h199q73 0 118.5 -18.5t71 -47.5t34.5 -64t9 -68q0 -70 -25.5 -109.5t-61 -59t-73 -24.5t-61.5 -5h-259v700h48v-304z" />
    <glyph glyph-name="afii10046" unicode="&#x42c;" horiz-adv-x="612" 
d="M140 42h211q56 0 89.5 15.5t51.5 38.5t24 50t6 50q0 33 -10 62t-31.5 50t-56.5 33.5t-84 12.5h-200v-312zM140 396h199q73 0 118.5 -18.5t71 -47.5t34.5 -64t9 -68q0 -70 -25.5 -109.5t-61 -59t-73 -24.5t-61.5 -5h-259v700h48v-304z" />
    <glyph glyph-name="afii10047" unicode="&#x42d;" horiz-adv-x="717" 
d="M601 386q-1 17 -4 45.5t-12.5 61.5t-26 66.5t-44.5 60.5t-68.5 44t-96.5 17q-66 0 -110 -17.5t-71 -44.5t-39 -59.5t-15 -61.5h-50q3 34 16.5 73.5t45.5 73.5t86 56t138 22q72 0 122.5 -22t84 -56.5t52.5 -77.5t28.5 -84t11.5 -75.5t2 -53.5q0 -74 -17 -142.5
t-54.5 -121.5t-97.5 -85t-146 -32q-79 0 -132.5 25.5t-86.5 63t-48.5 81t-18.5 79.5h50q3 -32 16 -68t41 -67t71.5 -51.5t107.5 -20.5q76 0 127.5 31.5t82 79.5t43.5 106t12 112h-374v42h374z" />
    <glyph glyph-name="afii10048" unicode="&#x42e;" horiz-adv-x="971" 
d="M582 21q52 0 101 17t87.5 55.5t61.5 101.5t23 155t-23 155t-61.5 101.5t-87.5 55.5t-101 17t-101 -17t-87.5 -55.5t-61.5 -101.5t-23 -155t23 -155t61.5 -101.5t87.5 -55.5t101 -17zM260 391q1 22 6.5 55.5t18 70t35 73t58 66t85.5 47.5t119 18q77 0 137 -25.5
t101.5 -73.5t63 -117t21.5 -155t-21.5 -155t-63 -117t-101.5 -73.5t-137 -25.5q-69 0 -119.5 18t-86.5 48.5t-59 69t-36 80t-17.5 81.5t-4.5 73h-119v-349h-48v700h48v-309h120z" />
    <glyph glyph-name="afii10049" unicode="&#x42f;" horiz-adv-x="666" 
d="M303 658q-56 0 -91.5 -16t-55.5 -40t-27 -51.5t-7 -49.5q0 -33 9 -61.5t31 -50t58.5 -34t91.5 -12.5h214v315h-223zM304 301l-177 -301h-55l182 305q-27 3 -59 13t-59 32t-45.5 58t-18.5 91q0 52 18.5 90t50 63t74.5 36.5t93 11.5h266v-700h-48v301h-222z" />
    <glyph glyph-name="afii10065" unicode="&#x430;" horiz-adv-x="537" 
d="M396 281q-11 -9 -23 -13t-28.5 -6.5t-39 -4.5t-53.5 -6q-40 -5 -70 -12t-50 -20t-30 -33.5t-10 -51.5q0 -51 33 -81t90 -30q30 0 62 9.5t58 32.5t42.5 60t17.5 93zM70 367q0 24 8 52.5t29 52.5t59 40t98 16q61 0 97 -16t54.5 -40t23.5 -51.5t5 -51.5l-5 -278
q0 -4 0.5 -14t4 -20t11.5 -18t23 -8q10 0 19 3v-34q-5 -2 -13.5 -3.5t-19.5 -1.5q-23 0 -36.5 8.5t-21 22t-10 30.5t-1.5 33q-9 -18 -23.5 -36t-36.5 -32.5t-52 -23.5t-69 -9q-29 0 -59 6.5t-54 23t-39.5 44.5t-15.5 72q0 52 23.5 81.5t57 44.5t69.5 20t61 7q48 4 76.5 7
t43 10.5t19 23.5t4.5 47q0 43 -17.5 67t-40.5 35.5t-45.5 13.5t-32.5 2q-47 0 -76.5 -12t-45.5 -30.5t-22 -40.5t-6 -43h-44z" />
    <glyph glyph-name="afii10066" unicode="&#x431;" horiz-adv-x="591" 
d="M114 255q0 -12 1.5 -34.5t7.5 -49t18 -54.5t33 -51t52 -37.5t75 -14.5q19 0 51.5 5.5t63.5 28.5t53.5 71t22.5 133q0 47 -9 89.5t-31 74.5t-57.5 50.5t-89.5 18.5q-46 0 -78 -13t-53 -34t-33 -46.5t-18 -51.5t-7.5 -48.5t-1.5 -36.5zM507 725q-2 -38 -25 -55.5t-56.5 -25
t-73.5 -10t-76 -10.5q-31 -7 -59 -21.5t-50 -40.5t-36.5 -65.5t-17.5 -96.5h2q3 9 13 28.5t31.5 40t57.5 36t91 15.5q74 0 119.5 -27t70 -67.5t32.5 -87.5t8 -87q0 -91 -24.5 -144.5t-60.5 -82t-76.5 -37t-72.5 -8.5q-35 0 -76.5 8.5t-77 40t-59 91.5t-23.5 164
q0 108 15 178t42.5 113t65.5 64t83 30q37 7 69 9.5t57 6.5t41.5 12.5t21.5 28.5h44z" />
    <glyph glyph-name="afii10067" unicode="&#x432;" horiz-adv-x="508" 
d="M123 35h149q42 0 68.5 10t41 25.5t20 33.5t5.5 35q0 40 -15.5 62t-37.5 33t-45.5 13.5t-38.5 2.5h-147v-215zM123 285h148q7 0 26.5 1.5t39.5 11t36 29t16 55.5q0 34 -15 53t-34 27t-37.5 9.5t-25.5 1.5h-154v-188zM277 508q20 0 47 -3.5t51 -16t41 -38t17 -69.5
q0 -27 -9 -46.5t-22 -32.5t-27.5 -20.5t-26.5 -11.5v-2q32 -7 52.5 -22t32 -33t16 -37.5t4.5 -36.5q0 -50 -19.5 -77.5t-47.5 -41.5t-59 -17t-54 -3h-194v508h198z" />
    <glyph glyph-name="afii10068" unicode="&#x433;" horiz-adv-x="403" 
d="M123 0h-44v508h318v-35h-274v-473z" />
    <glyph glyph-name="afii10069" unicode="&#x434;" horiz-adv-x="562" 
d="M188 473v-83q0 -75 -8.5 -133t-20.5 -101.5t-26 -73t-25 -47.5h313v438h-233zM61 35q17 24 32.5 56t27 77.5t18.5 109t7 150.5v80h319v-473h89l-3 -167h-41v132h-462v-132h-41l-3 167h57z" />
    <glyph glyph-name="afii10070" unicode="&#x435;" horiz-adv-x="558" 
d="M458 284q0 28 -6.5 64.5t-25.5 68.5t-53 54t-89 22q-57 0 -92.5 -22.5t-56 -54.5t-28 -68t-8.5 -64h359zM499 147q-5 -24 -17 -53.5t-36.5 -54.5t-63 -42t-95.5 -17q-11 0 -32 1.5t-47 9.5t-53.5 24.5t-50 48t-37 79.5t-14.5 118q0 12 1.5 36t8.5 54t21.5 61t40.5 57
t65.5 42.5t96.5 16.5q29 0 67 -7.5t72 -36t57 -84t22 -151.5h-406q0 -33 7.5 -73.5t28.5 -76.5t58 -60t96 -24q37 0 65.5 10.5t49.5 28.5t33.5 42t17.5 51h44z" />
    <glyph glyph-name="afii10072" unicode="&#x436;" horiz-adv-x="634" 
d="M295 263l-239 -263h-56l247 266l-232 242h54l226 -239v239h44v-239l226 239h54l-232 -242l247 -266h-56l-239 263v-263h-44v263z" />
    <glyph glyph-name="afii10073" unicode="&#x437;" horiz-adv-x="487" 
d="M84 152q1 -28 12 -53t31 -43.5t48 -29.5t63 -11q21 0 47.5 4t50 17t39.5 37.5t16 64.5q0 32 -10.5 54.5t-29 36.5t-43 20.5t-51.5 6.5h-85v35h79q40 0 65 9.5t39 24t19 32.5t5 35q0 28 -12 47t-30.5 31t-42.5 17.5t-48 5.5q-40 0 -66 -10.5t-41.5 -27t-22.5 -35.5t-8 -35
h-44q2 20 10 45t28 46.5t55 36.5t91 15q60 0 95 -16t52.5 -38t22.5 -46t5 -39q0 -30 -10.5 -51t-25.5 -34t-30.5 -19.5t-25.5 -9.5v-2q50 -8 78 -46.5t28 -91.5q0 -26 -9.5 -53.5t-32 -50t-61 -37t-96.5 -14.5t-96 17t-60.5 43t-32 56t-9.5 56h44z" />
    <glyph glyph-name="afii10074" unicode="&#x438;" horiz-adv-x="556" 
d="M425 508h52v-508h-44v458l-302 -458h-52v508h44v-458z" />
    <glyph glyph-name="afii10075" unicode="&#x439;" horiz-adv-x="556" 
d="M416 700q-2 -21 -11 -42t-26 -37.5t-42 -27t-59 -10.5t-59 10.5t-42 27t-26 37.5t-11 42h37q1 -16 7.5 -31.5t19 -28t31 -20t43.5 -7.5t43.5 7.5t31 20t19 28t7.5 31.5h37zM425 508h52v-508h-44v458l-302 -458h-52v508h44v-458z" />
    <glyph glyph-name="afii10076" unicode="&#x43a;" horiz-adv-x="444" 
d="M372 508h56l-254 -235l270 -273h-60l-261 265v-265h-44v508h44v-235z" />
    <glyph glyph-name="afii10077" unicode="&#x43b;" horiz-adv-x="515" 
d="M6 35q5 -1 10 -1h10q40 0 62 23.5t32.5 65.5t12.5 99.5t2 125.5v160h301v-508h-44v473h-215v-124q0 -102 -7.5 -169.5t-25 -107.5t-46 -56.5t-70.5 -16.5h-11t-11 1v35z" />
    <glyph glyph-name="afii10078" unicode="&#x43c;" horiz-adv-x="684" 
d="M123 452h-2l2 -27v-425h-44v508h62l201 -458l200 458h63v-508h-44v425l2 27h-2l-197 -452h-45z" />
    <glyph glyph-name="afii10079" unicode="&#x43d;" horiz-adv-x="540" 
d="M123 0h-44v508h44v-221h294v221h44v-508h-44v252h-294v-252z" />
    <glyph glyph-name="afii10080" unicode="&#x43e;" horiz-adv-x="574" 
d="M99 254q0 -54 11.5 -98t35 -75.5t58.5 -48.5t83 -17t83 17t58.5 48.5t35 75.5t11.5 98t-11.5 98t-35 75.5t-58.5 48.5t-83 17t-83 -17t-58.5 -48.5t-35 -75.5t-11.5 -98zM53 254q0 57 13 106.5t41.5 87t72.5 59t107 21.5t107 -21.5t72.5 -59t41.5 -87t13 -106.5
t-13 -106.5t-41.5 -87t-72.5 -59t-107 -21.5t-107 21.5t-72.5 59t-41.5 87t-13 106.5z" />
    <glyph glyph-name="afii10081" unicode="&#x43f;" horiz-adv-x="543" 
d="M123 0h-44v508h385v-508h-44v473h-297v-473z" />
    <glyph glyph-name="afii10082" unicode="&#x440;" horiz-adv-x="570" 
d="M121 251q0 -65 15.5 -109.5t41 -73t57.5 -41t64 -12.5q26 0 56 9t56 35.5t43 75t17 127.5q0 51 -11 93.5t-32.5 73t-53.5 47.5t-73 17q-42 0 -75.5 -17t-57 -48.5t-35.5 -76.5t-12 -100zM123 508v-81h2q12 26 30.5 45t41.5 31.5t49 18.5t53 6q60 0 101.5 -22t67.5 -58.5
t37.5 -85t11.5 -101.5t-11.5 -103.5t-37.5 -90t-68 -63.5t-103 -24q-58 0 -103 25t-71 80v-270h-44v693h44z" />
    <glyph glyph-name="afii10083" unicode="&#x441;" horiz-adv-x="527" 
d="M487 174q-8 -69 -32 -107.5t-54.5 -58t-62.5 -24t-54 -4.5q-60 0 -103.5 21.5t-72 59t-42 89t-13.5 112.5q0 54 12.5 102.5t40.5 85t71.5 57.5t106.5 21q55 0 91.5 -16t59 -40.5t33 -53.5t13.5 -55h-43q-3 25 -14 48.5t-30 41.5t-46.5 29t-63.5 11q-89 0 -137 -61.5
t-48 -166.5q0 -75 17.5 -123t44.5 -76.5t59.5 -39.5t63.5 -11q49 0 79.5 19t47.5 45t24 53t9 42h43z" />
    <glyph glyph-name="afii10084" unicode="&#x442;" horiz-adv-x="412" 
d="M6 473v35h400v-35h-178v-473h-44v473h-178z" />
    <glyph glyph-name="afii10085" unicode="&#x443;" horiz-adv-x="447" 
d="M79 -148q13 -2 22 -2.5t13 -0.5q19 0 31.5 4.5t21.5 15t16.5 28.5t16.5 45l19 57l-206 509h53l176 -456l160 456h45l-214 -590q-6 -17 -13 -36t-19 -35t-32 -26t-51 -10q-7 0 -17 1t-22 3v37z" />
    <glyph glyph-name="afii10086" unicode="&#x444;" horiz-adv-x="744" 
d="M394 22q73 0 121 19.5t77 51.5t41 74t12 88q0 31 -8 71t-34.5 75.5t-76 59.5t-132.5 24v-463zM350 485q-79 1 -128 -19.5t-76.5 -54.5t-37 -75t-9.5 -80q0 -46 12 -88.5t41.5 -74.5t77.5 -51.5t120 -19.5v463zM350 -13q-91 1 -148.5 26t-90.5 63.5t-45.5 86t-12.5 93.5
q0 60 14.5 103t38.5 72.5t55 47.5t64 27.5t65.5 12t59.5 1.5v180h44v-180q27 1 59.5 -2.5t65.5 -13.5t64 -28.5t55 -48t38.5 -72t14.5 -100.5q0 -46 -12 -93t-44.5 -85.5t-90.5 -63.5t-150 -26v-172h-44v172z" />
    <glyph glyph-name="afii10087" unicode="&#x445;" horiz-adv-x="434" 
d="M363 508h53l-171 -243l189 -265h-57l-160 236l-160 -236h-57l189 265l-172 243h54l146 -211z" />
    <glyph glyph-name="afii10088" unicode="&#x446;" horiz-adv-x="560" 
d="M419 35v473h44v-473h89l-3 -167h-41v132h-429v508h44v-473h296z" />
    <glyph glyph-name="afii10089" unicode="&#x447;" horiz-adv-x="474" 
d="M97 508v-178q0 -18 1.5 -32.5t13 -24.5t37.5 -15.5t76 -5.5q34 0 68.5 1t57.5 3v252h44v-508h-44v221q-33 -2 -62 -3t-61 -1q-65 0 -100 7.5t-52 21.5t-20 34.5t-3 47.5v180h44z" />
    <glyph glyph-name="afii10090" unicode="&#x448;" horiz-adv-x="774" 
d="M365 35v473h44v-473h242v473h44v-508h-616v508h44v-473h242z" />
    <glyph glyph-name="afii10091" unicode="&#x449;" horiz-adv-x="792" 
d="M365 35v473h44v-473h242v473h44v-473h89l-3 -167h-41v132h-661v508h44v-473h242z" />
    <glyph glyph-name="afii10092" unicode="&#x44a;" horiz-adv-x="552" 
d="M178 35h149q19 0 43.5 4t45.5 16t35.5 35.5t14.5 62.5q0 40 -15 62.5t-37 33.5t-47 13.5t-46 2.5h-143v-230zM6 508h172v-208h139h30t41 -3.5t44 -12t40 -25.5t29 -44t11 -67q0 -36 -10.5 -61t-27.5 -41.5t-37.5 -25.5t-40 -13.5t-36 -5.5t-25.5 -1h-201v473h-128v35z
" />
    <glyph glyph-name="afii10093" unicode="&#x44b;" horiz-adv-x="646" 
d="M567 508v-508h-44v508h44zM123 35h149q19 0 43.5 4t45.5 16t35.5 35.5t14.5 62.5q0 40 -15 62.5t-37 33.5t-47 13.5t-46 2.5h-143v-230zM123 508v-208h139h30t41 -3.5t44 -12t39.5 -25.5t29 -44t11.5 -67q0 -36 -10.5 -61t-27.5 -41.5t-37.5 -25.5t-40 -13.5t-36 -5.5
t-25.5 -1h-201v508h44z" />
    <glyph glyph-name="afii10094" unicode="&#x44c;" horiz-adv-x="497" 
d="M123 35h149q19 0 43.5 4t45.5 16t35.5 35.5t14.5 62.5q0 40 -15 62.5t-37 33.5t-47 13.5t-46 2.5h-143v-230zM123 508v-208h139h30t41 -3.5t44 -12t39.5 -25.5t29 -44t11.5 -67q0 -36 -10.5 -61t-27.5 -41.5t-37.5 -25.5t-40 -13.5t-36 -5.5t-25.5 -1h-201v508h44z" />
    <glyph glyph-name="afii10095" unicode="&#x44d;" horiz-adv-x="520" 
d="M173 286h248q0 13 -1.5 33.5t-7.5 43.5t-17 46.5t-30 42t-47.5 30t-67.5 11.5q-37 0 -65.5 -11t-48.5 -29t-31.5 -41.5t-12.5 -48.5h-45q1 30 14 60t38 53t63 37.5t90 14.5t88.5 -15t60.5 -39t37.5 -53.5t19.5 -59t7.5 -55.5t1.5 -42q0 -97 -22.5 -153.5t-55 -85.5
t-70 -37t-67.5 -8q-60 0 -100.5 18t-65 46t-35 61t-11.5 63h46q0 -26 9.5 -53.5t29.5 -49.5t51.5 -36t75.5 -14q57 0 91 25.5t51.5 62t22 77.5t4.5 71h-248v35z" />
    <glyph glyph-name="afii10096" unicode="&#x44e;" horiz-adv-x="731" 
d="M256 254q0 -54 11.5 -98t35 -75.5t58.5 -48.5t83 -17t83 17t58.5 48.5t35 75.5t11.5 98t-11.5 98t-35 75.5t-58.5 48.5t-83 17t-83 -17t-58.5 -48.5t-35 -75.5t-11.5 -98zM211 286q1 14 4 37t11.5 50t24.5 54.5t41.5 50t62.5 36.5t89 14q63 0 107 -21.5t72.5 -59
t41.5 -87t13 -106.5t-13 -106.5t-41.5 -87t-72.5 -59t-107 -21.5q-54 0 -92.5 15.5t-64.5 40t-41.5 55t-23 60.5t-10 56.5t-2.5 43.5h-87v-251h-44v508h44v-222h88z" />
    <glyph glyph-name="afii10097" unicode="&#x44f;" horiz-adv-x="507" 
d="M228 473q-16 0 -38.5 -2t-43.5 -13.5t-35.5 -34.5t-14.5 -65q0 -59 36 -83.5t103 -24.5h149v223h-156zM90 0h-50l133 216q-15 2 -36 8.5t-40.5 22t-33 42t-13.5 68.5q0 28 8 55.5t26 48.5t47.5 34t73.5 13h223v-508h-44v215h-167z" />
    <glyph glyph-name="afii10052" unicode="&#x403;" horiz-adv-x="526" 
d="M407 900l-96 -140h-40l70 140h66zM140 0h-48v700h428v-42h-380v-658z" />
    <glyph glyph-name="afii10100" unicode="&#x453;" horiz-adv-x="403" 
d="M332 700l-95 -132h-35l70 132h60zM123 0h-44v508h318v-35h-274v-473z" />
    <glyph glyph-name="afii10061" unicode="&#x40c;" horiz-adv-x="583" 
d="M415 900l-96 -140h-40l70 140h66zM502 700h64l-364 -326l381 -374h-70l-373 368v-368h-48v700h48v-324z" />
    <glyph glyph-name="afii10109" unicode="&#x45c;" horiz-adv-x="444" 
d="M344 700l-95 -132h-35l70 132h60zM372 508h56l-254 -235l270 -273h-60l-261 265v-265h-44v508h44v-235z" />
    <glyph glyph-name="afii10062" unicode="&#x40e;" horiz-adv-x="549" 
d="M202 852q3 -38 30 -62.5t72 -24.5t72 24.5t30 62.5h44q-2 -24 -12.5 -46.5t-29 -39t-45 -26.5t-59.5 -10t-59.5 10t-45 26.5t-29 39t-12.5 46.5h44zM497 700h52l-239 -590q-15 -38 -31.5 -61t-35 -36.5t-40 -18t-45.5 -4.5q-17 0 -31 2t-29 7v42q7 -2 22 -5.5t35 -3.5
q18 0 34.5 4.5t31.5 18.5t29 39t28 66l-265 540h59l231 -479z" />
    <glyph glyph-name="afii10110" unicode="&#x45e;" horiz-adv-x="447" 
d="M142 700q1 -16 7.5 -31.5t19 -28t31 -20t43.5 -7.5t43.5 7.5t31 20t19 28t7.5 31.5h37q-2 -21 -11 -42t-26 -37.5t-42 -27t-59 -10.5t-59 10.5t-42 27t-26 37.5t-11 42h37zM79 -148q13 -2 22 -2.5t13 -0.5q19 0 31.5 4.5t21.5 15t16.5 28.5t16.5 45l19 57l-206 509h53
l176 -456l160 456h45l-214 -590q-6 -17 -13 -36t-19 -35t-32 -26t-51 -10q-7 0 -17 1t-22 3v37z" />
  </font>
</defs>
</svg>
