<?xml version="1.0" standalone="no"?>
<!DOCTYPE svg PUBLIC "-//W3C//DTD SVG 1.1//EN" "http://www.w3.org/Graphics/SVG/1.1/DTD/svg11.dtd" >
<svg xmlns="http://www.w3.org/2000/svg">
<metadata></metadata>
<defs>
<font id="post_pixel-7regular" horiz-adv-x="1126" >
<font-face units-per-em="2048" ascent="1536" descent="-512" />
<missing-glyph horiz-adv-x="500" />
<glyph horiz-adv-x="2048" />
<glyph horiz-adv-x="2048" />
<glyph unicode="&#xd;" />
<glyph unicode=" " />
<glyph unicode="!" horiz-adv-x="307" d="M0 0v205h102v-205h-102zM0 410v1331h102v-1331h-102z" />
<glyph unicode="&#x22;" horiz-adv-x="512" d="M0 1331v410h102v-410h-102zM205 1331v410h102v-410h-102z" />
<glyph unicode="#" d="M0 307v103h205v921h-205v103h205v307h102v-307h307v307h103v-307h205v-103h-205v-921h205v-103h-205v-307h-103v307h-307v-307h-102v307h-205zM307 410h307v921h-307v-921z" />
<glyph unicode="$" d="M0 0v102h410v717h-308v103h-102v716h102v103h308v205h102v-205h410v-103h-410v-716h307v-103h103v-717h-103v-102h-307v-205h-102v205h-410zM102 922h308v716h-308v-716zM512 102h307v717h-307v-717z" />
<glyph unicode="%" horiz-adv-x="1024" d="M0 0v205h102v205h103v204h102v205h103v205h102v205h102v205h103v204h102v-204h-102v-205h-103v-205h-102v-205h-102v-205h-103v-204h-102v-205h-103v-205h-102zM0 1331v410h307v-410h-307zM102 1434h103v204h-103v-204zM512 0v410h307v-410h-307zM614 102h103v205h-103 v-205z" />
<glyph unicode="&#x26;" d="M0 102v717h102v103h-102v716h102v103h512v-103h103v-716h205v-103h-205v-717h205v-102h-205v102h-103v-102h-512v102h-102zM102 102h512v717h-512v-717zM102 922h512v716h-512v-716zM614 819h103v103h-103v-103z" />
<glyph unicode="'" horiz-adv-x="307" d="M0 1331v410h102v-410h-102z" />
<glyph unicode="(" horiz-adv-x="716" d="M0 205v1331h102v102h103v103h307v-103h-307v-102h-103v-1331h103v-103h307v-102h-307v102h-103v103h-102z" />
<glyph unicode=")" horiz-adv-x="716" d="M0 0v102h307v103h103v1331h-103v102h-307v103h307v-103h103v-102h102v-1331h-102v-103h-103v-102h-307z" />
<glyph unicode="*" d="M0 819v103h410v102h-103v102h-102v103h-103v102h103v-102h102v-103h103v-102h102v102h102v103h103v102h102v-102h-102v-103h-103v-102h-102v-102h410v-103h-410v-102h102v-103h103v-102h102v-102h-102v102h-103v102h-102v103h-102v-103h-103v-102h-102v-102h-103v102h103 v102h102v103h103v102h-410z" />
<glyph unicode="+" d="M0 819v103h410v409h102v-409h410v-103h-410v-409h-102v409h-410z" />
<glyph unicode="," horiz-adv-x="409" d="M0 0v102h205v-409h-103v307h-102z" />
<glyph unicode="-" d="M0 819v103h922v-103h-922z" />
<glyph unicode="." horiz-adv-x="309" d="M0 0v205h102v-205h-102z" />
<glyph unicode="/" horiz-adv-x="1024" d="M0 0v205h102v205h103v204h102v205h103v205h102v205h102v205h103v204h102v-204h-102v-205h-103v-205h-102v-205h-102v-205h-103v-204h-102v-205h-103v-205h-102z" />
<glyph unicode="0" d="M0 102v1536h102v103h717v-103h103v-1536h-103v-102h-717v102h-102zM102 102h717v1024h-102v-102h-103v-102h-102v-103h-102v-102h-103v-103h-102v-102h-103v-410zM102 614h103v103h102v102h103v103h102v102h102v102h103v103h102v409h-717v-1024z" />
<glyph unicode="1" d="M819 0v1741h103v-1741h-103z" />
<glyph unicode="2" d="M0 0v819h102v103h717v716h-819v103h819v-103h103v-716h-103v-103h-717v-717h820v-102h-922z" />
<glyph unicode="3" d="M0 0v102h819v717h-717v103h717v716h-819v103h819v-103h103v-716h-103v-103h103v-717h-103v-102h-819z" />
<glyph unicode="4" d="M0 819v922h102v-819h717v819h103v-1741h-103v819h-819z" />
<glyph unicode="5" d="M0 0v102h819v717h-819v922h922v-103h-820v-716h717v-103h103v-717h-103v-102h-819z" />
<glyph unicode="6" d="M0 102v1536h102v103h820v-103h-820v-716h717v-103h103v-717h-103v-102h-717v102h-102zM102 102h717v717h-717v-717z" />
<glyph unicode="7" d="M0 922v819h922v-1741h-103v1638h-717v-716h-102z" />
<glyph unicode="8" d="M0 102v717h102v103h-102v716h102v103h717v-103h103v-716h-103v-103h103v-717h-103v-102h-717v102h-102zM102 102h717v717h-717v-717zM102 922h717v716h-717v-716z" />
<glyph unicode="9" d="M0 0v102h819v717h-717v103h-102v716h102v103h717v-103h103v-1536h-103v-102h-819zM102 922h717v716h-717v-716z" />
<glyph unicode=":" horiz-adv-x="307" d="M0 410v204h102v-204h-102zM0 1126v205h102v-205h-102z" />
<glyph unicode=";" horiz-adv-x="409" d="M0 0v102h205v-409h-103v307h-102zM0 1126v205h102v-205h-102z" />
<glyph unicode="&#x3c;" horiz-adv-x="716" d="M0 717v102h102v103h103v102h102v102h103v103h102v-103h-102v-102h-103v-102h-102v-103h-103v-102h103v-103h102v-102h103v-102h102v-103h-102v103h-103v102h-102v102h-103v103h-102z" />
<glyph unicode="=" d="M0 614v103h922v-103h-922zM0 1024v102h922v-102h-922z" />
<glyph unicode="&#x3e;" horiz-adv-x="716" d="M0 307v103h102v102h103v102h102v103h103v102h-103v103h-102v102h-103v102h-102v103h102v-103h103v-102h102v-102h103v-103h102v-102h-102v-103h-103v-102h-102v-102h-103v-103h-102z" />
<glyph unicode="?" d="M0 1638v103h819v-103h103v-716h-103v-103h-409v-409h-103v409h103v103h409v716h-819zM307 0v205h103v-205h-103z" />
<glyph unicode="@" d="M0 102v1536h102v103h717v-103h103v-1228h-512v921h409v307h-717v-1536h717v-102h-717v102h-102zM512 512h307v717h-307v-717z" />
<glyph unicode="A" d="M0 0v1638h102v103h717v-103h103v-1638h-103v819h-717v-819h-102zM102 922h717v716h-717v-716z" />
<glyph unicode="B" d="M0 0v1741h819v-103h103v-716h-103v-103h103v-717h-103v-102h-819zM102 102h717v717h-717v-717zM102 922h717v716h-717v-716z" />
<glyph unicode="C" d="M0 102v1536h102v103h820v-103h-820v-1536h820v-102h-820v102h-102z" />
<glyph unicode="D" d="M0 0v1741h819v-103h103v-1536h-103v-102h-819zM102 102h717v1536h-717v-1536z" />
<glyph unicode="E" d="M0 0v1741h922v-103h-820v-716h717v-103h-717v-717h820v-102h-922z" />
<glyph unicode="F" d="M0 0v1741h922v-103h-820v-716h717v-103h-717v-819h-102z" />
<glyph unicode="G" d="M0 102v1536h102v103h820v-103h-820v-1536h717v717h-409v103h512v-820h-103v-102h-717v102h-102z" />
<glyph unicode="H" d="M0 0v1741h102v-819h717v819h103v-1741h-103v819h-717v-819h-102z" />
<glyph unicode="I" d="M0 0v102h410v1536h-410v103h922v-103h-410v-1536h410v-102h-922z" />
<glyph unicode="J" d="M0 102v820h102v-820h717v1536h-819v103h922v-1639h-103v-102h-717v102h-102z" />
<glyph unicode="K" d="M0 0v1741h102v-819h410v102h102v102h103v103h102v512h103v-512h-103v-103h-102v-102h-103v-102h-102v-103h102v-102h103v-103h102v-102h103v-512h-103v512h-102v102h-103v103h-102v102h-410v-819h-102z" />
<glyph unicode="L" d="M0 0v1741h102v-1639h820v-102h-922z" />
<glyph unicode="M" d="M0 0v1741h102v-512h103v-103h102v-102h103v-102h102v102h102v102h103v103h102v512h103v-1741h-103v1126h-102v-102h-103v-102h-102v-103h-102v103h-103v102h-102v102h-103v-1126h-102z" />
<glyph unicode="N" d="M0 0v1741h102v-512h103v-103h102v-102h103v-102h102v-103h102v-102h103v-103h102v1127h103v-1741h-103v512h-102v102h-103v103h-102v102h-102v103h-103v102h-102v102h-103v-1126h-102z" />
<glyph unicode="O" d="M0 102v1536h102v103h717v-103h103v-1536h-103v-102h-717v102h-102zM102 102h717v1536h-717v-1536z" />
<glyph unicode="P" d="M0 0v1741h819v-103h103v-716h-103v-103h-717v-819h-102zM102 922h717v716h-717v-716z" />
<glyph unicode="Q" d="M0 102v1536h102v103h717v-103h103v-1536h-103v-102h103v-102h-103v102h-717v102h-102zM102 102h512v103h-102v102h-102v103h102v-103h102v-102h103v-103h102v1536h-717v-1536z" />
<glyph unicode="R" d="M0 0v1741h819v-103h103v-716h-103v-103h-205v-102h103v-103h102v-102h103v-512h-103v512h-102v102h-103v103h-102v102h-410v-819h-102zM102 922h717v716h-717v-716z" />
<glyph unicode="S" d="M0 0v102h819v717h-717v103h-102v716h102v103h820v-103h-820v-716h717v-103h103v-717h-103v-102h-819z" />
<glyph unicode="T" d="M0 1638v103h922v-103h-410v-1638h-102v1638h-410z" />
<glyph unicode="U" d="M0 102v1639h102v-1639h717v1639h103v-1639h-103v-102h-717v102h-102z" />
<glyph unicode="V" d="M0 410v1331h102v-1331h103v-103h102v-102h103v-103h102v103h102v102h103v103h102v1331h103v-1331h-103v-103h-102v-102h-103v-103h-102v-102h-102v102h-103v103h-102v102h-103v103h-102z" />
<glyph unicode="W" d="M0 102v1639h102v-1639h308v820h102v-820h307v1639h103v-1639h-103v-102h-717v102h-102z" />
<glyph unicode="X" d="M0 0v512h102v102h103v103h102v102h103v103h-103v102h-102v102h-103v103h-102v512h102v-512h103v-103h102v-102h103v-102h102v102h102v102h103v103h102v512h103v-512h-103v-103h-102v-102h-103v-102h-102v-103h102v-102h103v-103h102v-102h103v-512h-103v512h-102v102 h-103v103h-102v102h-102v-102h-103v-103h-102v-102h-103v-512h-102z" />
<glyph unicode="Y" d="M0 1229v512h102v-512h103v-103h102v-102h103v-102h102v102h102v102h103v103h102v512h103v-512h-103v-103h-102v-102h-103v-102h-102v-922h-102v922h-103v102h-102v102h-103v103h-102z" />
<glyph unicode="Z" d="M0 0v512h102v102h103v103h102v102h103v103h102v102h102v102h103v103h102v409h-819v103h922v-512h-103v-103h-102v-102h-103v-102h-102v-103h-102v-102h-103v-103h-102v-102h-103v-410h820v-102h-922z" />
<glyph unicode="[" horiz-adv-x="716" d="M0 0v1741h512v-103h-410v-1536h410v-102h-512z" />
<glyph unicode="\" horiz-adv-x="1024" d="M0 1434v204h102v-204h103v-205h102v-205h103v-205h102v-205h102v-204h103v-205h102v-205h-102v205h-103v205h-102v204h-102v205h-103v205h-102v205h-103v205h-102z" />
<glyph unicode="]" horiz-adv-x="716" d="M0 0v102h410v1536h-410v103h512v-1741h-512z" />
<glyph unicode="^" d="M0 1229v102h102v103h103v102h102v102h103v103h102v-103h102v-102h103v-102h102v-103h103v-102h-103v102h-102v103h-103v102h-102v102h-102v-102h-103v-102h-102v-103h-103v-102h-102z" />
<glyph unicode="_" d="M0 0v102h922v-102h-922z" />
<glyph unicode="`" horiz-adv-x="614" d="M0 1638v103h102v-103h103v-102h102v-102h103v-103h-103v103h-102v102h-103v102h-102z" />
<glyph unicode="a" horiz-adv-x="921" d="M0 102v410h102v102h512v410h-614v102h614v-102h103v-1024h-615v102h-102zM102 102h512v410h-512v-410z" />
<glyph unicode="b" horiz-adv-x="921" d="M0 102v1639h102v-615h512v-102h103v-922h-103v-102h-512v102h-102zM102 102h512v922h-512v-922z" />
<glyph unicode="c" horiz-adv-x="921" d="M0 102v922h102v102h615v-102h-615v-922h615v-102h-615v102h-102z" />
<glyph unicode="d" horiz-adv-x="921" d="M0 102v922h102v102h512v615h103v-1639h-103v-102h-512v102h-102zM102 102h512v922h-512v-922z" />
<glyph unicode="e" horiz-adv-x="921" d="M0 102v922h102v102h512v-102h103v-512h-615v-410h615v-102h-615v102h-102zM102 614h512v410h-512v-410z" />
<glyph unicode="f" horiz-adv-x="921" d="M0 1024v102h205v512h102v103h307v-103h103v-204h-103v204h-307v-512h307v-102h-307v-1024h-102v1024h-205z" />
<glyph unicode="g" horiz-adv-x="921" d="M0 102v922h102v102h512v-102h103v-1331h-103v-103h-614v103h614v307h-512v102h-102zM102 102h512v922h-512v-922z" />
<glyph unicode="h" horiz-adv-x="921" d="M0 0v1741h102v-615h512v-102h103v-1024h-103v1024h-512v-1024h-102z" />
<glyph unicode="i" horiz-adv-x="921" d="M0 0v102h307v922h-307v102h410v-1024h307v-102h-717zM205 1331v103h205v-103h-205z" />
<glyph unicode="j" horiz-adv-x="921" d="M0 -307h614v1331h-512v102h615v-1433h-103v-103h-614v103zM410 1331v103h204v-103h-204z" />
<glyph unicode="k" horiz-adv-x="921" d="M0 0v1741h102v-1127h308v103h102v102h102v307h103v-307h-103v-102h-102v-103h-102v-102h102v-102h102v-103h103v-307h-103v307h-102v103h-102v102h-308v-512h-102z" />
<glyph unicode="l" horiz-adv-x="921" d="M0 0v102h307v1536h-307v103h410v-1639h307v-102h-717z" />
<glyph unicode="m" horiz-adv-x="921" d="M0 0v1126h307v-102h103v102h204v-102h103v-1024h-103v1024h-204v-1024h-103v1024h-205v-1024h-102z" />
<glyph unicode="n" horiz-adv-x="921" d="M0 0v1126h614v-102h103v-1024h-103v1024h-512v-1024h-102z" />
<glyph unicode="o" horiz-adv-x="921" d="M0 102v922h102v102h512v-102h103v-922h-103v-102h-512v102h-102zM102 102h512v922h-512v-922z" />
<glyph unicode="p" horiz-adv-x="921" d="M0 -410v1434h102v102h512v-102h103v-922h-103v-102h-512v-410h-102zM102 102h512v922h-512v-922z" />
<glyph unicode="q" horiz-adv-x="921" d="M0 102v922h102v102h512v-102h103v-1434h-103v410h-512v102h-102zM102 102h512v922h-512v-922z" />
<glyph unicode="r" horiz-adv-x="921" d="M0 0v1126h102v-102h103v102h409v-102h103v-205h-103v205h-409v-102h-103v-922h-102z" />
<glyph unicode="s" horiz-adv-x="921" d="M0 0v102h614v410h-512v102h-102v410h102v102h615v-102h-615v-410h512v-102h103v-410h-103v-102h-614z" />
<glyph unicode="t" horiz-adv-x="921" d="M0 1024v102h205v615h102v-615h307v-102h-307v-922h307v205h103v-205h-103v-102h-307v102h-102v922h-205z" />
<glyph unicode="u" horiz-adv-x="921" d="M0 102v1024h102v-1024h512v1024h103v-1024h-103v-102h-512v102h-102z" />
<glyph unicode="v" horiz-adv-x="921" d="M0 307v819h102v-819h103v-102h102v-103h103v103h102v102h102v819h103v-819h-103v-102h-102v-103h-102v-102h-103v102h-102v103h-103v102h-102z" />
<glyph unicode="w" horiz-adv-x="921" d="M0 102v1024h102v-1024h205v512h103v-512h204v1024h103v-1024h-103v-102h-204v102h-103v-102h-205v102h-102z" />
<glyph unicode="x" horiz-adv-x="921" d="M0 0v307h102v103h103v102h102v102h-102v103h-103v102h-102v307h102v-307h103v-102h102v-103h103v103h102v102h102v307h103v-307h-103v-102h-102v-103h-102v-102h102v-102h102v-103h103v-307h-103v307h-102v103h-102v102h-103v-102h-102v-103h-103v-307h-102z" />
<glyph unicode="y" horiz-adv-x="921" d="M0 102v1024h102v-1024h512v1024h103v-1433h-103v-103h-614v103h614v307h-512v102h-102z" />
<glyph unicode="z" horiz-adv-x="921" d="M0 0v307h102v103h103v102h102v102h103v103h102v102h102v205h-614v102h717v-307h-103v-102h-102v-103h-102v-102h-103v-102h-102v-103h-103v-205h615v-102h-717z" />
<glyph unicode="{" horiz-adv-x="921" d="M0 819v103h205v716h102v103h410v-103h-410v-716h-102v-103h102v-717h410v-102h-410v102h-102v717h-205z" />
<glyph unicode="|" horiz-adv-x="307" d="M0 0v1741h102v-1741h-102z" />
<glyph unicode="}" horiz-adv-x="921" d="M0 0v102h410v717h102v103h-102v716h-410v103h410v-103h102v-716h205v-103h-205v-717h-102v-102h-410z" />
<glyph unicode="~" horiz-adv-x="1331" d="M0 512v410h102v102h410v-102h102v-308h410v410h102v-410h-102v-102h-410v102h-102v308h-410v-410h-102z" />
<glyph unicode="&#xa0;" />
<glyph unicode="&#xa1;" horiz-adv-x="307" d="M0 0v1331h102v-1331h-102zM0 1536v205h102v-205h-102z" />
<glyph unicode="&#xa2;" horiz-adv-x="921" d="M0 102v922h102v102h205v205h103v-205h307v-102h-307v-922h307v-102h-307v-205h-103v205h-205v102h-102zM102 102h205v922h-205v-922z" />
<glyph unicode="&#xa3;" horiz-adv-x="921" d="M0 0v102h205v922h-205v102h205v512h102v103h307v-103h103v-204h-103v204h-307v-512h307v-102h-307v-922h410v-102h-410v102h-102v-102h-205z" />
<glyph unicode="&#xa4;" horiz-adv-x="1024" d="M0 307v103h102v102h103v-102h-103v-103h-102zM0 1024v102h102v-102h103v-102h-103v102h-102zM205 614v205h102v103h205v-103h102v-205h-102v-102h-205v102h-102zM307 614h205v205h-205v-205zM614 410v102h103v-102h102v-103h-102v103h-103zM614 922v102h103v102h102v-102 h-102v-102h-103z" />
<glyph unicode="&#xa5;" d="M0 1229v512h102v-512h103v-103h102v-102h103v-102h102v102h102v102h103v103h102v512h103v-512h-103v-103h-102v-102h-103v-102h-102v-103h307v-102h-307v-205h307v-102h-307v-410h-102v410h-308v102h308v205h-308v102h308v103h-103v102h-102v102h-103v103h-102z" />
<glyph unicode="&#xa6;" horiz-adv-x="307" d="M0 0v717h102v-717h-102zM0 1024v717h102v-717h-102z" />
<glyph unicode="&#xa7;" d="M0 0v102h819v410h-717v102h-102v1024h102v103h820v-103h-820v-409h717v-103h103v-1024h-103v-102h-819zM102 614h717v512h-717v-512z" />
<glyph unicode="&#xa8;" horiz-adv-x="512" d="M0 1536v205h102v-205h-102zM205 1536v205h102v-205h-102z" />
<glyph unicode="&#xa9;" d="M0 102v1536h102v103h717v-103h103v-1536h-103v-102h-717v102h-102zM102 102h717v1536h-717v-1536zM205 512v614h102v103h410v-103h-410v-614h410v-102h-410v102h-102z" />
<glyph unicode="&#xaa;" horiz-adv-x="614" d="M0 1229v205h102v102h205v102h-307v103h307v-103h103v-512h-308v103h-102zM102 1229h205v205h-205v-205z" />
<glyph unicode="&#xab;" horiz-adv-x="1024" d="M0 717v102h102v103h103v102h102v102h103v103h102v-103h-102v-102h-103v-102h-102v-103h-103v-102h103v-103h102v-102h103v-102h102v-103h-102v103h-103v102h-102v102h-103v103h-102zM307 717v102h103v103h102v102h102v102h103v103h102v-103h-102v-102h-103v-102h-102 v-103h-102v-102h102v-103h102v-102h103v-102h102v-103h-102v103h-103v102h-102v102h-102v103h-103z" />
<glyph unicode="&#xac;" d="M0 1638v103h922v-410h-103v307h-819z" />
<glyph unicode="&#xad;" horiz-adv-x="921" d="M0 819v103h717v-103h-717z" />
<glyph unicode="&#xae;" d="M0 102v1536h102v103h717v-103h103v-1536h-103v-102h-717v102h-102zM102 102h717v1536h-717v-1536zM205 410v819h409v-103h103v-307h-103v-102h-102v-103h102v-102h103v-102h-103v102h-102v102h-102v103h-103v-307h-102zM307 819h307v307h-307v-307z" />
<glyph unicode="&#xb0;" horiz-adv-x="614" d="M0 1331v307h102v103h205v-103h103v-307h-103v-102h-205v102h-102zM102 1331h205v307h-205v-307z" />
<glyph unicode="&#xb1;" d="M0 205v102h922v-102h-922zM0 819v103h410v409h102v-409h410v-103h-410v-409h-102v409h-410z" />
<glyph unicode="&#xb2;" horiz-adv-x="614" d="M0 1229v205h102v102h205v102h-307v103h307v-103h103v-102h-103v-102h-205v-103h308v-102h-410z" />
<glyph unicode="&#xb3;" horiz-adv-x="614" d="M0 1229v102h307v103h-205v102h205v102h-307v103h307v-103h103v-102h-103v-102h103v-103h-103v-102h-307z" />
<glyph unicode="&#xb4;" horiz-adv-x="512" d="M0 1434v102h102v102h103v103h102v-103h-102v-102h-103v-102h-102z" />
<glyph unicode="&#xb5;" d="M0 -307v1638h102v-1024h103v-102h102v-103h307v103h103v102h102v1024h103v-1331h-103v205h-102v-103h-103v-102h-307v102h-102v103h-103v-512h-102z" />
<glyph unicode="&#xb6;" d="M0 1229v409h102v103h820v-103h-205v-1638h-103v1638h-307v-1638h-102v1638h-103v-409h-102z" />
<glyph unicode="&#xb7;" horiz-adv-x="307" d="M0 717v205h102v-205h-102z" />
<glyph unicode="&#xb8;" horiz-adv-x="614" d="M0 -205h307v103h-102v102h102v-102h103v-103h-103v-102h-307v102z" />
<glyph unicode="&#xb9;" horiz-adv-x="512" d="M0 1229v102h102v307h-102v103h205v-410h102v-102h-307z" />
<glyph unicode="&#xba;" horiz-adv-x="614" d="M0 1331v307h102v103h205v-103h103v-307h-103v-102h-205v102h-102zM102 1331h205v307h-205v-307z" />
<glyph unicode="&#xbb;" horiz-adv-x="1024" d="M0 307v103h102v102h103v102h102v103h103v102h-103v103h-102v102h-103v102h-102v103h102v-103h103v-102h102v-102h103v-103h102v-102h-102v-103h-103v-102h-102v-102h-103v-103h-102zM307 307v103h103v102h102v102h102v103h103v102h-103v103h-102v102h-102v102h-103v103 h103v-103h102v-102h102v-102h103v-103h102v-102h-102v-103h-103v-102h-102v-102h-102v-103h-103z" />
<glyph unicode="&#xbc;" horiz-adv-x="1024" d="M0 0v205h102v205h103v204h102v205h103v205h102v205h102v205h103v204h102v-204h-102v-205h-103v-205h-102v-205h-102v-205h-103v-204h-102v-205h-103v-205h-102zM0 1229v102h102v307h-102v103h205v-410h102v-102h-307zM410 205v307h102v-205h205v205h102v-512h-102v205 h-307z" />
<glyph unicode="&#xbd;" horiz-adv-x="1024" d="M0 0v205h102v205h103v204h102v205h103v205h102v205h102v205h103v204h102v-204h-102v-205h-103v-205h-102v-205h-102v-205h-103v-204h-102v-205h-103v-205h-102zM0 1229v102h102v307h-102v103h205v-410h102v-102h-307zM410 0v205h102v102h205v103h-307v102h307v-102h102 v-103h-102v-102h-205v-103h307v-102h-409z" />
<glyph unicode="&#xbe;" horiz-adv-x="1024" d="M0 0v205h102v205h103v204h102v205h103v205h102v205h102v205h103v204h102v-204h-102v-205h-103v-205h-102v-205h-102v-205h-103v-204h-102v-205h-103v-205h-102zM0 1229v102h307v103h-205v102h205v102h-307v103h307v-103h103v-102h-103v-102h103v-103h-103v-102h-307z M410 205v307h102v-205h205v205h102v-512h-102v205h-307z" />
<glyph unicode="&#xbf;" d="M0 102v717h102v103h410v409h102v-409h-102v-103h-410v-717h820v-102h-820v102h-102zM512 1536v205h102v-205h-102z" />
<glyph unicode="&#xc0;" d="M0 0v1638h102v103h717v-103h103v-1638h-103v819h-717v-819h-102zM102 922h717v716h-717v-716zM205 2150v103h102v-103h103v-102h102v-102h-102v102h-103v102h-102z" />
<glyph unicode="&#xc1;" d="M0 0v1638h102v103h717v-103h103v-1638h-103v819h-717v-819h-102zM102 922h717v716h-717v-716zM410 1946v102h102v102h102v103h103v-103h-103v-102h-102v-102h-102z" />
<glyph unicode="&#xc2;" d="M0 0v1638h102v103h717v-103h103v-1638h-103v819h-717v-819h-102zM102 922h717v716h-717v-716zM102 1946v102h103v102h102v103h103v-103h-103v-102h-102v-102h-103zM512 2150v103h102v-103h103v-102h102v-102h-102v102h-103v102h-102z" />
<glyph unicode="&#xc3;" d="M0 0v1638h102v103h717v-103h103v-1638h-103v819h-717v-819h-102zM102 922h717v716h-717v-716zM102 1946v204h103v103h205v-103h102v-102h205v205h102v-205h-102v-102h-205v102h-102v102h-205v-204h-103z" />
<glyph unicode="&#xc4;" d="M0 0v1638h102v103h717v-103h103v-1638h-103v819h-717v-819h-102zM102 922h717v716h-717v-716zM205 1946v204h102v-204h-102zM614 1946v204h103v-204h-103z" />
<glyph unicode="&#xc5;" d="M0 0v1638h102v103h717v-103h103v-1638h-103v819h-717v-819h-102zM102 922h717v716h-717v-716zM205 1946v204h102v103h307v-103h103v-204h-103v-103h-307v103h-102zM307 1946h307v204h-307v-204z" />
<glyph unicode="&#xc6;" horiz-adv-x="1536" d="M0 0v1638h102v103h512v-103h103v103h614v-103h-614v-716h512v-103h-512v-717h614v-102h-717v819h-512v-819h-102zM102 922h512v716h-512v-716z" />
<glyph unicode="&#xc7;" d="M0 102v1536h102v103h820v-103h-820v-1536h820v-102h-410v-102h102v-103h-102v-102h-307v102h307v103h-102v102h-308v102h-102z" />
<glyph unicode="&#xc8;" d="M0 0v1741h922v-103h-820v-716h717v-103h-717v-717h820v-102h-922zM205 2150v103h102v-103h103v-102h102v-102h-102v102h-103v102h-102z" />
<glyph unicode="&#xc9;" d="M0 0v1741h922v-103h-820v-716h717v-103h-717v-717h820v-102h-922zM410 1946v102h102v102h102v103h103v-103h-103v-102h-102v-102h-102z" />
<glyph unicode="&#xca;" d="M0 0v1741h922v-103h-820v-716h717v-103h-717v-717h820v-102h-922zM102 1946v102h103v102h102v103h103v-103h-103v-102h-102v-102h-103zM512 2150v103h102v-103h103v-102h102v-102h-102v102h-103v102h-102z" />
<glyph unicode="&#xcb;" d="M0 0v1741h922v-103h-820v-716h717v-103h-717v-717h820v-102h-922zM205 1946v204h102v-204h-102zM614 1946v204h103v-204h-103z" />
<glyph unicode="&#xcc;" d="M0 0v102h410v1536h-410v103h922v-103h-410v-1536h410v-102h-922zM205 2150v103h102v-103h103v-102h102v-102h-102v102h-103v102h-102z" />
<glyph unicode="&#xcd;" d="M0 0v102h410v1536h-410v103h922v-103h-410v-1536h410v-102h-922zM410 1946v102h102v102h102v103h103v-103h-103v-102h-102v-102h-102z" />
<glyph unicode="&#xce;" d="M0 0v102h410v1536h-410v103h922v-103h-410v-1536h410v-102h-922zM102 1946v102h103v102h102v103h103v-103h-103v-102h-102v-102h-103zM512 2150v103h102v-103h103v-102h102v-102h-102v102h-103v102h-102z" />
<glyph unicode="&#xcf;" d="M0 0v102h410v1536h-410v103h922v-103h-410v-1536h410v-102h-922zM205 1946v204h102v-204h-102zM614 1946v204h103v-204h-103z" />
<glyph unicode="&#xd0;" horiz-adv-x="1228" d="M0 819v103h102v819h820v-103h102v-1536h-102v-102h-820v819h-102zM205 102h717v1536h-717v-716h205v-103h-205v-717z" />
<glyph unicode="&#xd1;" d="M0 0v1741h102v-512h103v-103h102v-102h103v-102h102v-103h102v-102h103v-103h102v1127h103v-1741h-103v512h-102v102h-103v103h-102v102h-102v103h-103v102h-102v102h-103v-1126h-102zM102 1946v204h103v103h205v-103h102v-102h205v205h102v-205h-102v-102h-205v102h-102 v102h-205v-204h-103z" />
<glyph unicode="&#xd2;" d="M0 102v1536h102v103h717v-103h103v-1536h-103v-102h-717v102h-102zM102 102h717v1536h-717v-1536zM205 2150v103h102v-103h103v-102h102v-102h-102v102h-103v102h-102z" />
<glyph unicode="&#xd3;" d="M0 102v1536h102v103h717v-103h103v-1536h-103v-102h-717v102h-102zM102 102h717v1536h-717v-1536zM410 1946v102h102v102h102v103h103v-103h-103v-102h-102v-102h-102z" />
<glyph unicode="&#xd4;" d="M0 102v1536h102v103h717v-103h103v-1536h-103v-102h-717v102h-102zM102 102h717v1536h-717v-1536zM102 1946v102h103v102h102v103h103v-103h-103v-102h-102v-102h-103zM512 2150v103h102v-103h103v-102h102v-102h-102v102h-103v102h-102z" />
<glyph unicode="&#xd5;" d="M0 102v1536h102v103h717v-103h103v-1536h-103v-102h-717v102h-102zM102 102h717v1536h-717v-1536zM102 1946v204h103v103h205v-103h102v-102h205v205h102v-205h-102v-102h-205v102h-102v102h-205v-204h-103z" />
<glyph unicode="&#xd6;" d="M0 102v1536h102v103h717v-103h103v-1536h-103v-102h-717v102h-102zM102 102h717v1536h-717v-1536zM205 1946v204h102v-204h-102zM614 1946v204h103v-204h-103z" />
<glyph unicode="&#xd7;" horiz-adv-x="921" d="M0 512v102h102v103h103v102h102v103h-102v102h-103v102h-102v103h102v-103h103v-102h102v-102h103v102h102v102h102v103h103v-103h-103v-102h-102v-102h-102v-103h102v-102h102v-103h103v-102h-103v102h-102v103h-102v102h-103v-102h-102v-103h-103v-102h-102z" />
<glyph unicode="&#xd8;" d="M0 102v1536h102v103h717v-103h103v-1536h-103v-102h-717v102h-102zM102 102h717v1024h-102v-102h-103v-102h-102v-103h-102v-102h-103v-103h-102v-102h-103v-410zM102 614h103v103h102v102h103v103h102v102h102v102h103v103h102v409h-717v-1024z" />
<glyph unicode="&#xd9;" d="M0 102v1639h102v-1639h717v1639h103v-1639h-103v-102h-717v102h-102zM205 2150v103h102v-103h103v-102h102v-102h-102v102h-103v102h-102z" />
<glyph unicode="&#xda;" d="M0 102v1639h102v-1639h717v1639h103v-1639h-103v-102h-717v102h-102zM410 1946v102h102v102h102v103h103v-103h-103v-102h-102v-102h-102z" />
<glyph unicode="&#xdb;" d="M0 102v1639h102v-1639h717v1639h103v-1639h-103v-102h-717v102h-102zM102 1946v102h103v102h102v103h103v-103h-103v-102h-102v-102h-103zM512 2150v103h102v-103h103v-102h102v-102h-102v102h-103v102h-102z" />
<glyph unicode="&#xdc;" d="M0 102v1639h102v-1639h717v1639h103v-1639h-103v-102h-717v102h-102zM205 1946v204h102v-204h-102zM614 1946v204h103v-204h-103z" />
<glyph unicode="&#xdd;" d="M0 1229v512h102v-512h103v-103h102v-102h103v-102h102v102h102v102h103v103h102v512h103v-512h-103v-103h-102v-102h-103v-102h-102v-922h-102v922h-103v102h-102v102h-103v103h-102zM410 1946v102h102v102h102v103h103v-103h-103v-102h-102v-102h-102z" />
<glyph unicode="&#xde;" d="M0 0v1741h102v-307h717v-103h103v-921h-103v-103h-717v-307h-102zM102 410h717v921h-717v-921z" />
<glyph unicode="&#xdf;" d="M0 0v1638h102v103h717v-103h103v-716h-103v-103h103v-717h-103v-102h-512v102h512v717h-717v-819h-102zM102 922h717v716h-717v-716z" />
<glyph unicode="&#xe0;" horiz-adv-x="921" d="M0 102v410h102v102h512v410h-614v102h614v-102h103v-1024h-615v102h-102zM102 102h512v410h-512v-410zM102 1536v102h103v-102h102v-102h103v-103h-103v103h-102v102h-103z" />
<glyph unicode="&#xe1;" horiz-adv-x="921" d="M0 102v410h102v102h512v410h-614v102h614v-102h103v-1024h-615v102h-102zM102 102h512v410h-512v-410zM307 1331v103h103v102h102v102h102v-102h-102v-102h-102v-103h-103z" />
<glyph unicode="&#xe2;" horiz-adv-x="921" d="M0 102v410h102v102h512v410h-614v102h614v-102h103v-1024h-615v102h-102zM0 1331v103h102v102h103v102h102v-102h-102v-102h-103v-103h-102zM102 102h512v410h-512v-410zM410 1536v102h102v-102h102v-102h103v-103h-103v103h-102v102h-102z" />
<glyph unicode="&#xe3;" horiz-adv-x="921" d="M0 102v410h102v102h512v410h-614v102h614v-102h103v-1024h-615v102h-102zM0 1331v205h102v102h205v-102h103v-102h204v204h103v-204h-103v-103h-204v103h-103v102h-205v-205h-102zM102 102h512v410h-512v-410z" />
<glyph unicode="&#xe4;" horiz-adv-x="921" d="M0 102v410h102v102h512v410h-614v102h614v-102h103v-1024h-615v102h-102zM102 102h512v410h-512v-410zM102 1331v205h103v-205h-103zM512 1331v205h102v-205h-102z" />
<glyph unicode="&#xe5;" horiz-adv-x="921" d="M0 102v410h102v102h512v410h-614v102h614v-102h103v-1024h-615v102h-102zM102 102h512v410h-512v-410zM102 1434v204h103v103h307v-103h102v-204h-102v-103h-307v103h-103zM205 1434h307v204h-307v-204z" />
<glyph unicode="&#xe6;" horiz-adv-x="1536" d="M0 102v410h102v102h512v410h-614v102h614v-102h103v102h512v-102h102v-512h-614v-410h614v-102h-1229v102h-102zM102 102h512v410h-512v-410zM717 614h512v410h-512v-410z" />
<glyph unicode="&#xe7;" horiz-adv-x="921" d="M0 102v922h102v102h615v-102h-615v-922h615v-102h-307v-102h102v-103h-102v-102h-308v102h308v103h-103v102h-205v102h-102z" />
<glyph unicode="&#xe8;" horiz-adv-x="921" d="M0 102v922h102v102h512v-102h103v-512h-615v-410h615v-102h-615v102h-102zM102 614h512v410h-512v-410zM102 1536v102h103v-102h102v-102h103v-103h-103v103h-102v102h-103z" />
<glyph unicode="&#xe9;" horiz-adv-x="921" d="M0 102v922h102v102h512v-102h103v-512h-615v-410h615v-102h-615v102h-102zM102 614h512v410h-512v-410zM307 1331v103h103v102h102v102h102v-102h-102v-102h-102v-103h-103z" />
<glyph unicode="&#xea;" horiz-adv-x="921" d="M0 102v922h102v102h512v-102h103v-512h-615v-410h615v-102h-615v102h-102zM102 614h512v410h-512v-410zM307 1331v103h103v102h102v102h102v-102h-102v-102h-102v-103h-103z" />
<glyph unicode="&#xeb;" horiz-adv-x="921" d="M0 102v922h102v102h512v-102h103v-512h-615v-410h615v-102h-615v102h-102zM102 614h512v410h-512v-410zM102 1331v205h103v-205h-103zM512 1331v205h102v-205h-102z" />
<glyph unicode="&#xec;" horiz-adv-x="921" d="M0 0v102h307v922h-307v102h410v-1024h307v-102h-717zM102 1536v102h103v-102h102v-102h103v-103h-103v103h-102v102h-103z" />
<glyph unicode="&#xed;" horiz-adv-x="921" d="M0 0v102h307v922h-307v102h410v-1024h307v-102h-717zM307 1331v103h103v102h102v102h102v-102h-102v-102h-102v-103h-103z" />
<glyph unicode="&#xee;" horiz-adv-x="921" d="M0 0v102h307v922h-307v102h410v-1024h307v-102h-717zM0 1331v103h102v102h103v102h102v-102h-102v-102h-103v-103h-102zM410 1536v102h102v-102h102v-102h103v-103h-103v103h-102v102h-102z" />
<glyph unicode="&#xef;" horiz-adv-x="921" d="M0 0v102h307v922h-307v102h410v-1024h307v-102h-717zM102 1331v205h103v-205h-103zM512 1331v205h102v-205h-102z" />
<glyph unicode="&#xf0;" horiz-adv-x="921" d="M0 102v922h102v102h512v410h-102v102h-307v103h307v-103h102v-102h103v-1434h-103v-102h-512v102h-102zM102 102h512v922h-512v-922z" />
<glyph unicode="&#xf1;" horiz-adv-x="921" d="M0 0v1126h614v-102h103v-1024h-103v1024h-512v-1024h-102zM0 1331v205h102v102h205v-102h103v-102h204v204h103v-204h-103v-103h-204v103h-103v102h-205v-205h-102z" />
<glyph unicode="&#xf2;" horiz-adv-x="921" d="M0 102v922h102v102h512v-102h103v-922h-103v-102h-512v102h-102zM102 102h512v922h-512v-922zM102 1536v102h103v-102h102v-102h103v-103h-103v103h-102v102h-103z" />
<glyph unicode="&#xf3;" horiz-adv-x="921" d="M0 102v922h102v102h512v-102h103v-922h-103v-102h-512v102h-102zM102 102h512v922h-512v-922zM307 1331v103h103v102h102v102h102v-102h-102v-102h-102v-103h-103z" />
<glyph unicode="&#xf4;" horiz-adv-x="921" d="M0 102v922h102v102h512v-102h103v-922h-103v-102h-512v102h-102zM0 1331v103h102v102h103v102h102v-102h-102v-102h-103v-103h-102zM102 102h512v922h-512v-922zM410 1536v102h102v-102h102v-102h103v-103h-103v103h-102v102h-102z" />
<glyph unicode="&#xf5;" horiz-adv-x="921" d="M0 102v922h102v102h512v-102h103v-922h-103v-102h-512v102h-102zM0 1331v205h102v102h205v-102h103v-102h204v204h103v-204h-103v-103h-204v103h-103v102h-205v-205h-102zM102 102h512v922h-512v-922z" />
<glyph unicode="&#xf6;" horiz-adv-x="921" d="M0 102v922h102v102h512v-102h103v-922h-103v-102h-512v102h-102zM102 102h512v922h-512v-922zM102 1331v205h103v-205h-103zM512 1331v205h102v-205h-102z" />
<glyph unicode="&#xf7;" d="M0 819v103h922v-103h-922zM410 410v204h102v-204h-102zM410 1126v205h102v-205h-102z" />
<glyph unicode="&#xf8;" horiz-adv-x="921" d="M0 102v922h102v102h512v-102h103v-922h-103v-102h-512v102h-102zM102 102h512v615h-102v-103h-102v-102h-103v-102h-102v-103h-103v-205zM102 410h103v102h102v102h103v103h102v102h102v205h-512v-614z" />
<glyph unicode="&#xf9;" horiz-adv-x="921" d="M0 102v1024h102v-1024h512v1024h103v-1024h-103v-102h-512v102h-102zM102 1536v102h103v-102h102v-102h103v-103h-103v103h-102v102h-103z" />
<glyph unicode="&#xfa;" horiz-adv-x="921" d="M0 102v1024h102v-1024h512v1024h103v-1024h-103v-102h-512v102h-102zM307 1331v103h103v102h102v102h102v-102h-102v-102h-102v-103h-103z" />
<glyph unicode="&#xfb;" horiz-adv-x="921" d="M0 102v1024h102v-1024h512v1024h103v-1024h-103v-102h-512v102h-102zM0 1331v103h102v102h103v102h102v-102h-102v-102h-103v-103h-102zM410 1536v102h102v-102h102v-102h103v-103h-103v103h-102v102h-102z" />
<glyph unicode="&#xfc;" horiz-adv-x="921" d="M0 102v1024h102v-1024h512v1024h103v-1024h-103v-102h-512v102h-102zM102 1331v205h103v-205h-103zM512 1331v205h102v-205h-102z" />
<glyph unicode="&#xfd;" horiz-adv-x="921" d="M0 102v1024h102v-1024h512v1024h103v-1433h-103v-103h-614v103h614v307h-512v102h-102zM307 1331v103h103v102h102v102h102v-102h-102v-102h-102v-103h-103z" />
<glyph unicode="&#xfe;" horiz-adv-x="921" d="M0 -410v1946h102v-410h512v-102h103v-922h-103v-102h-512v-410h-102zM102 102h512v922h-512v-922z" />
<glyph unicode="&#xff;" horiz-adv-x="921" d="M0 102v1024h102v-1024h512v1024h103v-1433h-103v-103h-614v103h614v307h-512v102h-102zM102 1331v205h103v-205h-103zM512 1331v205h102v-205h-102z" />
<glyph unicode="&#x152;" horiz-adv-x="1536" d="M0 102v1536h102v103h512v-103h103v103h614v-103h-614v-716h512v-103h-512v-717h614v-102h-614v102h-103v-102h-512v102h-102zM102 102h512v1536h-512v-1536z" />
<glyph unicode="&#x153;" horiz-adv-x="1536" d="M0 102v922h102v102h512v-102h103v102h512v-102h102v-512h-614v-410h614v-102h-614v102h-103v-102h-512v102h-102zM102 102h512v922h-512v-922zM717 614h512v410h-512v-410z" />
<glyph unicode="&#x178;" d="M0 1229v512h102v-512h103v-103h102v-102h103v-102h102v102h102v102h103v103h102v512h103v-512h-103v-103h-102v-102h-103v-102h-102v-922h-102v922h-103v102h-102v102h-103v103h-102zM205 1946v204h102v-204h-102zM614 1946v204h103v-204h-103z" />
<glyph unicode="&#x2c6;" horiz-adv-x="921" d="M0 1331v103h102v102h103v102h102v103h103v-103h102v-102h102v-102h103v-103h-103v103h-102v102h-102v102h-103v-102h-102v-102h-103v-103h-102z" />
<glyph unicode="&#x2dc;" horiz-adv-x="1331" d="M0 1331v307h102v103h410v-103h102v-307h410v307h102v-307h-102v-102h-410v102h-102v307h-410v-307h-102z" />
<glyph unicode="&#x2000;" />
<glyph unicode="&#x2001;" horiz-adv-x="2253" />
<glyph unicode="&#x2002;" />
<glyph unicode="&#x2003;" horiz-adv-x="2253" />
<glyph unicode="&#x2004;" horiz-adv-x="751" />
<glyph unicode="&#x2005;" horiz-adv-x="563" />
<glyph unicode="&#x2006;" horiz-adv-x="375" />
<glyph unicode="&#x2007;" horiz-adv-x="375" />
<glyph unicode="&#x2008;" horiz-adv-x="281" />
<glyph unicode="&#x2009;" horiz-adv-x="450" />
<glyph unicode="&#x200a;" horiz-adv-x="125" />
<glyph unicode="&#x2010;" d="M0 819v103h922v-103h-922z" />
<glyph unicode="&#x2011;" d="M0 819v103h922v-103h-922z" />
<glyph unicode="&#x2012;" d="M0 819v103h922v-103h-922z" />
<glyph unicode="&#x2013;" d="M0 819v103h922v-103h-922z" />
<glyph unicode="&#x2014;" horiz-adv-x="1331" d="M0 819v103h1126v-103h-1126z" />
<glyph unicode="&#x2018;" horiz-adv-x="409" d="M0 1638v410h102v-307h103v-103h-205z" />
<glyph unicode="&#x2019;" horiz-adv-x="409" d="M0 1638v103h205v-410h-103v307h-102z" />
<glyph unicode="&#x201a;" horiz-adv-x="409" d="M0 0v102h205v-409h-103v307h-102z" />
<glyph unicode="&#x201c;" horiz-adv-x="716" d="M0 1638v410h102v-307h103v-103h-205zM307 1638v410h103v-307h102v-103h-205z" />
<glyph unicode="&#x201d;" horiz-adv-x="716" d="M0 1638v103h205v-410h-103v307h-102zM307 1638v103h205v-410h-102v307h-103z" />
<glyph unicode="&#x201e;" horiz-adv-x="716" d="M0 0v102h205v-409h-103v307h-102zM307 0v102h205v-409h-102v307h-103z" />
<glyph unicode="&#x2022;" horiz-adv-x="512" d="M0 717v307h307v-307h-307z" />
<glyph unicode="&#x2026;" horiz-adv-x="716" d="M0 0v205h102v-205h-102zM205 0v205h102v-205h-102zM410 0v205h102v-205h-102z" />
<glyph unicode="&#x202f;" horiz-adv-x="450" />
<glyph unicode="&#x2039;" horiz-adv-x="614" d="M0 614v308h102v102h103v102h102v103h103v-103h-103v-102h-102v-102h-103v-308h103v-102h102v-102h103v-103h-103v103h-102v102h-103v102h-102z" />
<glyph unicode="&#x203a;" horiz-adv-x="614" d="M0 307v103h102v102h103v102h102v308h-102v102h-103v102h-102v103h102v-103h103v-102h102v-102h103v-308h-103v-102h-102v-102h-103v-103h-102z" />
<glyph unicode="&#x205f;" horiz-adv-x="563" />
<glyph unicode="&#x20ac;" horiz-adv-x="1331" d="M0 614v103h205v307h-205v102h205v512h102v103h819v-103h-819v-512h512v-102h-512v-307h512v-103h-512v-512h819v-102h-819v102h-102v512h-205z" />
<glyph unicode="&#x2122;" horiz-adv-x="1228" d="M0 1536v102h614v-102h103v-102h102v102h103v102h102v-614h-102v410h-103v-103h-102v103h-103v-410h-102v512h-205v-512h-102v512h-205z" />
<glyph unicode="&#x25fc;" d="M0 0v1126h1126v-1126h-1126z" />
</font>
</defs>
</svg>
