<svg width="40" height="290" viewBox="0 0 40 290" xmlns="http://www.w3.org/2000/svg">
  <title>social.svg</title>
  <path d="M22.2 61h-4.61c-.612 0-1.267.073-1.967.22-.706.17-1.387.53-2.042 1.083-.95.946-1.43 2-1.43 3.16 0 .96.34 1.802 1.01 2.524.65.777 1.58 1.173 2.81 1.188.23 0 .48-.015.74-.046l-.14.4c-.06.14-.08.31-.08.52 0 .35.08.64.23.89.13.25.28.49.45.72-.53.01-1.21.08-2.02.2-.82.14-1.6.44-2.35.87-.66.4-1.12.88-1.37 1.41-.26.53-.39 1.02-.39 1.46 0 .9.4 1.67 1.21 2.31.798.69 2 1.04 3.618 1.06 1.93-.03 3.41-.51 4.43-1.42.99-.88 1.48-1.9 1.48-3.04-.01-.81-.19-1.46-.54-1.96-.36-.49-.79-.94-1.274-1.35l-.78-.66c-.11-.12-.23-.25-.35-.41-.14-.16-.21-.37-.21-.61 0-.26.07-.48.206-.67.12-.19.246-.35.38-.5.24-.22.47-.43.68-.64.19-.21.376-.44.55-.68.35-.51.532-1.19.546-2.03 0-.46-.05-.87-.15-1.21-.125-.35-.266-.65-.425-.9-.17-.27-.34-.5-.51-.68-.18-.18-.344-.31-.49-.41h1.42l1.4-.83zm-2.527 12.893c.382.446.573.97.573 1.57 0 .737-.28 1.34-.837 1.81-.58.476-1.41.722-2.49.738-1.21-.01-2.17-.29-2.87-.83-.74-.53-1.1-1.22-1.1-2.05 0-.42.08-.78.25-1.08.14-.28.32-.52.54-.71.22-.18.43-.32.65-.42.21-.09.37-.16.49-.2.5-.15.98-.26 1.46-.33.48-.04.78-.06.9-.04.19 0 .37.01.51.03.86.62 1.49 1.14 1.89 1.56zm-.748-6.956c-.056.316-.18.624-.376.924-.41.43-.92.65-1.52.67-.48 0-.91-.15-1.28-.45-.38-.3-.68-.66-.92-1.09-.49-.92-.73-1.81-.73-2.67-.02-.64.15-1.23.5-1.75.41-.5.93-.76 1.56-.77.47.02.89.16 1.25.43.35.29.64.66.86 1.11.46.95.7 1.89.7 2.82 0 .22-.02.48-.05.8zm8.795-.687H26.2v2.25h-2.28V70h2.28v2.25h1.52V70H30v-1.5h-2.28v-2.25zm-2.608 104.696c-.555-.598-1.293-.995-2.216-1.19v-.08c.642-.267 1.145-.686 1.51-1.255.364-.56.546-1.21.546-1.94 0-.63-.132-1.18-.396-1.66s-.664-.86-1.2-1.15c-.494-.27-1.023-.44-1.588-.52-.565-.08-1.396-.12-2.493-.12H14v14.95h5.977c1.037 0 1.89-.09 2.563-.28.672-.19 1.29-.5 1.85-.94.475-.37.853-.83 1.134-1.39.28-.56.42-1.21.42-1.96 0-1.01-.277-1.82-.832-2.42zm-7.38-5.205h.26c.668 0 1.17.01 1.51.02.337.01.63.07.877.18.26.12.45.3.57.55.12.26.18.5.18.75 0 .33-.06.62-.17.87-.12.25-.32.45-.62.59-.28.13-.55.2-.8.21-.26.02-.71.02-1.35.02h-.47v-3.16zm4.116 8.53c-.157.29-.406.5-.747.65-.38.17-.76.26-1.14.27-.37.02-1.05.02-2.02.02h-.2v-3.74h.7c.67 0 1.2.01 1.6.02.4.01.71.06.94.15.38.14.66.33.85.59.19.26.28.63.28 1.09 0 .37-.08.69-.23.97zm-.565 46.45h2.85l.425-3.17h-3.275v-2.03c0-.92.266-1.54 1.64-1.54h1.75v-2.84c-.302-.04-1.342-.12-2.55-.12-2.526 0-4.255 1.48-4.255 4.2v2.34h-2.856v3.18h2.856v8.15h3.415v-8.15zm-7.087 50.49c-.396.66-.173 1.51.497 1.9 1.138.67 2.26 1.14 3.364 1.41l-3.174 3.12c-.552.54-.552 1.42 0 1.96.55.54 1.446.54 1.996 0l3.17-3.12 3.18 3.12c.55.54 1.44.54 1.99 0s.55-1.42 0-1.96l-3.11-3.05c1.14-.26 2.24-.78 3.3-1.55.62-.45.75-1.32.29-1.93s-1.35-.74-1.97-.29c-1.11.81-2.25 1.21-3.43 1.23h-.12c-1.27 0-2.63-.45-4.09-1.3-.67-.39-1.54-.17-1.93.49zM20.12 260c1.46 0 2.785.582 3.744 1.524.958.94 1.55 2.24 1.55 3.68 0 1.435-.592 2.734-1.55 3.676-.96.94-2.283 1.523-3.745 1.523-1.47 0-2.79-.582-3.75-1.523-.96-.942-1.55-2.24-1.55-3.677 0-1.438.59-2.738 1.55-3.68.96-.94 2.28-1.523 3.74-1.523zm1.746 3.485c-.446-.438-1.065-.71-1.747-.71-.69 0-1.31.272-1.75.71-.45.44-.73 1.047-.73 1.718 0 .67.27 1.277.72 1.716.44.43 1.06.71 1.74.71.68 0 1.3-.28 1.74-.71.44-.44.72-1.05.72-1.72 0-.67-.28-1.28-.73-1.72zM19.408 114.86c1.49 0 2.89.656 3.92 1.68v.005c0-.492.33-.863.794-.863h.117c.72 0 .87.68.87.895v7.654c-.05.51.52.76.83.44 1.23-1.26 2.71-6.49-.77-9.52-3.25-2.82-7.6-2.36-9.92-.77-2.46 1.69-4.04 5.43-2.51 8.94 1.66 3.83 6.44 4.97 9.28 3.84 1.43-.57 2.1 1.36.6 1.99-2.26.96-8.53.86-11.46-4.19-1.98-3.41-1.88-9.41 3.37-12.52 4.01-2.37 9.31-1.72 12.51 1.6 3.34 3.47 3.14 9.97-.12 12.49-1.48 1.15-3.67.03-3.65-1.64l-.02-.54c-1.03 1.02-2.4 1.61-3.89 1.61-2.95 0-5.54-2.57-5.54-5.5 0-2.96 2.59-5.56 5.533-5.56zm3.704 5.35c-.11-2.142-1.71-3.43-3.642-3.43h-.073c-2.23 0-3.466 1.742-3.466 3.723 0 2.218 1.5 3.618 3.46 3.618 2.19 0 3.63-1.59 3.73-3.47v-.43zM24.447 10h-3.095c-3.04 0-5.62 2.234-5.62 6.57 0 2.6 1.25 4.52 3.475 5.465l-4.153 7.252c-.135.237 0 .42.217.42h1.93c.17 0 .28-.052.33-.183l3.78-7.122h1.36v7.122c0 .078.08.183.19.183h1.68c.17 0 .22-.078.22-.21V10.264c0-.184-.11-.263-.3-.263zm-1.79 10.72h-1.142c-1.792 0-3.53-1.26-3.53-4.414 0-3.285 1.63-4.624 3.285-4.624h1.386v9.04z" fill="#FFF" fill-rule="evenodd"/>
</svg>
