<svg width="48" height="48" version="1.1" viewBox="0 0 11.43 11.43" xmlns="http://www.w3.org/2000/svg">
 <g transform="translate(0 -284.3)">
  <path transform="matrix(.23812 0 0 .23812 0 284.3)" d="m23.998 0.074219a24 24 0 0 0-24 24 24 24 0 0 0 24 24 24 24 0 0 0 24-24 24 24 0 0 0-24-24zm0.69141 1.8633a22.03 21.998 90 0 1 21.285 22.723 22.03 21.998 90 0 1-22.688 21.314 22.03 21.998 90 0 1-21.285-22.721 22.03 21.998 90 0 1 22.687-21.316z" fill="#0070ba" fill-rule="evenodd"/>
 </g>
 <g>
  <text x="4.2499723" y="8.9237204" fill="#0070ba" font-family="Constantia" font-size="9.525px" font-style="italic" letter-spacing="0px" stroke-width=".23812" word-spacing="0px" style="font-feature-settings:normal;font-variant-caps:normal;font-variant-ligatures:normal;font-variant-numeric:normal;line-height:1.25" xml:space="preserve"><tspan x="4.2499723" y="8.9237204" fill="#0070ba" font-family="Constantia" font-size="9.525px" font-style="italic" stroke-width=".23812" style="font-feature-settings:normal;font-variant-caps:normal;font-variant-ligatures:normal;font-variant-numeric:normal">i</tspan></text>
 </g>
</svg>
