<svg width="48" height="48" version="1.1" viewBox="0 0 11.43 11.43" xmlns="http://www.w3.org/2000/svg">
 <g transform="translate(0 -284.3)">
  <path transform="matrix(.23812 0 0 .23812 0 284.3)" d="m23.998 0.074219a24 24 0 0 0-24 24 24 24 0 0 0 24 24 24 24 0 0 0 24-24 24 24 0 0 0-24-24zm0.69141 1.8633a22.03 21.998 90 0 1 21.285 22.723 22.03 21.998 90 0 1-22.688 21.314 22.03 21.998 90 0 1-21.285-22.721 22.03 21.998 90 0 1 22.687-21.316z" fill="#ff9500" fill-rule="evenodd"/>
 </g>
 <g fill="#ff9500" fill-rule="evenodd">
  <ellipse cx="5.7162" cy="8.0962" rx=".71558" ry=".71438"/>
  <path d="m5.0006 1.905h1.4288l-0.23813 4.7625h-0.9525z"/>
 </g>
</svg>
