<?xml version="1.0" encoding="UTF-8" standalone="no"?>
<svg width="16px" height="16px" viewBox="0 0 16 16" version="1.1" xmlns="http://www.w3.org/2000/svg" xmlns:xlink="http://www.w3.org/1999/xlink" xmlns:sketch="http://www.bohemiancoding.com/sketch/ns">
    <title>warning</title>
    <desc>Created with Sketch.</desc>
    <defs/>
    <g id="Page-1" stroke="none" stroke-width="1" fill="none" fill-rule="evenodd" sketch:type="MSPage">
        <g id="warning" sketch:type="MSArtboardGroup" fill="#FFCC00">
            <path d="M16,8.00016 C16,12.4188084 12.4184884,16.00064 8.00016,16.00064 C3.58151163,16.00064 0,12.4188084 0,8.00016 C0,3.58183164 3.58151163,0 8.00016,0 C12.4184884,0 16,3.58183164 16,8.00016 Z M7.99962977,10.5 C7.44835246,10.5 7,10.9490093 7,11.4998182 C7,12.0513543 7.44835246,12.5 7.99962977,12.5 C8.55164754,12.5 9,12.0513543 9,11.4998182 C9,10.9490093 8.55164754,10.5 7.99962977,10.5 Z M7,3 L7.25,9 L8.75,9 L9,3 L7,3 Z" id="Fill-1" sketch:type="MSShapeGroup"/>
        </g>
    </g>
</svg>