<?xml version="1.0" encoding="utf-8"?>
<!-- Generator: Adobe Illustrator 16.0.0, SVG Export Plug-In . SVG Version: 6.00 Build 0)  -->
<!DOCTYPE svg PUBLIC "-//W3C//DTD SVG 1.1//EN" "http://www.w3.org/Graphics/SVG/1.1/DTD/svg11.dtd">
<svg version="1.1" id="Layer_1" xmlns="http://www.w3.org/2000/svg" xmlns:xlink="http://www.w3.org/1999/xlink" x="0px" y="0px"
	 width="400px" height="300px" viewBox="0 0 400 300" enable-background="new 0 0 400 300" xml:space="preserve">
<g>
	<path fill="#FF5E63" d="M193,235c-0.594,0-3,3-3,3h-2c-0.552,0-1,0.448-1,1v4c0,0.553,0.448,1,1,1h2c0,0,2.437,3,3,3
		c0.969,0,1-0.447,1-1v-10C194,235.448,193.969,235,193,235z M192.005,243.281c-0.151-0.178-0.302-0.359-0.448-0.539l-0.6-0.739
		h-1.952v-2h1.959l0.601-0.749c0.144-0.179,0.291-0.357,0.44-0.535V243.281z"/>
	<path fill="#FF5E63" d="M201.493,240.983l1.216-1.216c0.408-0.408,0.408-1.07,0-1.479s-1.068-0.408-1.479,0l-1.215,1.216
		l-1.216-1.216c-0.408-0.408-1.069-0.408-1.478,0c-0.408,0.408-0.408,1.069,0,1.479l1.216,1.216l-1.217,1.217
		c-0.408,0.408-0.408,1.07,0,1.479c0.408,0.407,1.069,0.407,1.478,0l1.217-1.218l1.217,1.218c0.408,0.407,1.069,0.407,1.478,0
		c0.408-0.408,0.408-1.07,0-1.479L201.493,240.983z"/>
	<path fill="#FF5E63" d="M163,235c-0.594,0-3,3-3,3h-2c-0.552,0-1,0.448-1,1v4c0,0.553,0.448,1,1,1h2c0,0,2.437,3,3,3
		c0.969,0,1-0.447,1-1v-10C164,235.448,163.969,235,163,235z M162.005,243.281c-0.151-0.178-0.302-0.359-0.448-0.539l-0.6-0.739
		h-1.952v-2h1.959l0.601-0.749c0.144-0.179,0.291-0.357,0.44-0.535V243.281z"/>
	<path fill="#FF5E63" d="M166,242v2c1.657,0,3-1.343,3-3s-1.343-3-3-3v2c0.552,0,1,0.448,1,1C167,241.552,166.552,242,166,242z"/>
	<path fill="#FF5E63" d="M168,235.101v2.041c1.722,0.445,3,1.997,3,3.857c0,1.861-1.278,3.413-3,3.858v2.041
		c2.835-0.479,5-2.928,5-5.899C173,238.029,170.835,235.579,168,235.101z"/>
	<path fill="#FF5E63" d="M38,242v2c0,0.553,0.448,1,1,1s1-0.447,1-1v-2h4.142c0.446,1.723,1.997,3,3.858,3c2.209,0,4-1.791,4-4
		s-1.791-4-4-4c-1.861,0-3.413,1.278-3.858,3H37c-0.552,0-1,0.448-1,1c0,0.553,0.448,1,1,1H38z M48,239c1.104,0,2,0.896,2,2
		c0,1.104-0.896,2-2,2s-2-0.896-2-2C46,239.896,46.896,239,48,239z"/>
	<path fill="#FF5E63" d="M74,233c-3.313,0-6,2.688-6,6c0,3.314,6,10,6,10s6-6.686,6-10C80,235.687,77.313,233,74,233z
		 M74.021,245.908c-2.121-2.651-4-5.628-4-6.903c0-2.206,1.794-4,4-4s4,1.794,4,4C78.021,240.28,76.141,243.257,74.021,245.908z"/>
	<circle fill="#FF5E63" cx="74" cy="239" r="1"/>
	<path fill="#FF5E63" d="M104,249c0.552,0,1-0.447,1-1v-5.101c2.282-0.463,4-2.48,4-4.899c0-2.761-2.238-5-5-5c-2.761,0-5,2.239-5,5
		c0,2.419,1.718,4.437,4,4.899V248C103,248.552,103.448,249,104,249z M101,238c0-1.657,1.343-3,3-3s3,1.343,3,3s-1.343,3-3,3
		S101,239.657,101,238z"/>
	<path fill="#FF5E63" d="M141,241c0-3.866-3.134-7-7-7s-7,3.134-7,7s3.134,7,7,7S141,244.866,141,241z M134,246
		c-1.252,0-2.383-0.477-3.26-1.236l1.994-2.314c0,0-0.903-1.025-1.734-1.449c-0.48-0.245-1.497-0.169-1.988-0.115
		c0.025-1.092,0.411-2.088,1.027-2.899c0.102,0.491,0.421,0.872,1.396-0.621c0,0-0.144,1.344,0.36,1.182
		c0.505-0.162,0.682-1.274,0.721-1.182s0.414-0.557,0.721,0c0.304,0.552,0.208,0.856,0.709,0.788c0.08-0.014,0.102-0.013,0.011,0
		c-0.005,0.001-0.006-0.001-0.011,0c-0.375,0.063-2.123,0.468-0.349,1.577c0,0,0.147,0.55,0.404,2.271c0,0,1.093,3.092,2.478,1.669
		c0,0,1.016-0.235,0.721-2.151c0,0-0.34-0.865,0.36-0.788c0,0,0.825-0.608,1.231-1.084c0.123,0.434,0.209,0.882,0.209,1.354
		C139,243.762,136.762,246,134,246z"/>
	<path fill="#FF5E63" d="M315,233c-4.418,0-8,3.582-8,8s3.582,8,8,8s8-3.582,8-8S319.418,233,315,233z M315,247
		c-3.313,0-6-2.687-6-6c0-3.313,2.688-6,6-6s6,2.688,6,6C321,244.313,318.313,247,315,247z"/>
	<path fill="#FF5E63" d="M317.791,240.688l-4.264-2.587c-0.297-0.182-0.541-0.042-0.541,0.308v5.216
		c0,0.351,0.244,0.489,0.541,0.309l4.264-2.587C318.088,241.164,318.088,240.869,317.791,240.688z"/>
	<path fill="#FF5E63" d="M224.578,238.1l-3.411,2.573c-0.237,0.181-0.237,0.475,0,0.653l3.411,2.574
		c0.238,0.18,0.434,0.042,0.434-0.307v-5.188C225.012,238.058,224.816,237.92,224.578,238.1z"/>
	<path fill="#FF5E63" d="M225,233c-4.418,0-8,3.582-8,8s3.582,8,8,8s8-3.582,8-8S229.418,233,225,233z M225,247
		c-3.313,0-6-2.687-6-6c0-3.313,2.688-6,6-6c3.314,0,6,2.688,6,6C231,244.313,228.314,247,225,247z"/>
	<path fill="#FF5E63" d="M227,238c-0.552,0-1,0.448-1,1v4c0,0.553,0.448,1,1,1s1-0.447,1-1v-4C228,238.448,227.552,238,227,238z"/>
	<path fill="#FF5E63" d="M255,233c-4.418,0-8,3.582-8,8s3.582,8,8,8s8-3.582,8-8S259.418,233,255,233z M255,247
		c-3.313,0-6-2.687-6-6c0-3.313,2.688-6,6-6c3.314,0,6,2.688,6,6C261,244.313,258.314,247,255,247z"/>
	<path fill="#FF5E63" d="M257,238h-4c-0.552,0-1,0.448-1,1v4c0,0.553,0.448,1,1,1h4c0.552,0,1-0.447,1-1v-4
		C258,238.448,257.552,238,257,238z"/>
	<path fill="#FF5E63" d="M342,245c0.552,0,1-0.447,1-1v-4c0-0.552-0.448-1-1-1s-1,0.448-1,1v4C341,244.552,341.448,245,342,245z"/>
	<path fill="#FF5E63" d="M344,250c4.418,0,8-3.582,8-8s-3.582-8-8-8s-8,3.582-8,8S339.582,250,344,250z M344,236
		c3.314,0,6,2.688,6,6c0,3.313-2.686,6-6,6c-3.313,0-6-2.687-6-6C338,238.687,340.688,236,344,236z"/>
	<path fill="#FF5E63" d="M344.422,244.902l3.411-2.574c0.237-0.18,0.237-0.474,0-0.653l-3.411-2.573
		c-0.238-0.181-0.434-0.042-0.434,0.307v5.188C343.989,244.944,344.184,245.082,344.422,244.902z"/>
	<path fill="#FF5E63" d="M283,238c-0.552,0-1,0.448-1,1v4c0,0.553,0.448,1,1,1s1-0.447,1-1v-4C284,238.448,283.552,238,283,238z"/>
	<path fill="#FF5E63" d="M287,238c-0.552,0-1,0.448-1,1v4c0,0.553,0.448,1,1,1s1-0.447,1-1v-4C288,238.448,287.552,238,287,238z"/>
	<path fill="#FF5E63" d="M285,233c-4.418,0-8,3.582-8,8s3.582,8,8,8s8-3.582,8-8S289.418,233,285,233z M285,247
		c-3.313,0-6-2.687-6-6c0-3.313,2.688-6,6-6c3.314,0,6,2.688,6,6C291,244.313,288.314,247,285,247z"/>
	<path fill="#FF5E63" d="M292,214.101V214v-1.95V212v-7v-2h-11c-1.104,0-2,0.896-2,2v2v5v5c0,1.104,0.896,2,2,2h11v-0.05v-2.051
		c-0.58-0.208-1-0.748-1-1.399C291,214.849,291.42,214.309,292,214.101z M281,205h2v7h-2V205z M289.354,217H282.5
		c-0.829,0-1.5-0.671-1.5-1.5s0.671-1.5,1.5-1.5h6.854c-0.22,0.455-0.354,0.959-0.354,1.5S289.135,216.545,289.354,217z M290,212h-5
		v-7h5V212z"/>
	<path fill="#FF5E63" d="M113,204c0-0.552-0.448-1-1-1H98c-0.552,0-1,0.448-1,1l4,14c0,0.553,0.448,1,1,1h6c0.552,0,1-0.447,1-1
		L113,204z M107,217h-4l-1.98-7.921c0.201-0.047,0.421-0.079,0.689-0.079c0.957,0,1.388,0.332,1.985,0.792
		c0.698,0.538,1.567,1.208,3.206,1.208c0.677,0,1.217-0.118,1.673-0.29l0.698-2.792c-0.136,0.099-0.267,0.196-0.389,0.291
		c-0.596,0.46-1.027,0.792-1.983,0.792c-0.957,0-1.388-0.332-1.985-0.792c-0.698-0.538-1.567-1.208-3.205-1.208
		c-0.446,0-0.831,0.054-1.174,0.137L100,205h10L107,217z"/>
	<path fill="#FF5E63" d="M82.938,203.031H81V203H69v0.031h-2l7,9.635v3.438c-1.997,0.402-3,1.896-3,1.896c0,0.552,0.448,1,1,1h6
		c0.552,0,1-0.448,1-1c0,0-1.003-1.493-3-1.896v-3.523L82.938,203.031z M73.256,208l-2.57-3h8.565l-2.57,3H73.256z"/>
	<path fill="#FF5E63" d="M250,219h9c1.104,0,2-0.896,2-2v-12c0-1.104-0.896-2-2-2h-9c-1.104,0-2,0.896-2,2v2h-1
		c-1.104,0-2,0.896-2,2v8c0,1.104,0.896,2,2,2H250z M247,210c0-0.552,0.448-1,1-1v6c0,0.553,0.448,1,1,1s1-0.447,1-1v-9
		c0-0.552,0.448-1,1-1h7c0.552,0,1,0.448,1,1v10c0,0.553-0.448,1-1,1h-7h-3c-0.552,0-1-0.447-1-1V210z"/>
	<rect x="252" y="207" fill="#FF5E63" width="5" height="2"/>
	<rect x="252" y="210" fill="#FF5E63" width="5" height="2"/>
	<rect x="252" y="213" fill="#FF5E63" width="5" height="2"/>
	<path fill="#FF5E63" d="M217,203c0,0-0.352,6.298,1.45,9.9c2.165,4.331,6.55,6.1,6.55,6.1s4.389-1.777,6.557-6.111
		C233.354,209.291,233,203,233,203H217z M229.768,211.994c-1.289,2.577-3.586,4.116-4.771,4.775
		c-1.185-0.657-3.472-2.188-4.759-4.764c-0.932-1.86-1.211-4.882-1.262-7.006h12.045
		C230.975,207.121,230.695,210.136,229.768,211.994z"/>
	<path fill="#FF5E63" d="M50,209c-0.353,0-0.686,0.072-1,0.185V209v-2h-2h-0.044c-0.175-0.841-0.863-1.313-1.433-1.705
		c-0.606-0.416-0.923-0.655-0.923-1.165c0-0.492,0.304-0.735,0.877-1.13H43.36c-0.214,0.305-0.36,0.667-0.36,1.13
		c0,1.111,0.819,1.673,1.477,2.123c0.412,0.282,0.679,0.488,0.815,0.747h-3.486c-0.281-0.581-0.818-0.958-1.282-1.274
		c-0.606-0.416-0.923-0.656-0.923-1.164s0.316-0.749,0.923-1.164c0.177-0.121,0.365-0.251,0.547-0.397H38.74
		c-0.41,0.374-0.74,0.856-0.74,1.562c0,1.11,0.819,1.671,1.477,2.122c0.17,0.116,0.312,0.219,0.435,0.316H39h-2v2v6
		c0,2.209,1.791,4,4,4h4c2.209,0,4-1.791,4-4v-0.184c0.314,0.112,0.647,0.184,1,0.184c1.657,0,3-1.343,3-3S51.657,209,50,209z
		 M47,215c0,1.104-0.896,2-2,2h-4c-1.104,0-2-0.896-2-2v-6h8V215z M50,213c-0.552,0-1-0.447-1-1c0-0.552,0.448-1,1-1s1,0.448,1,1
		C51,212.552,50.552,213,50,213z"/>
	<path fill="#FF5E63" d="M170,209h-1v-2c0-2.209-1.791-4-4-4s-4,1.791-4,4v2h-1c-1.104,0-1.74,0.96-2,2l-1,6c0,1.104,0.896,2,2,2h12
		c1.104,0,2-0.896,2-2l-1-6C172,209.896,171.104,209,170,209z M163,207c0-1.104,0.896-2,2-2s2,0.896,2,2v2h-4V207z M159.001,217
		l0.987-6H161v1c0,0.553,0.448,1,1,1s1-0.447,1-1v-1h4v1c0,0.553,0.448,1,1,1s1-0.447,1-1v-1h1.012l0.979,6H159.001z"/>
	<path fill="#FF5E63" d="M203,209c0,0-0.416-6-3-6c-4.197,0-9.003,0-10,0c-2.584,0-3,6-3,6c0,1.657,1.343,3,3,3
		c1.045,0,1.963-0.535,2.5-1.345c0.537,0.81,1.455,1.345,2.5,1.345s1.963-0.535,2.5-1.345c0.537,0.81,1.455,1.345,2.5,1.345
		C201.657,212,203,210.657,203,209z M191.866,206.297l-1,3.278c-0.276,0.417-0.888,0.562-1.366,0.319
		c-0.479-0.241-0.642-0.774-0.366-1.192l1-3.278c0.276-0.417,0.888-0.561,1.366-0.318
		C191.979,205.346,192.142,205.88,191.866,206.297z M196,209c0,0.553-0.448,1-1,1s-1-0.447-1-1v-3c0-0.552,0.448-1,1-1s1,0.448,1,1
		V209z M200.5,209.895c-0.479,0.241-1.09,0.098-1.366-0.319l-1-3.278c-0.276-0.417-0.112-0.95,0.366-1.191
		c0.479-0.241,1.09-0.099,1.366,0.318l1,3.278C201.143,209.12,200.979,209.654,200.5,209.895z"/>
	<path fill="#FF5E63" d="M189,214v3c0,1.104,0.896,2,2,2h8c1.104,0,2-0.896,2-2v-3h-2v2c0,0.553-0.448,1-1,1h-6
		c-0.552,0-1-0.447-1-1v-2H189z"/>
	<path fill="#FF5E63" d="M315,203c-2.209,0-4,1.791-4,4v3h-1c-1.104,0-2,0.896-2,2v5c0,1.104,0.896,2,2,2h10c1.104,0,2-0.896,2-2v-5
		c0-1.104-0.896-2-2-2h-1v-3C319,204.791,317.209,203,315,203z M313,207c0-1.104,0.896-2,2-2s2,0.896,2,2v3h-4V207z M320,213v3
		c0,0.553-0.448,1-1,1h-8c-0.552,0-1-0.447-1-1v-3c0-0.552,0.448-1,1-1h8C319.552,212,320,212.448,320,213z"/>
	<circle fill="#FF5E63" cx="315" cy="214" r="1"/>
	<path fill="#FF5E63" d="M340,210c-1.104,0-2,0.896-2,2v5c0,1.104,0.896,2,2,2h10c1.104,0,2-0.896,2-2v-5c0-1.104-0.896-2-2-2h-1v-3
		c0-2.209-1.791-4-4-4s-4,1.791-4,4c0,0.553,0.448,1,1,1s1-0.447,1-1c0-1.104,0.896-2,2-2s2,0.896,2,2v3H340z M349,212
		c0.552,0,1,0.448,1,1v3c0,0.553-0.448,1-1,1h-8c-0.552,0-1-0.447-1-1v-3c0-0.552,0.448-1,1-1H349z"/>
	<circle fill="#FF5E63" cx="345" cy="214" r="1"/>
	<path fill="#FF5E63" d="M132,219c0.552,0,1-0.447,1-1v-7.101c2.282-0.463,4-2.48,4-4.899v-3h-2v3c0,0.553-0.448,1-1,1s-1-0.447-1-1
		v-3h-2v3c0,0.553-0.448,1-1,1s-1-0.447-1-1v-3h-2v3c0,2.419,1.718,4.437,4,4.899V218C131,218.552,131.448,219,132,219z"/>
	<path fill="#FF5E63" d="M142,203c-0.132,0-0.72,0-1,0c-1.104,0-2,0.896-2,2v7c0,1.104,0.896,2,2,2v4c0,0.553,0.448,1,1,1
		s1-0.447,1-1v-6v-8C143,203.448,142.552,203,142,203z"/>
	<path fill="#FF5E63" d="M139.5,173.123c-0.479-0.275-1.09-0.111-1.366,0.366l-3.273,5.669l-3.093-5.668
		c-0.262-0.479-0.841-0.643-1.294-0.367c-0.453,0.277-0.608,0.891-0.347,1.369l3.61,6.613l-1.771,3.067
		C131.661,184.069,131.34,184,131,184c-1.657,0-3,1.343-3,3s1.343,3,3,3s3-1.343,3-3c0-0.577-0.17-1.109-0.453-1.566l1.312-2.271
		l1.417,2.597C136.103,186.137,136,186.556,136,187c0,1.657,1.343,3,3,3s3-1.343,3-3s-1.343-3-3-3c-0.477,0-0.921,0.121-1.321,0.319
		l-1.695-3.106l3.883-6.725C140.142,174.01,139.979,173.398,139.5,173.123z M131,188c-0.552,0-1-0.447-1-1c0-0.552,0.448-1,1-1
		s1,0.448,1,1C132,187.552,131.552,188,131,188z M139,186c0.552,0,1,0.448,1,1c0,0.553-0.448,1-1,1s-1-0.447-1-1
		C138,186.448,138.448,186,139,186z"/>
	<path fill="#FF5E63" d="M319.713,174.274c-0.388-0.392-1.016-0.392-1.402,0c-0.389,0.392-0.389,1.025,0,1.417l1.342,1.32
		c-2.461-0.194-6.892,0.887-8.594,5.678c-0.186,0.521,0.086,1.093,0.606,1.277c0.11,0.039,0.224,0.059,0.335,0.059
		c0.411,0,0.797-0.256,0.941-0.665c1.514-4.259,5.582-4.385,6.604-4.339l-1.247,1.258c-0.387,0.392-0.387,1.026,0,1.417
		c0.389,0.392,1.016,0.392,1.403,0l3.008-3.037c0.187-0.188,0.291-0.442,0.291-0.708s-0.104-0.521-0.291-0.708L319.713,174.274z"/>
	<path fill="#FF5E63" d="M321,186c0,0.553-0.447,1-1,1h-10c-0.552,0-1-0.447-1-1v-9c0-0.552,0.448-1,1-1h4v-2h-5
		c-1.104,0-2,0.896-2,2v11c0,1.104,0.896,2,2,2h12c1.105,0,2-0.896,2-2v-4h-2V186z"/>
	<path fill="#FF5E63" d="M165,173c-4.418,0-8,3.582-8,8s3.582,8,8,8s8-3.582,8-8S169.418,173,165,173z M165,187
		c-3.313,0-6-2.686-6-6c0-3.313,2.687-6,6-6c3.314,0,6,2.688,6,6C171,184.314,168.314,187,165,187z"/>
	<path fill="#FF5E63" d="M168,180h-2v-2c0-0.552-0.448-1-1-1s-1,0.448-1,1v3c0,0.553,0.448,1,1,1h3c0.552,0,1-0.447,1-1
		C169,180.448,168.552,180,168,180z"/>
	<path fill="#FF5E63" d="M221.13,189H222h6h0.87c2.462-1.363,4.13-3.985,4.13-7c0-4.418-3.582-8-8-8s-8,3.582-8,8
		C217,185.014,218.668,187.636,221.13,189z M225,176c3.314,0,6,2.688,6,6c0,2.124-1.109,3.979-2.773,5.045
		C228.15,187.028,228.08,187,228,187h-6c-0.08,0-0.15,0.028-0.225,0.045C220.109,185.979,219,184.124,219,182
		C219,178.687,221.688,176,225,176z"/>
	<path fill="#FF5E63" d="M225,185c1.104,0,2-0.896,2-2c0-0.362-0.104-0.697-0.271-0.991l1.139-1.973
		c0.275-0.479,0.111-1.09-0.366-1.366c-0.478-0.275-1.09-0.111-1.366,0.366L225,181c-1.104,0-2,0.896-2,2
		C223,184.104,223.896,185,225,185z"/>
	<path fill="#FF5E63" d="M195,184h2c0.553,0,1-0.447,1-1c0-0.552-0.447-1-1-1h-1v-1c0-0.552-0.447-1-1-1c-0.552,0-1,0.448-1,1v2
		C194,183.552,194.448,184,195,184z"/>
	<path fill="#FF5E63" d="M189,183c0,3.314,2.687,6,6,6c3.314,0,6-2.686,6-6c0-1.082-0.293-2.09-0.795-2.963l1.513-1.465
		c0.372-0.36,0.372-0.943,0-1.303c-0.372-0.36-0.974-0.36-1.345,0l-1.355,1.313c-0.836-0.755-1.875-1.291-3.037-1.481
		c0.003-0.034,0.02-0.064,0.02-0.1v-1h1c0.553,0,1-0.447,1-1c0-0.552-0.447-1-1-1h-4c-0.552,0-1,0.448-1,1c0,0.553,0.448,1,1,1h1v1
		c0,0.035,0.017,0.065,0.02,0.1C191.175,177.569,189,180.022,189,183z M195,179c0.99,0,1.885,0.374,2.583,0.971
		c0.483,0.411,0.875,0.926,1.118,1.522c0.189,0.466,0.298,0.973,0.298,1.507c0,2.209-1.791,4-4,4s-4-1.791-4-4S192.791,179,195,179z
		"/>
	<path fill="#FF5E63" d="M79,180v3.185c-0.314-0.112-0.647-0.185-1-0.185c-1.066,0-1.997,0.562-2.529,1.399l-4.605-7.977
		c-0.276-0.478-0.888-0.642-1.366-0.365c-0.479,0.275-0.642,0.888-0.366,1.365l5.5,9.526c0.163,0.281,0.442,0.438,0.741,0.475
		C75.883,188.358,76.862,189,78,189c1.657,0,3-1.343,3-3v-8c0-0.127-0.029-0.247-0.072-0.357C80.973,177.435,81,177.221,81,177v-1
		c0-1.657-1.343-3-3-3s-3,1.343-3,3v1c0,1.305,0.837,2.403,2,2.816V176c0-0.552,0.448-1,1-1s1,0.448,1,1v3.816V180z M78,187
		c-0.552,0-1-0.447-1-1c0-0.552,0.448-1,1-1s1,0.448,1,1C79,186.552,78.552,187,78,187z"/>
	<path fill="#FF5E63" d="M98.727,188.712l2.879-2.879c0.018-0.018,0.024-0.042,0.04-0.06c1.878,1.416,4.137,1.641,5.358,0.42
		c0.821-0.822,0.974-2.114,0.564-3.443l1.676-1.677c1.264,0.475,2.453,0.426,3.157-0.278c1.193-1.191,0.548-3.771-1.439-5.758
		c-1.987-1.988-4.565-2.632-5.758-1.438c-0.705,0.704-0.753,1.894-0.278,3.156l-1.677,1.677c-1.329-0.409-2.622-0.258-3.443,0.563
		c-1.221,1.221-0.996,3.48,0.42,5.358c-0.019,0.016-0.042,0.021-0.06,0.04l-2.879,2.879c-0.397,0.396-0.397,1.042,0,1.438
		C97.684,189.108,98.33,189.11,98.727,188.712z M101.246,180.435c0.225-0.226,0.789-0.248,1.404-0.059l1.172,0.361l3.471-3.471
		l-0.461-1.229c-0.224-0.596-0.188-0.946-0.216-0.974c-0.002-0.002-0.003-0.002-0.005-0.002c0.279-0.133,1.598,0.1,2.913,1.414
		c1.315,1.313,1.547,2.633,1.481,2.847c-0.061,0.027-0.416,0.08-1.043-0.156l-1.228-0.461l-3.472,3.472l0.361,1.172
		c0.19,0.614,0.166,1.18-0.059,1.403c-0.43,0.431-1.94,0.22-3.239-1.08C101.026,182.375,100.816,180.864,101.246,180.435z"/>
	<path fill="#FF5E63" d="M287,180c-0.552,0-1,0.448-1,1v3c0,0.553,0.448,1,1,1s1-0.447,1-1v-3C288,180.448,287.552,180,287,180z"/>
	<path fill="#FF5E63" d="M292,176h-4v-2c0-0.552-0.448-1-1-1h-4c-0.552,0-1,0.448-1,1v2h-4c-0.552,0-1,0.448-1,1
		c0,0.553,0.448,1,1,1l1,9c0,1.104,0.896,2,2,2h8c1.104,0,2-0.896,2-2l1-9c0.552,0,1-0.447,1-1C293,176.448,292.552,176,292,176z
		 M285,175c0.552,0,1,0.448,1,1h-2C284,175.448,284.448,175,285,175z M289,186c0,0.553-0.448,1-1,1h-6c-0.552,0-1-0.447-1-1l-1-8h2
		h6h2L289,186z"/>
	<path fill="#FF5E63" d="M283,180c-0.552,0-1,0.448-1,1v3c0,0.553,0.448,1,1,1s1-0.447,1-1v-3C284,180.448,283.552,180,283,180z"/>
	<path fill="#FF5E63" d="M51.328,181.704l-4.197,4.177l-0.699,0.697c-1.931,1.922-5.063,1.922-6.994,0
		c-1.931-1.923-1.931-5.04,0-6.962l0.7-0.696l2.098-2.089c1.159-1.152,3.038-1.152,4.196,0c1.159,1.154,1.159,3.024,0,4.178
		l-2.098,2.089c-0.386,0.384-1.013,0.384-1.399,0c-0.386-0.385-0.386-1.009,0-1.394l1.399-1.392c0.386-0.386,0.386-1.008,0-1.394
		c-0.386-0.385-1.013-0.385-1.399,0l-1.398,1.394c-1.159,1.152-1.159,3.022,0,4.177c1.159,1.153,3.037,1.153,4.196,0l2.098-2.089
		c1.931-1.922,1.931-5.04,0-6.962c-1.932-1.922-5.063-1.922-6.994,0l-2.098,2.089l-0.699,0.696c-2.704,2.69-2.704,7.056,0,9.747
		s7.087,2.691,9.792,0l0.699-0.696l4.196-4.177c0.386-0.385,0.386-1.009,0-1.394C52.34,181.319,51.714,181.319,51.328,181.704z"/>
	<path fill="#FF5E63" d="M349,179c-0.034,0-0.066,0.009-0.1,0.01c-0.461-2.286-2.479-4.01-4.9-4.01c-2.6,0-4.712,1.992-4.953,4.529
		C337.831,180.215,337,181.504,337,183c0,2.209,1.791,4,4,4h8c2.209,0,4-1.791,4-4S351.209,179,349,179z M349,185h-3.445h-1.109H344
		h-3c-1.104,0-2-0.896-2-2c0-0.427,0.136-0.82,0.364-1.146c0.362-0.517,0.958-0.854,1.636-0.854c0.064,0,0.126,0.014,0.189,0.02
		c-0.002-0.006-0.004-0.014-0.006-0.02c-0.111-0.313-0.185-0.646-0.185-1c0-0.346,0.069-0.673,0.178-0.981
		c0.408-1.172,1.511-2.019,2.822-2.019c1.512,0,2.75,1.123,2.958,2.578c0.02,0.139,0.042,0.277,0.042,0.422
		c0,0.354-0.072,0.687-0.185,1H347h1.898H349c1.104,0,2,0.896,2,2C351,184.104,350.104,185,349,185z"/>
	<path fill="#FF5E63" d="M252,189h6c1.104,0,2-0.896,2-2v-8h1c0.552,0,1-0.447,1-1c0-0.552-0.448-1-1-1h-1h-2v-3
		c0-0.552-0.448-1-1-1h-4c-0.552,0-1,0.448-1,1v3h-2h-1c-0.552,0-1,0.448-1,1c0,0.553,0.448,1,1,1h1v8
		C250,188.104,250.896,189,252,189z M257,179c0.552,0,1,0.448,1,1v6c0,0.553-0.448,1-1,1s-1-0.447-1-1v-6
		C256,179.448,256.448,179,257,179z M254,176c0-0.552,0.448-1,1-1s1,0.448,1,1v1h-2V176z M252,180c0-0.552,0.448-1,1-1s1,0.448,1,1
		v6c0,0.553-0.448,1-1,1s-1-0.447-1-1V180z"/>
	<path fill="#FF5E63" d="M339,144c-1.104,0-2,0.896-2,2v11c0,1.104,0.896,2,2,2h7c1.104,0,2-0.896,2-2v-6v-1h-0.079L343,144.094V144
		H339z M344,151h2v5c0,0.553-0.448,1-1,1h-5c-0.553,0-1-0.447-1-1v-9c0-0.552,0.448-1,1-1h1.995l0.004,0.005V149
		C342,150.104,342.896,151,344,151z"/>
	<polygon fill="#FF5E63" points="350,155.433 351.5,159 353,155.433 353,149 350,149 	"/>
	<path fill="#FF5E63" d="M351.5,144c-0.829,0-1.5,0.671-1.5,1.5v1.5h3v-1.5C353,144.671,352.329,144,351.5,144z"/>
	<path fill="#FF5E63" d="M68,152.008V157c0,1.104,0.896,2,2,2h2h1c0.552,0,1-0.447,1-1c0-0.552,0-1,0-1v-2c0-0.552,0.448-1,1-1
		s1,0.448,1,1v2c0,0,0,0.448,0,1c0,0.553,0.448,1,1,1h1h2c1.105,0,2-0.896,2-2v-4.981c0.252-0.003,0.503-0.1,0.695-0.291
		c0.392-0.392,0.392-1.023,0-1.414l-7.037-7.024c-0.188-0.188-0.442-0.293-0.708-0.293c-0.266,0-0.521,0.105-0.708,0.293L71,146.553
		V145c0-0.552-0.448-1-1-1s-1,0.448-1,1l-0.007,3.448l-1.719,1.857c-0.392,0.391-0.392,1.022,0,1.414
		C67.475,151.919,67.738,152.013,68,152.008z M70,154v-2v-1.601l4.949-4.989L80,150.452V152v2v2c0,0.553-0.447,1-1,1h-1v-3
		c0-1.104-0.896-2-2-2h-2c-1.104,0-2,0.896-2,2v3h-1c-0.552,0-1-0.447-1-1V154z"/>
	<path fill="#FF5E63" d="M42,157.405V158v1h1.313l4.152-2.59l4.209,2.59H53v-1v-0.588V156v-7c0-1.104-0.896-2-2-2h-2v-2
		c0-1.104-0.896-2-2-2h-7c-1.104,0-2,0.896-2,2v7v2c0,0.553,0.448,1,1,1s1-0.447,1-1c0,0.228-0.046,0.44-0.115,0.645l2.115-1.32V156
		V157.405z M50,149c0.552,0,1,0.448,1,1v6v0.118l-2.827-1.829c-0.188-0.188-0.442-0.293-0.708-0.293
		c-0.267,0-0.521,0.105-0.709,0.293L44,156.095V156v-6c0-0.552,0.448-1,1-1H50z M40,152.095V152v-6c0-0.552,0.448-1,1-1h5
		c0.552,0,1,0.448,1,1v1h-3c-1.104,0-2,0.896-2,2v1.784L40,152.095z"/>
	<path fill="#FF5E63" d="M105.475,145.175c-1.767-1.597-4.486-1.56-6.188,0.144c-1.757,1.758-1.757,4.606,0,6.364l6.188,6.191
		l6.188-6.191c1.757-1.758,1.757-4.606,0-6.364C109.96,143.615,107.241,143.578,105.475,145.175z M110.274,150.266l-4.774,4.729
		l-4.781-4.734c-0.465-0.467-0.725-1.094-0.725-1.762s0.26-1.295,0.732-1.768c0.467-0.467,1.088-0.726,1.748-0.726
		c0.623,0,1.222,0.231,1.686,0.65l1.341,1.338l1.341-1.338c0.464-0.419,1.063-0.65,1.686-0.65c0.66,0,1.28,0.259,1.747,0.726
		c0.473,0.473,0.732,1.1,0.732,1.768S110.747,149.793,110.274,150.266z"/>
	<path fill="#FF5E63" d="M142,151h-1v-1c0-0.552-0.448-1-1-1s-1,0.448-1,1v1h-1c-0.552,0-1,0.448-1,1c0,0.553,0.448,1,1,1h1v1
		c0,0.553,0.448,1,1,1s1-0.447,1-1v-1h1c0.552,0,1-0.447,1-1C143,151.448,142.552,151,142,151z"/>
	<path fill="#FF5E63" d="M131.473,146.006c0.623,0,1.222,0.231,1.686,0.65l1.341,1.338l1.341-1.338
		c0.464-0.419,1.063-0.65,1.686-0.65c0.66,0,1.28,0.259,1.747,0.726c0.098,0.098,0.181,0.207,0.26,0.315
		c0.153-0.023,0.307-0.047,0.466-0.047c0.728,0,1.385,0.27,1.904,0.7c-0.157-0.872-0.567-1.708-1.241-2.382
		c-1.703-1.703-4.422-1.74-6.188-0.144c-1.767-1.597-4.486-1.56-6.188,0.144c-1.757,1.758-1.757,4.606,0,6.364l6.188,6.191
		l2.748-2.75c-0.034-0.084-0.053-0.176-0.08-0.264c-0.597-0.179-1.111-0.534-1.488-1.011l-1.155,1.144l-4.781-4.735
		c-0.465-0.466-0.725-1.093-0.725-1.761s0.26-1.295,0.732-1.768C130.193,146.264,130.813,146.006,131.473,146.006z"/>
	<path fill="#FF5E63" d="M172,151h-4c-0.553,0-1,0.448-1,1c0,0.553,0.447,1,1,1h4c0.552,0,1-0.447,1-1
		C173,151.448,172.553,151,172,151z"/>
	<path fill="#FF5E63" d="M171.933,149c0.146-1.313-0.264-2.675-1.27-3.682c-1.703-1.703-4.422-1.74-6.188-0.144
		c-1.767-1.597-4.486-1.56-6.188,0.144c-1.757,1.758-1.757,4.606,0,6.364l6.188,6.191l2.932-2.934
		c-0.71-0.144-1.319-0.543-1.751-1.09l-1.155,1.144l-4.781-4.735c-0.465-0.466-0.725-1.093-0.725-1.761s0.26-1.295,0.732-1.768
		c0.467-0.467,1.088-0.726,1.748-0.726c0.623,0,1.222,0.231,1.686,0.65l1.341,1.338l1.341-1.338c0.464-0.419,1.063-0.65,1.686-0.65
		c0.66,0,1.28,0.259,1.747,0.726c0.473,0.473,0.732,1.1,0.732,1.768c0,0.171-0.018,0.338-0.051,0.502H171.933L171.933,149z"/>
	<path fill="#FF5E63" d="M292,153c-0.552,0-1,0.448-1,1v1v1c0,0.553-0.448,1-1,1h-10c-0.552,0-1-0.447-1-1v-10c0-0.552,0.448-1,1-1
		h2c0.552,0,1-0.447,1-1c0-0.552-0.448-1-1-1h-2h-1c-1.104,0-2,0.896-2,2v12c0,1.104,0.896,2,2,2h12c1.104,0,2-0.896,2-2v-2v-1
		C293,153.448,292.552,153,292,153z"/>
	<path fill="#FF5E63" d="M285.221,145.179l-0.472,3.911l-1.073-1.909c-0.728,1.843-0.695,4.442-0.652,5.38
		c-1.248,1.768-2.133,2.369-2.133,2.369s0.771,0.196,1.953-0.086c0.658-0.158,1.996-1.131,2.973-1.892
		c1.084-0.117,2.259-0.423,3.072-1.138c0.111-0.099,0.277-0.353,0.473-0.697l-1.846-0.197l2.482-1.022
		c0.275-0.562,0.574-1.2,0.873-1.854l-1.678,0.263l2.373-1.814c0.795-1.797,1.444-3.354,1.444-3.354
		S288.868,142.175,285.221,145.179z"/>
	<path fill="#FF5E63" d="M319.646,143.562l-0.695,0.694l2.787,2.782l0.697-0.696c0.771-0.768,0.771-2.013,0-2.78
		C321.666,142.794,320.417,142.794,319.646,143.562z"/>
	<polygon fill="#FF5E63" points="314.07,149.124 312,154.013 316.859,151.905 320.344,148.43 317.557,145.647 	"/>
	<path fill="#FF5E63" d="M310,145h3c0.552,0,1-0.447,1-1c0-0.552-0.448-1-1-1h-4c-1.104,0-2,0.896-2,2v12c0,1.104,0.896,2,2,2h12
		c1.104,0,2-0.896,2-2v-5c0-0.552-0.448-1-1-1s-1,0.448-1,1v4c0,0.553-0.448,1-1,1h-10c-0.552,0-1-0.447-1-1v-10
		C309,145.448,309.448,145,310,145z"/>
	<path fill="#FF5E63" d="M224.01,146.475c-0.904,0.994-1.556,2.658-2.021,4.317c0.8-0.997,1.556-1.873,2.072-2.325
		c2.228-1.948,5.031-2.468,5.031-2.468s-2.781,2.174-4.955,4.689c-1.82,2.104-3.89,5.817-3.463,4.941
		c-0.751,1.541-1.986,2.681-2.492,3.107c-0.068,0.096-0.113,0.161-0.143,0.204c0.258,0.032,1.064,0.104,1.994-0.13
		c1.049-0.265,2.43-2.792,2.43-2.792s0.003-0.021,0.006-0.058c1.571-0.083,3.93-0.614,4.646-2.999l-2.51-0.006
		c0,0,9.986-1.699,9.389-9.147C233.925,142.947,228.264,141.8,224.01,146.475z"/>
	<path fill="#FF5E63" d="M218.003,158.884c-0.028,0.022-0.058,0.046-0.058,0.046s0.021,0.003,0.056,0.008L218.003,158.884z"/>
	<path fill="#FF5E63" d="M255.871,156.01l4.85-8.543c0.534-0.943,0.217-2.149-0.711-2.694l-2.52-1.479
		c-0.928-0.545-2.114-0.222-2.649,0.723l-4.848,8.544l0.34,6.429L255.871,156.01z M257.359,145.493l0.841,0.493
		c0.464,0.271,0.622,0.876,0.354,1.348l-0.484,0.854l-2.52-1.479l0.485-0.854C256.305,145.382,256.896,145.221,257.359,145.493z
		 M254.582,148.417l2.52,1.479l0.484-0.854l-2.909,5.126l-2.435,1.502l-0.084-2.981L254.582,148.417z"/>
	<path fill="#FF5E63" d="M188.844,158.844c1.101-0.265,2.13-1.823,2.13-1.823s0.005-0.021,0.008-0.03
		c1.853,0.021,4.573-0.229,6.233-1.675l-3.7-0.396l5.19-2.139c0.561-1.126,1.195-2.493,1.802-3.837l-2.314,0.362l3.261-2.492
		c0.892-2.03,1.562-3.623,1.562-3.623s-5.582-1.273-10.627,2.606l-0.638,5.292l-1.605-2.855c-1.395,2.755-1.223,7.313-1.16,8.382
		c-1.227,1.724-2.094,2.313-2.094,2.313S187.663,159.127,188.844,158.844z"/>
	<path fill="#FF5E63" d="M49,117.277c-0.295-0.172-0.634-0.277-1-0.277c-1.104,0-2,0.896-2,2c0,1.104,0.896,2,2,2
		c0.366,0,0.705-0.104,1-0.276c-0.595-0.348-1-0.984-1-1.724C48,118.261,48.405,117.624,49,117.277z"/>
	<path fill="#FF5E63" d="M53,115c0-1.104-0.896-2-2-2H39c-1.104,0-2,0.896-2,2v12c0,1.104,0.896,2,2,2h12c1.104,0,2-0.896,2-2V115z
		 M40,127c-0.552,0-1-0.447-1-1l3-3l4,4H40z M51,126c0,0.553-0.448,1-1,1h-1l-7-7l-3,3v-7c0-0.552,0.448-1,1-1h10
		c0.552,0,1,0.448,1,1V126z"/>
	<circle fill="#FF5E63" cx="76" cy="118" r="1"/>
	<path fill="#FF5E63" d="M69,113c-1.104,0-2,0.896-2,2v12c0,1.104,0.896,2,2,2h12c1.105,0,2-0.896,2-2v-12c0-1.104-0.895-2-2-2H69z
		 M70,127c-0.552,0-1-0.447-1-1v-2l2-2l5,5H70z M80,127h-1l-1.5-1.5L79,124l2,2C81,126.552,80.553,127,80,127z M81,123l-2-2l-3,3
		l-5-5l-2,2v-5c0-0.552,0.448-1,1-1h10c0.553,0,1,0.448,1,1V123z"/>
	<circle fill="#FF5E63" cx="109" cy="121" r="1"/>
	<path fill="#FF5E63" d="M99,125h2v2c0,1.104,0.896,2,2,2h8c1.105,0,2-0.896,2-2v-8c0-1.104-0.895-2-2-2h-2v-2c0-1.104-0.896-2-2-2
		h-8c-1.104,0-2,0.896-2,2v8C97,124.104,97.896,125,99,125z M104,127c-0.276,0-0.52-0.119-0.7-0.3l-0.007,0.007
		c-0.009-0.009-0.013-0.022-0.022-0.033c0.009,0.011,0.02,0.018,0.029,0.026l1.7-1.7l2,2H104z M110,119c0.553,0,1,0.448,1,1v6
		c0,0.553-0.447,1-1,1l-5-5l-2,2v-4c0-0.552,0.448-1,1-1H110z M99,116c0-0.552,0.448-1,1-1h6c0.552,0,1,0.448,1,1v1h-4
		c-1.104,0-2,0.896-2,2v4h-1c-0.552,0-1-0.447-1-1V116z"/>
	<path fill="#FF5E63" d="M169,113h-8c-1.104,0-1.687,0.989-2,2l-2,6v6c0,1.104,0.896,2,2,2h12c1.105,0,2-0.896,2-2v-6l-2-6
		C170.656,113.896,170.104,113,169,113z M158.976,121l1.993-5.917V115h8v0.083l1.994,5.917H166v1c0,0.553-0.448,1-1,1s-1-0.447-1-1
		v-1H158.976z M171,126c0,0.553-0.447,1-1,1h-10c-0.552,0-1-0.447-1-1v-3h3c0,1.104,0.896,2,2,2h2c1.104,0,2-0.896,2-2h3V126z"/>
	<path fill="#FF5E63" d="M138,120h-6c-0.552,0-1,0.448-1,1c0,0.553,0.448,1,1,1h6c0.552,0,1-0.447,1-1
		C139,120.448,138.553,120,138,120z"/>
	<path fill="#FF5E63" d="M133,119h4c0.552,0,1-0.447,1-1c0-0.552-0.448-1-1-1h-4c-0.552,0-1,0.448-1,1
		C132,118.552,132.448,119,133,119z"/>
	<path fill="#FF5E63" d="M139,113h-8c-1.104,0-1.719,0.958-2,2l-2,9v3c0,1.104,0.896,2,2,2h12c1.104,0,2-0.896,2-2v-2.998
		c0,0,0-0.001,0-0.002l-2-9C140.688,114.021,140.105,113,139,113z M137,123.969V125c0,0.553-0.448,1-1,1h-2c-0.552,0-1-0.447-1-1v-1
		v-0.03h-3.736l1.736-8.917v-0.083h8v0.083l1.735,8.917H137z"/>
	<path fill="#FF5E63" d="M189,114c-1.104,0-2,0.896-2,2v10c0,1.104,0.896,2,2,2h12c1.104,0,2-0.896,2-2v-10c0-1.104-0.896-2-2-2H189
		z M199.555,116l-4.59,4.59l-4.536-4.59H199.555z M201,125c0,0.553-0.448,1-1,1h-10c-0.552,0-1-0.447-1-1v-7.603l5.258,5.313
		c0.188,0.188,0.441,0.293,0.707,0.293c0.266,0,0.52-0.104,0.707-0.293l5.328-5.328V125z"/>
	<path fill="#FF5E63" d="M231,117h-8c-1.104,0-2,0.896-2,2v8c0,1.104,0.896,2,2,2h8c1.104,0,2-0.896,2-2v-8
		C233,117.896,232.104,117,231,117z M224,119h6c0.161,0,0.307,0.046,0.441,0.114l-3.478,3.476l-3.418-3.468
		C223.686,119.05,223.834,119,224,119z M231,126c0,0.553-0.448,1-1,1h-6c-0.552,0-1-0.447-1-1v-4.588l3.258,3.299
		c0.188,0.188,0.441,0.293,0.707,0.293s0.52-0.104,0.707-0.293l3.328-3.328V126z"/>
	<path fill="#FF5E63" d="M219,125v-3v-5v-0.588l0.075,0.075c0.184-0.689,0.722-1.229,1.411-1.412L220.413,115H221h4.555H229
		c0-1.104-0.896-2-2-2h-8c-1.104,0-2,0.896-2,2v8C217,124.104,217.896,125,219,125z"/>
	<path fill="#FF5E63" d="M321.869,123.469c0.076-0.143,0.131-0.296,0.131-0.469c0-0.552-0.448-1-1-1s-1,0.448-1,1h-0.05
		c-0.252,2.247-2.136,4-4.45,4c-2.484,0-4.5-2.015-4.5-4.5c0-2.484,2.016-4.5,4.5-4.5c0.329,0,0.646,0.047,0.955,0.114l-1.153,1.164
		c-0.388,0.392-0.388,1.025,0,1.417s1.017,0.392,1.403,0l3.008-3.037c0.186-0.188,0.291-0.442,0.291-0.708s-0.104-0.521-0.291-0.708
		l-3-2.967c-0.388-0.392-1.016-0.392-1.402,0c-0.389,0.392-0.389,1.025,0,1.417l1.463,1.438c-0.412-0.083-0.838-0.128-1.273-0.128
		c-3.59,0-6.5,2.91-6.5,6.5s2.91,6.5,6.5,6.5C318.755,129,321.396,126.591,321.869,123.469z"/>
	<path fill="#FF5E63" d="M349,128c0,0.553,0.448,1,1,1s1-0.447,1-1v-2v-11c0-1.104-0.896-2-2-2h-7c-1.104,0-2,0.896-2,2v11v2
		c0,0.553,0.448,1,1,1s1-0.447,1-1v0.924l3.465-3.514l3.535,3.528V128z M345.465,122.996c-0.267,0-0.521,0.105-0.709,0.293
		l-2.756,2.79V126v-10c0-0.552,0.447-1,1-1h5c0.552,0,1,0.448,1,1v10v0.11l-2.827-2.821
		C345.984,123.102,345.73,122.996,345.465,122.996z"/>
	<path fill="#FF5E63" d="M262,125c0-3.313-2.688-6-6-6h-2.998l0.001-0.723c0,0,0.119-1.372-0.364-1.896
		c-0.484-0.523-1.27-0.523-1.755,0l-2.51,2.713c-0.231,0.251-0.362,0.592-0.362,0.947c0,0.356,0.131,0.696,0.362,0.948l2.5,2.618
		c0.483,0.522,1.271,0.522,1.754,0c0.485-0.523,0.37-1.896,0.37-1.896L253,121h3c2.209,0,4,1.791,4,4v1c0,0.553,0.448,1,1,1
		s1-0.447,1-1V125z"/>
	<path fill="#FF5E63" d="M292,127c0.552,0,1-0.447,1-1v-1c0-3.313-2.686-5.999-5.998-6l0.001-0.723c0,0,0.12-1.372-0.364-1.896
		s-1.27-0.523-1.755,0l-2.51,2.713c-0.231,0.251-0.362,0.592-0.362,0.947c0,0.356,0.131,0.696,0.362,0.948l2.5,2.618
		c0.483,0.522,1.271,0.522,1.754,0c0.483-0.523,0.37-1.896,0.37-1.896L287,121l0,0c2.209,0,4,1.791,4,4v1
		C291,126.552,291.448,127,292,127z"/>
	<path fill="#FF5E63" d="M281.639,116.382c-0.484-0.523-1.27-0.523-1.755,0l-2.51,2.713c-0.231,0.251-0.363,0.592-0.363,0.947
		c0,0.356,0.132,0.696,0.363,0.948l2.5,2.618c0.483,0.522,1.271,0.522,1.754,0c0.158-0.171,0.249-0.435,0.304-0.708l-1.967-2.853
		l1.982-2.922C281.895,116.838,281.803,116.561,281.639,116.382z"/>
	<path fill="#FF5E63" d="M201.413,91.574C201.777,90.82,202,89.945,202,89c0-2.761-1.791-5-4-5c-0.612,0-1.186,0.188-1.705,0.496
		C195.415,83.567,194.264,83,193,83c-2.761,0-5,2.688-5,6c0,1.022,0.233,1.97,0.608,2.813C187.637,92.541,187,93.692,187,95
		c0,2.209,1.791,4,4,4h4c1.008,0,1.918-0.386,2.622-1.001c0,0,0,0-0.001,0.001h1.879c1.934,0,3.5-1.566,3.5-3.5
		C203,93.274,202.367,92.199,201.413,91.574z M198,86c1.104,0,2,1.344,2,3c0,0.772-0.2,1.469-0.519,2h-1.787
		c-0.004,0.015-0.011,0.026-0.015,0.04c0.2-0.636,0.321-1.317,0.321-2.04c0-1.029-0.217-2-0.598-2.847
		C197.592,86.063,197.79,86,198,86z M193,85c1.657,0,3,1.791,3,4s-1.343,4-3,4s-3-1.791-3-4S191.343,85,193,85z M195,97h-4
		c-1.104,0-2-0.896-2-2c0-0.608,0.279-1.148,0.708-1.516C190.59,94.417,191.733,95,193,95s2.41-0.583,3.292-1.516
		C196.722,93.851,197,94.391,197,95C197,96.104,196.104,97,195,97z M198.056,97.553c-0.011,0.014-0.022,0.026-0.034,0.041
		C198.034,97.58,198.044,97.566,198.056,97.553z M199.5,96h-0.642c0.083-0.32,0.142-0.651,0.142-1c0-0.731-0.205-1.413-0.552-2
		h1.052c0.829,0,1.5,0.671,1.5,1.5S200.329,96,199.5,96z"/>
	<path fill="#FF5E63" d="M159,95c0,2.209,1.791,4,4,4h4c2.209,0,4-1.791,4-4c0-1.308-0.637-2.459-1.608-3.188
		C169.767,90.969,170,90.022,170,89c0-3.313-2.238-6-5-6c-2.761,0-5,2.688-5,6c0,1.022,0.233,1.97,0.608,2.813
		C159.637,92.541,159,93.692,159,95z M165,85c1.657,0,3,1.791,3,4s-1.343,4-3,4s-3-1.791-3-4S163.343,85,165,85z M161.709,93.484
		C162.59,94.417,163.733,95,165,95s2.41-0.583,3.292-1.516C168.722,93.851,169,94.391,169,95c0,1.104-0.896,2-2,2h-4
		c-1.104,0-2-0.896-2-2C161,94.391,161.279,93.851,161.709,93.484z"/>
	<path fill="#FF5E63" d="M221,99h4c0.854,0,1.643-0.271,2.292-0.729c-0.062-0.129-0.101-0.271-0.144-0.409
		c-0.588-0.175-1.098-0.521-1.474-0.987C225.464,96.951,225.238,97,225,97h-4c-1.105,0-2-0.896-2-2c0-0.608,0.279-1.148,0.709-1.516
		C220.59,94.417,221.732,95,223,95c0.74,0,1.43-0.217,2.059-0.568c0.211-1.1,1.023-1.973,2.08-2.291
		c0.111-0.357,0.28-0.689,0.506-0.979C227.869,90.493,228,89.767,228,89c0-3.313-2.238-6-5-6s-5,2.688-5,6
		c0,1.022,0.232,1.97,0.607,2.813C217.637,92.542,217,93.692,217,95C217,97.209,218.791,99,221,99z M223,85c1.657,0,3,1.791,3,4
		s-1.343,4-3,4s-3-1.791-3-4S221.343,85,223,85z"/>
	<path fill="#FF5E63" d="M232,94h-1v-1c0-0.552-0.448-1-1-1s-1,0.448-1,1v1h-1c-0.552,0-1,0.448-1,1c0,0.553,0.448,1,1,1h1v1
		c0,0.553,0.448,1,1,1s1-0.447,1-1v-1h1c0.552,0,1-0.447,1-1C233,94.448,232.552,94,232,94z"/>
	<path fill="#FF5E63" d="M247,95c0,2.209,1.791,4,4,4h4c1.027,0,1.954-0.397,2.662-1.034c-0.803-0.091-1.504-0.493-1.987-1.091
		C255.463,96.951,255.238,97,255,97h-4c-1.105,0-2-0.896-2-2c0-0.608,0.279-1.148,0.709-1.516C250.59,94.417,251.732,95,253,95
		c0.74,0,1.43-0.217,2.059-0.568c0.242-1.266,1.281-2.234,2.573-2.395c-0.083-0.073-0.151-0.16-0.239-0.226
		C257.768,90.969,258,90.022,258,89c0-3.313-2.238-6-5-6s-5,2.688-5,6c0,1.022,0.232,1.97,0.607,2.813
		C247.637,92.542,247,93.692,247,95z M253,85c1.657,0,3,1.791,3,4s-1.343,4-3,4s-3-1.791-3-4S251.343,85,253,85z"/>
	<path fill="#FF5E63" d="M262,94h-4c-0.552,0-1,0.448-1,1c0,0.553,0.448,1,1,1h4c0.552,0,1-0.447,1-1C263,94.448,262.552,94,262,94z
		"/>
	<polygon fill="#FF5E63" points="291.229,94.996 292.003,92.407 287.868,88.004 286.936,88.477 289.029,94.467 	"/>
	<polygon fill="#FF5E63" points="284,86 285.766,82.995 280,83 282,86 	"/>
	<path fill="#FF5E63" d="M287.105,94.683l-2.342-6.696h-3.529l-2.34,6.696L283,98.826L287.105,94.683z M282.969,88.987l2.137,4.696
		L283,95.826l-2.105-2.143L282.969,88.987z"/>
	<path fill="#FF5E63" d="M99,95h1.333L101,99l6-4h4c1.104,0,2-0.896,2-2v-8c0-1.104-0.896-2-2-2H99c-1.104,0-2,0.896-2,2v8
		C97,94.104,97.896,95,99,95z M99,85.011h12v8h-4.605l-3.931,2.619l-0.437-2.619H99V85.011z"/>
	<path fill="#FF5E63" d="M129,96h0.333L130,99l4.667-3H135c0.066,0,0.128-0.013,0.193-0.02l-0.439-1.975h-0.828l-2.38,2.019
		l-0.519-2.019H129v-4h3c0-0.001,0-0.001,0-0.002V88h-3c-1.104,0-2,0.896-2,2v4C127,95.104,127.896,96,129,96z"/>
	<path fill="#FF5E63" d="M135,83c-1.104,0-2,0.896-2,2v4c0,1.104,0.896,2,2,2h0.333L136,94l4.667-3H141c1.104,0,2-0.896,2-2v-4
		c0-1.104-0.896-2-2-2H135z M141,89.007h-1.074l-2.38,2.019l-0.519-2.019H135v-4h6V89.007z"/>
	<circle fill="#FF5E63" cx="319" cy="84" r="1"/>
	<path fill="#FF5E63" d="M313,95c1.657,0,3-1.343,3-3c0-1.656-1.343-3-3-3s-3,1.344-3,3C310,93.657,311.343,95,313,95z M313,91
		c0.552,0,1,0.448,1,1c0,0.553-0.448,1-1,1s-1-0.447-1-1C312,91.448,312.448,91,313,91z"/>
	<path fill="#FF5E63" d="M319,98c1.104,0,2-0.896,2-2v-8c0-1.104-0.896-2-2-2h-1.667L317,85c-0.406-1.011-0.895-2-2-2h-4
		c-1.104,0-1.625,0.958-2,2l-0.333,1H307c-1.104,0-2,0.896-2,2v8c0,1.104,0.896,2,2,2H319z M307,89c0-0.552,0.448-1,1-1h2.107
		l0.668-2l0.123-0.367c0.123-0.342,0.221-0.53,0.283-0.633h3.615c0.069,0.111,0.174,0.316,0.327,0.691L315.227,86l0.666,2H318
		c0.552,0,1,0.448,1,1v6c0,0.553-0.448,1-1,1h-10c-0.552,0-1-0.447-1-1V89z"/>
	<path fill="#FF5E63" d="M345,95c1.657,0,3-1.343,3-3c0-1.656-1.343-3-3-3s-3,1.344-3,3C342,93.657,343.343,95,345,95z M345,91
		c0.553,0,1,0.448,1,1c0,0.553-0.447,1-1,1c-0.552,0-1-0.447-1-1C344,91.448,344.448,91,345,91z"/>
	<circle fill="#FF5E63" cx="338" cy="85" r="1"/>
	<path fill="#FF5E63" d="M349,98c1.104,0,2-0.896,2-2v-8c0-1.104-0.896-2-2-2h-1v-1c0-1.104-0.896-2-2-2h-2c-1.104,0-2,0.896-2,2v1
		h-4h-1c-1.104,0-2,0.896-2,2v8c0,1.104,0.896,2,2,2H349z M345,85c0.553,0,1,0.448,1,1h-2C344,85.448,344.448,85,345,85z M337,89
		c0-0.552,0.448-1,1-1h10c0.552,0,1,0.448,1,1v6c0,0.553-0.448,1-1,1h-10c-0.552,0-1-0.447-1-1V89z"/>
	<path fill="#FF5E63" d="M45.5,83c-4.142,0-7.5,3.344-7.5,7.467c0,2.125,0.902,4.032,2.333,5.393L39.071,99l7.067-1.131
		C49.977,97.542,53,94.373,53,90.467C53,86.344,49.642,83,45.5,83z M45.967,95.929l-0.161,0.021l-3.767,1.066l0.751-1.532
		l-1.077-1.027C40.609,93.401,40,91.991,40,90.486c0-3.033,2.468-5.501,5.5-5.501c3.033,0,5.5,2.468,5.5,5.501
		C51,93.344,48.836,95.684,45.967,95.929z"/>
	<path fill="#FF5E63" d="M77,83c-2.268,0-4.218,1.273-5.237,3.129C69.043,86.7,67,89.111,67,92c0,1.186,0.354,2.282,0.947,3.212
		L67,99l4.968-1.104C72.305,97.955,72.646,98,73,98c2.245,0,4.199-1.234,5.228-3.061L83,96l-0.947-3.788
		C82.646,91.282,83,90.185,83,89C83,85.687,80.313,83,77,83z M73,96.01c-0.183,0-0.396-0.022-0.689-0.074l-0.39-0.067l-2.195,0.487
		l0.371-1.482l-0.462-0.725C69.219,93.497,69,92.757,69,92.01c0-2.206,1.794-4,4-4s4,1.794,4,4C77,94.216,75.206,96.01,73,96.01z
		 M80.366,91.148l-0.462,0.725l0.371,1.482l-1.372-0.306C78.963,92.709,79,92.359,79,92c0-2.889-2.042-5.3-4.762-5.871
		C74.957,85.44,75.927,85.01,77,85.01c2.206,0,4,1.794,4,4C81,89.757,80.781,90.497,80.366,91.148z"/>
	<path fill="#FF5E63" d="M42,61h1v1c0,0.553,0.448,1,1,1s1-0.447,1-1v-1h1c0.552,0,1-0.447,1-1c0-0.552-0.448-1-1-1h-1v-1
		c0-0.552-0.448-1-1-1s-1,0.448-1,1v1h-1c-0.552,0-1,0.448-1,1C41,60.552,41.448,61,42,61z"/>
	<path fill="#FF5E63" d="M48.154,65.568l3.15,3.15c0.39,0.39,1.023,0.39,1.414,0c0.391-0.392,0.391-1.024,0-1.415l-3.15-3.149
		c2.05-2.742,1.855-6.63-0.636-9.121c-2.733-2.734-7.166-2.734-9.899,0c-2.734,2.733-2.734,7.166,0,9.899
		C41.524,67.423,45.413,67.618,48.154,65.568z M40.447,56.447c1.953-1.953,5.119-1.953,7.071,0s1.952,5.119,0,7.071
		c-1.953,1.953-5.119,1.953-7.071,0C38.494,61.565,38.494,58.399,40.447,56.447z"/>
	<path fill="#FF5E63" d="M72,61h4c0.552,0,1-0.447,1-1c0-0.552-0.448-1-1-1h-4c-0.552,0-1,0.448-1,1C71,60.552,71.448,61,72,61z"/>
	<path fill="#FF5E63" d="M78.154,65.568l3.15,3.15c0.39,0.39,1.023,0.39,1.414,0c0.391-0.392,0.391-1.024,0-1.415l-3.15-3.149
		c2.05-2.742,1.855-6.63-0.636-9.121c-2.733-2.734-7.166-2.734-9.899,0c-2.734,2.733-2.734,7.166,0,9.899
		C71.524,67.423,75.412,67.618,78.154,65.568z M70.447,56.447c1.953-1.953,5.119-1.953,7.071,0s1.953,5.119,0,7.071
		c-1.953,1.953-5.119,1.953-7.071,0C68.494,61.565,68.494,58.399,70.447,56.447z"/>
	<circle fill="#FF5E63" cx="135" cy="61" r="1"/>
	<path fill="#FF5E63" d="M130.113,64.473l-1.477,1.477l1.414,1.414l1.477-1.477c0.722,0.515,1.562,0.869,2.473,1.022V69h2v-2.09
		c0.911-0.153,1.751-0.509,2.473-1.022l1.477,1.477l1.414-1.414l-1.477-1.477c0.514-0.723,0.87-1.563,1.023-2.474H143v-2h-2.09
		c-0.153-0.911-0.509-1.75-1.023-2.473l1.477-1.478l-1.414-1.413l-1.477,1.477c-0.722-0.515-1.562-0.87-2.473-1.023V53h-2v2.09
		c-0.911,0.153-1.75,0.51-2.473,1.023l-1.477-1.477l-1.414,1.413l1.477,1.478c-0.514,0.722-0.87,1.562-1.023,2.473H127v2h2.09
		C129.243,62.911,129.599,63.75,130.113,64.473z M135,57c2.209,0,4,1.791,4,4s-1.791,4-4,4s-4-1.791-4-4S132.791,57,135,57z"/>
	<path fill="#FF5E63" d="M99.381,63.089l-1.81,1.044l1,1.732l1.805-1.042c0.241,0.291,0.508,0.558,0.799,0.799l-1.042,1.806l1.732,1
		l1.044-1.811c0.349,0.13,0.713,0.229,1.089,0.292V69h2v-2.09c0.376-0.063,0.74-0.162,1.089-0.292l1.044,1.811l1.732-1l-1.042-1.806
		c0.291-0.241,0.558-0.508,0.799-0.799l1.805,1.042l1-1.732l-1.81-1.044c0.13-0.349,0.228-0.713,0.292-1.089H113v-2h-2.09
		c-0.063-0.376-0.162-0.739-0.292-1.089l1.81-1.044l-1-1.731l-1.805,1.042c-0.241-0.291-0.508-0.559-0.799-0.8l1.042-1.805l-1.732-1
		l-1.044,1.81c-0.349-0.13-0.713-0.228-1.089-0.292V53h-2v2.107c-0.239,0.046-0.476,0.1-0.707,0.169l-0.031-0.054l-0.237,0.137
		c-0.035,0.012-0.067,0.032-0.102,0.044l-1.058-1.832l-1.732,1l1.06,1.835c-0.288,0.237-0.551,0.5-0.79,0.785l-1.832-1.059l-1,1.732
		l1.818,1.05c-0.131,0.349-0.24,0.708-0.303,1.084H97v2h2.09C99.153,62.376,99.251,62.74,99.381,63.089z M108.859,60h-2.838
		l-1.693-2.932C104.547,57.03,104.77,57,105,57C106.862,57,108.413,58.278,108.859,60z M105.747,62h3.112
		c-0.446,1.723-1.997,3-3.859,3c-0.317,0-0.622-0.046-0.918-0.116L105.747,62z M104,60.975l-1.706,2.955
		C101.503,63.199,101,62.162,101,61c0-1.257,0.592-2.366,1.5-3.099L104,60.5V60.975z"/>
	<path fill="#FF5E63" d="M173,66c0-0.552-0.448-1-1-1h-1.142c0.083,0.321,0.142,0.653,0.142,1c0,0.349-0.058,0.68-0.142,1H172
		C172.552,67,173,66.552,173,66z"/>
	<path fill="#FF5E63" d="M158,67h5.142c-0.083-0.32-0.142-0.651-0.142-1c0-0.347,0.058-0.679,0.142-1H158c-0.552,0-1,0.448-1,1
		C157,66.552,157.448,67,158,67z"/>
	<path fill="#FF5E63" d="M158,57h1.142c-0.083-0.32-0.142-0.651-0.142-1c0-0.347,0.058-0.679,0.142-1H158c-0.552,0-1,0.448-1,1
		C157,56.552,157.448,57,158,57z"/>
	<path fill="#FF5E63" d="M166,56c0-1.657-1.343-3-3-3s-3,1.343-3,3s1.343,3,3,3S166,57.657,166,56z M163,57c-0.552,0-1-0.447-1-1
		c0-0.552,0.448-1,1-1s1,0.448,1,1C164,56.552,163.552,57,163,57z"/>
	<path fill="#FF5E63" d="M172,55h-5.142c0.083,0.321,0.142,0.653,0.142,1c0,0.349-0.058,0.68-0.142,1H172c0.552,0,1-0.447,1-1
		C173,55.448,172.552,55,172,55z"/>
	<path fill="#FF5E63" d="M167,69c1.657,0,3-1.343,3-3c0-1.656-1.343-3-3-3s-3,1.344-3,3C164,67.657,165.343,69,167,69z M167,65
		c0.552,0,1,0.448,1,1c0,0.553-0.448,1-1,1s-1-0.447-1-1C166,65.448,166.448,65,167,65z"/>
	<path fill="#FF5E63" d="M189.269,65.286c0.391-0.391,1.023-0.391,1.414,0c0.391,0.392,0.391,1.023,0,1.414l-1.991,1.992
		c1.114,0.53,2.483,0.345,3.406-0.578c0.922-0.922,1.107-2.291,0.577-3.405l6.017-6.017c1.114,0.53,2.483,0.345,3.406-0.577
		c0.922-0.922,1.107-2.292,0.577-3.406l-2.112,2.113c-0.229,0.228-0.537,0.306-0.833,0.269c-0.027-0.212-0.105-0.419-0.269-0.583
		c-0.163-0.162-0.37-0.241-0.583-0.269c-0.038-0.296,0.041-0.604,0.269-0.832l2.113-2.113c-1.114-0.529-2.483-0.345-3.406,0.577
		c-0.922,0.923-1.107,2.292-0.577,3.406l-6.017,6.018c-1.114-0.529-2.483-0.345-3.406,0.577c-0.922,0.923-1.107,2.292-0.578,3.406
		L189.269,65.286z"/>
	<rect x="221" y="64" fill="#FF5E63" width="2" height="2"/>
	<path fill="#FF5E63" d="M219,69h12c1.104,0,2-0.896,2-2V55c0-1.104-0.896-2-2-2h-12c-1.104,0-2,0.896-2,2v12
		C217,68.104,217.896,69,219,69z M219,56c0-0.552,0.448-1,1-1h10c0.552,0,1,0.448,1,1v2h-12V56z M219,60h12v6c0,0.553-0.448,1-1,1
		h-10c-0.552,0-1-0.447-1-1V60z"/>
	<rect x="221" y="61" fill="#FF5E63" width="2" height="2"/>
	<rect x="224" y="64" fill="#FF5E63" width="2" height="2"/>
	<rect x="224" y="61" fill="#FF5E63" width="2" height="2"/>
	<rect x="227" y="61" fill="#FF5E63" width="2" height="5"/>
	<path fill="#FF5E63" d="M262,53c-0.552,0-1,0.448-1,1v2h-3.277c-0.347-0.595-0.984-1-1.723-1c-0.739,0-1.376,0.405-1.723,1h-1.555
		c-0.348-0.595-0.984-1-1.724-1s-1.376,0.405-1.724,1H249v-2c0-0.552-0.448-1-1-1s-1,0.448-1,1v5v5v3c0,1.104,0.896,2,2,2h12
		c1.104,0,2-0.896,2-2v-3v-5v-5C263,53.448,262.552,53,262,53z M261,66c0,0.553-0.448,1-1,1h-10c-0.552,0-1-0.447-1-1v-2h3.277
		c0.347,0.596,0.983,1,1.723,1s1.376-0.404,1.723-1h1.555c0.348,0.596,0.984,1,1.724,1s1.376-0.404,1.724-1H261V66z M261,59v3
		h-0.277c-0.347-0.595-0.984-1-1.723-1s-1.376,0.405-1.723,1h-1.555c-0.348-0.595-0.984-1-1.724-1s-1.376,0.405-1.724,1H249v-3v-1
		h0.277c0.347,0.596,0.983,1,1.723,1s1.376-0.404,1.723-1h1.555c0.348,0.596,0.984,1,1.724,1s1.376-0.404,1.724-1H261V59z"/>
	<path fill="#FF5E63" d="M285,69c4.418,0,8-3.582,8-8s-3.582-8-8-8s-8,3.582-8,8S280.582,69,285,69z M290.919,61.937
		C290.969,61.632,291,61.32,291,61c0-0.231-0.018-0.459-0.042-0.685C290.984,60.541,291,60.768,291,61
		C291,61.32,290.968,61.631,290.919,61.937z M290.672,62.943c0.1-0.292,0.176-0.594,0.23-0.903
		C290.85,62.35,290.771,62.651,290.672,62.943z M285,55c3.081,0,5.616,2.323,5.958,5.313C290.313,59.64,289.475,59,288.087,59
		c-1.754,0-2.64,1.023-3.351,1.847C284.08,61.604,283.701,62,282.898,62s-1.183-0.396-1.84-1.153
		c-0.465-0.538-1.009-1.156-1.816-1.523C279.969,56.826,282.27,55,285,55z M279.059,60.208C279.023,60.468,279,60.731,279,61
		c0,0.201,0.011,0.4,0.029,0.597c0.162,0.157,0.328,0.338,0.518,0.558c0.711,0.822,1.598,1.846,3.352,1.846s2.64-1.022,3.351-1.846
		c0.656-0.758,1.035-1.154,1.837-1.154c0.803,0,1.184,0.396,1.84,1.154c0.223,0.257,0.467,0.532,0.745,0.791
		C289.861,65.303,287.631,67,285,67c-3.313,0-6-2.687-6-6C279,60.731,279.023,60.468,279.059,60.208z M279.242,59.325
		c-0.07,0.24-0.121,0.488-0.162,0.739C279.12,59.813,279.172,59.565,279.242,59.325z"/>
	<path fill="#FF5E63" d="M352.012,59.989h-2.916l-2.453-4.206c-0.199-0.341-0.58-0.531-0.972-0.491
		c-0.392,0.043-0.723,0.313-0.845,0.688l-2.128,6.584l-1.136-2.073c-0.18-0.3-0.504-0.484-0.855-0.484h-2.721c-0.553,0-1,0.448-1,1
		c0,0.553,0.447,1,1,1h2.154l1.977,3.472c0.182,0.302,0.508,0.483,0.855,0.483c0.039,0,0.077-0.002,0.115-0.006
		c0.389-0.045,0.717-0.313,0.837-0.686l2.117-6.546l1.614,2.769c0.18,0.308,0.508,0.496,0.863,0.496h3.492c0.553,0,1-0.447,1-1
		C353.012,60.437,352.564,59.989,352.012,59.989z"/>
	<path fill="#FF5E63" d="M307,61.011c0.004,2.953,1.613,5.526,3.999,6.908c0.001,0.001,0.001,0.002,0.002,0.002s0.002,0,0.002,0.001
		C312.182,68.604,313.543,69,315,69c1.448,0,2.802-0.39,3.975-1.063c0.008-0.004,0.018-0.004,0.025-0.009
		c0.01-0.007,0.016-0.018,0.025-0.023C321.4,66.518,323,63.949,323,61c0-2.938-1.588-5.498-3.948-6.889
		c-0.019-0.013-0.03-0.033-0.05-0.044c-0.016-0.009-0.034-0.009-0.051-0.018C317.785,53.385,316.438,53,315,53
		c-1.447,0-2.801,0.391-3.973,1.063c-0.01,0.005-0.02,0.004-0.027,0.009c-0.011,0.006-0.018,0.017-0.027,0.024
		C308.6,55.483,307,58.052,307,61c0,0.001,0,0.002,0,0.003s0,0.002,0,0.003C307,61.008,307,61.009,307,61.011z M309.091,62.006
		h3.095c0.125,0.346,0.309,0.657,0.541,0.932l-1.551,2.686C310.092,64.726,309.336,63.453,309.091,62.006z M312.91,66.618
		l1.543-2.673C314.631,63.978,314.813,64,315,64s0.368-0.021,0.546-0.055l1.543,2.674C316.438,66.861,315.736,67,315,67
		S313.563,66.861,312.91,66.618z M314,61c0-0.552,0.448-1,1-1s1,0.448,1,1c0,0.553-0.448,1-1,1S314,61.552,314,61z M318.824,65.623
		l-1.551-2.686c0.232-0.274,0.416-0.586,0.541-0.933h3.095C320.664,63.453,319.908,64.726,318.824,65.623z M320.911,60.006h-3.093
		c-0.125-0.35-0.311-0.667-0.547-0.943l1.552-2.687C319.91,57.276,320.668,58.554,320.911,60.006z M317.089,55.381l-1.544,2.675
		C315.368,58.022,315.188,58,315,58s-0.368,0.022-0.545,0.056l-1.543-2.675C313.563,55.139,314.264,55,315,55
		S316.438,55.139,317.089,55.381z M311.176,56.377l1.551,2.687c-0.235,0.276-0.42,0.593-0.545,0.942h-3.093
		C309.332,58.554,310.09,57.276,311.176,56.377z"/>
	<path fill="#FF5E63" d="M159,39h12c1.105,0,2-0.896,2-2v-8c0-1.104-0.895-2-2-2h-4.4l-0.6-1c-1.094-1.636-2.176-2-3-2h-4
		c-1.104,0-2,0.896-2,2v1v2v2v6C157,38.104,157.896,39,159,39z M159,30v-3c0-0.552,0.448-1,1-1h2c0.552,0,1.219-0.021,2,1h-0.344
		l1.333,2H170c0.553,0,1,0.448,1,1v6c0,0.553-0.447,1-1,1h-10c-0.552,0-1-0.447-1-1V30z"/>
	<path fill="#FF5E63" d="M348.154,35.568l3.148,3.15c0.391,0.39,1.024,0.39,1.414,0c0.391-0.392,0.391-1.024,0-1.415l-3.148-3.149
		c2.05-2.742,1.854-6.63-0.637-9.121c-2.733-2.734-7.166-2.734-9.898,0c-2.734,2.733-2.734,7.166,0,9.899
		C341.523,37.423,345.412,37.618,348.154,35.568z M340.447,26.447c1.953-1.953,5.117-1.953,7.07,0s1.953,5.119,0,7.071
		c-1.953,1.953-5.117,1.953-7.07,0S338.494,28.399,340.447,26.447z"/>
	<path fill="#FF5E63" d="M251,39h9c1.104,0,2-0.896,2-2v-6v-2h-0.086L256,23.086V23h-2h-3c-1.104,0-2,0.896-2,2v12
		C249,38.104,249.896,39,251,39z M256,25.915L259.086,29H257c-0.553,0-1-0.447-1-1V25.915z M251,26c0-0.552,0.448-1,1-1h2v4
		c0,1.104,0.896,2,2,2h4v5c0,0.553-0.448,1-1,1h-7c-0.553,0-1-0.447-1-1V26z"/>
	<path fill="#FF5E63" d="M278,32v3c0,1.104,0.896,2,2,2h7c1.104,0,2-0.896,2-2v-0.437c1.068,0.592,2.652,1.437,3,1.437
		c0.531,0,1-0.447,1-1v-8c0-0.552-0.438-1-1-1c-0.366,0-1.938,0.841-3,1.434V27c0-1.104-0.896-2-2-2h-7c-1.104,0-2,0.896-2,2v1
		c-0.552,0-1,0.448-1,1v2C277,31.552,277.448,32,278,32z M289,29.703l2-0.78v4.092l-2-0.781V29.703z M280,28c0-0.552,0.448-1,1-1h5
		c0.552,0,1,0.448,1,1v1v4v1c0,0.553-0.448,1-1,1h-5c-0.552,0-1-0.447-1-1V28z"/>
	<path fill="#FF5E63" d="M309,39h12c1.104,0,2-0.896,2-2V26c0-1.104-0.896-2-2-2h-12c-1.104,0-2,0.896-2,2v11
		C307,38.104,307.896,39,309,39z M319,26h2v2h-2V26z M319,29h2v2h-2V29z M319,32h2v2h-2V32z M319,35h2v2h-2V35z M313,27
		c0-0.552,0.448-1,1-1h2c0.552,0,1,0.448,1,1v9c0,0.553-0.448,1-1,1h-2c-0.552,0-1-0.447-1-1V27z M309,26h2v2h-2V26z M309,29h2v2h-2
		V29z M309,32h2v2h-2V32z M309,35h2v2h-2V35z"/>
	<path fill="#FF5E63" d="M42,26c0.552,0,1-0.447,1-1v-1c0-0.552-0.448-1-1-1s-1,0.448-1,1v1C41,25.552,41.448,26,42,26z"/>
	<path fill="#FF5E63" d="M39,39h12c1.104,0,2-0.896,2-2V27c0-1.104-0.896-2-2-2h-1c0,1.104-0.896,2-2,2s-2-0.896-2-2h-2
		c0,1.104-0.896,2-2,2s-2-0.896-2-2h-1c-1.104,0-2,0.896-2,2v10C37,38.104,37.896,39,39,39z M39,30c0-0.552,0.448-1,1-1h10
		c0.552,0,1,0.448,1,1v6c0,0.553-0.448,1-1,1H40c-0.552,0-1-0.447-1-1V30z"/>
	<path fill="#FF5E63" d="M48,26c0.552,0,1-0.447,1-1v-1c0-0.552-0.448-1-1-1s-1,0.448-1,1v1C47,25.552,47.448,26,48,26z"/>
	<path fill="#FF5E63" d="M69,39h12c1.104,0,2-0.896,2-2V25c0-1.104-0.896-2-2-2h-2v1c0,0.553-0.448,1-1,1s-1-0.447-1-1v-1h-4v1
		c0,0.553-0.447,1-1,1c-0.552,0-1-0.447-1-1v-1h-2c-1.104,0-2,0.896-2,2v12C67,38.104,67.896,39,69,39z M69,29c0-0.552,0.448-1,1-1
		h10c0.553,0,1,0.448,1,1v7c0,0.553-0.447,1-1,1H70c-0.552,0-1-0.447-1-1V29z"/>
	<rect x="74" y="30" fill="#FF5E63" width="2" height="2"/>
	<rect x="74" y="33" fill="#FF5E63" width="2" height="2"/>
	<rect x="77" y="33" fill="#FF5E63" width="2" height="2"/>
	<rect x="77" y="30" fill="#FF5E63" width="2" height="2"/>
	<rect x="71" y="30" fill="#FF5E63" width="2" height="2"/>
	<rect x="71" y="33" fill="#FF5E63" width="2" height="2"/>
	<path fill="#FF5E63" d="M99,39h12c1.104,0,2-0.896,2-2V27c0-1.104-0.896-2-2-2h-5c0-1.104-0.896-2-2-2h-5c-1.104,0-2,0.896-2,2v12
		C97,38.104,97.896,39,99,39z M99,26c0-0.552,0.448-1,1-1h3h1c0,1.104,0.896,2,2,2h4c0.552,0,1,0.448,1,1v1H99V26z M99,32
		c0-0.552,0.448-1,1-1h10c0.552,0,1,0.448,1,1v4c0,0.553-0.448,1-1,1h-10c-0.552,0-1-0.447-1-1V32z"/>
	<path fill="#FF5E63" d="M128,37c0,1.104,0.896,2,2,2h10c1.104,0,2-0.896,2-2l1-8c0-1.104-0.896-2-2-2h-4l-1-2
		c-0.469-1.072-0.896-2-2-2h-5c-1.104,0-2,0.896-2,2v2c0,0.366,0.105,0.705,0.277,1c-0.172,0.295-0.277,0.634-0.277,1L128,37z
		 M130,25h3c1.119,0,1.931,2,1,2h-4c-0.552,0-1-0.447-1-1C129,25.448,129.448,25,130,25z M130,29h5h5c0.552,0,1,0.448,1,1l-1,6
		c0,0.553-0.447,1-1,1h-8c-0.552,0-1-0.447-1-1l-1-6C129,29.448,129.448,29,130,29z"/>
	<path fill="#FF5E63" d="M191,39h9c1.104,0,2-0.896,2-2v-7v-1v-0.742L196.743,23H195h-4c-1.104,0-2,0.896-2,2v12
		C189,38.104,189.896,39,191,39z M191,26c0-0.552,0.448-1,1-1h3v3c0,1.104,0.896,2,2,2h3v6c0,0.553-0.447,1-1,1h-7
		c-0.553,0-1-0.447-1-1V26z"/>
	<path fill="#FF5E63" d="M219,39h7c1.104,0,2-0.896,2-2h3c1.104,0,2-0.896,2-2v-6v-0.742L227.743,23H227v4c0,1.104,0.895,2,2,2h2v5
		c0,0.553-0.448,1-1,1h-2v-4v-0.743L222.743,25H224h3v-2h-3c-1.104,0-2,0.896-2,2v4c0,1.104,0.895,2,2,2h2v5c0,0.553-0.448,1-1,1h-5
		c-0.552,0-1-0.447-1-1v-8c0-0.552,0.448-1,1-1h2v-2h-3c-1.104,0-2,0.896-2,2v10C217,38.104,217.896,39,219,39z"/>
	<path fill="#FF5E63" d="M322,273c-0.552,0-1,0.448-1,1v1v1c0,0.553-0.448,1-1,1h-10c-0.552,0-1-0.447-1-1v-1v-1
		c0-0.552-0.448-1-1-1s-1,0.448-1,1v1v2c0,1.104,0.896,2,2,2h12c1.104,0,2-0.896,2-2v-2v-1C323,273.448,322.552,273,322,273z"/>
	<path fill="#FF5E63" d="M315,275c0.552,0,1-0.447,1-1v-6.544l1.277,1.271c0.393,0.391,1.025,0.391,1.418,0
		c0.392-0.392,0.392-1.023,0-1.414l-2.896-2.882c-0.181-0.254-0.464-0.432-0.8-0.432c-0.005,0-0.01,0.003-0.016,0.003
		c-0.012,0-0.023-0.007-0.035-0.007c-0.266,0-0.521,0.105-0.708,0.293l-2.968,3.017c-0.391,0.391-0.391,1.022,0,1.414
		c0.393,0.391,1.025,0.391,1.418,0l1.309-1.34V274C314,274.552,314.448,275,315,275z"/>
	<path fill="#FF5E63" d="M352,273c-0.552,0-1,0.448-1,1v1v1c0,0.553-0.448,1-1,1h-10c-0.552,0-1-0.447-1-1v-1v-1
		c0-0.552-0.448-1-1-1s-1,0.448-1,1v1v2c0,1.104,0.896,2,2,2h12c1.104,0,2-0.896,2-2v-2v-1C353,273.448,352.552,273,352,273z"/>
	<path fill="#FF5E63" d="M345,264c-0.552,0-1,0.448-1,1v6.62l-1.309-1.338c-0.392-0.391-1.025-0.391-1.418,0
		c-0.391,0.391-0.391,1.023,0,1.414l2.968,3.016c0.188,0.188,0.442,0.293,0.708,0.293c0.012,0,0.023-0.007,0.035-0.007
		c0.006,0,0.01,0.003,0.016,0.003c0.336,0,0.619-0.177,0.8-0.431l2.896-2.882c0.392-0.392,0.392-1.023,0-1.414
		c-0.391-0.392-1.025-0.392-1.418,0l-1.277,1.27V265C346,264.448,345.552,264,345,264z"/>
	<path fill="#FF5E63" d="M139,272.858V278c0,0.553,0.448,1,1,1s1-0.447,1-1v-5.142c-0.321,0.083-0.652,0.142-1,0.142
		C139.653,273,139.321,272.942,139,272.858z"/>
	<path fill="#FF5E63" d="M131,269.142V264c0-0.552-0.448-1-1-1s-1,0.448-1,1v5.143c0.321-0.083,0.653-0.143,1-0.143
		C130.348,269,130.679,269.058,131,269.142z"/>
	<path fill="#FF5E63" d="M129,276.859V278c0,0.553,0.448,1,1,1s1-0.447,1-1v-1.141c-0.321,0.083-0.652,0.141-1,0.141
		C129.653,277,129.321,276.942,129,276.859z"/>
	<path fill="#FF5E63" d="M140,266c-1.657,0-3,1.343-3,3s1.343,3,3,3s3-1.343,3-3S141.657,266,140,266z M140,270
		c-0.552,0-1-0.447-1-1c0-0.552,0.448-1,1-1s1,0.448,1,1C141,269.552,140.552,270,140,270z"/>
	<path fill="#FF5E63" d="M139,264v1.143c0.321-0.083,0.653-0.143,1-0.143c0.348,0,0.679,0.059,1,0.143V264c0-0.552-0.448-1-1-1
		S139,263.448,139,264z"/>
	<path fill="#FF5E63" d="M130,270c-1.657,0-3,1.343-3,3s1.343,3,3,3s3-1.343,3-3S131.657,270,130,270z M130,274
		c-0.552,0-1-0.447-1-1c0-0.552,0.448-1,1-1s1,0.448,1,1C131,273.552,130.552,274,130,274z"/>
	<rect x="158" y="264" fill="#FF5E63" width="2" height="2"/>
	<rect x="158" y="268" fill="#FF5E63" width="2" height="2"/>
	<rect x="158" y="272" fill="#FF5E63" width="2" height="2"/>
	<rect x="158" y="276" fill="#FF5E63" width="2" height="2"/>
	<rect x="162" y="272" fill="#FF5E63" width="2" height="2"/>
	<rect x="162" y="276" fill="#FF5E63" width="2" height="2"/>
	<rect x="166" y="268" fill="#FF5E63" width="2" height="2"/>
	<rect x="166" y="272" fill="#FF5E63" width="2" height="2"/>
	<rect x="166" y="276" fill="#FF5E63" width="2" height="2"/>
	<rect x="170" y="276" fill="#FF5E63" width="2" height="2"/>
	<path fill="#FF5E63" d="M202,264h-6c-0.552,0-1,0.448-1,1c0,0.553,0.448,1,1,1h6c0.552,0,1-0.447,1-1
		C203,264.448,202.552,264,202,264z"/>
	<path fill="#FF5E63" d="M202,268h-6c-0.552,0-1,0.448-1,1c0,0.553,0.448,1,1,1h6c0.552,0,1-0.447,1-1
		C203,268.448,202.552,268,202,268z"/>
	<path fill="#FF5E63" d="M202,272h-6c-0.552,0-1,0.448-1,1c0,0.553,0.448,1,1,1h6c0.552,0,1-0.447,1-1
		C203,272.448,202.552,272,202,272z"/>
	<path fill="#FF5E63" d="M191,264h-2c-1.104,0-2,0.896-2,2v2c0,1.104,0.896,2,2,2h2c1.104,0,2-0.896,2-2v-2
		C193,264.896,192.104,264,191,264z M190,268c-0.552,0-1-0.447-1-1c0-0.552,0.448-1,1-1s1,0.448,1,1
		C191,267.552,190.552,268,190,268z"/>
	<path fill="#FF5E63" d="M191,272h-2c-1.104,0-2,0.896-2,2v2c0,1.104,0.896,2,2,2h2c1.104,0,2-0.896,2-2v-2
		C193,272.896,192.104,272,191,272z M190,276c-0.552,0-1-0.447-1-1c0-0.552,0.448-1,1-1s1,0.448,1,1
		C191,275.552,190.552,276,190,276z"/>
	<path fill="#FF5E63" d="M202,276h-6c-0.552,0-1,0.448-1,1c0,0.553,0.448,1,1,1h6c0.552,0,1-0.447,1-1
		C203,276.448,202.552,276,202,276z"/>
	<path fill="#FF5E63" d="M225.762,269.229l-4.236-2.146c-0.297-0.149-0.539-0.035-0.539,0.255v4.324
		c0,0.291,0.242,0.406,0.539,0.256l4.235-2.146C226.057,269.623,226.057,269.378,225.762,269.229z"/>
	<path fill="#FF5E63" d="M230,274v-9c0-1.104-0.895-2-2-2h-9c-1.104,0-2,0.896-2,2v9c0,1.104,0.896,2,2,2h9
		C229.105,276,230,275.104,230,274z M227,274h-7c-0.552,0-1-0.447-1-1v-7c0-0.552,0.448-1,1-1h7c0.553,0,1,0.448,1,1v7
		C228,273.552,227.553,274,227,274z"/>
	<path fill="#FF5E63" d="M231,266v3v6v1c0,0.553-0.447,1-1,1h-0.999c0,0,0,0-0.001,0h-9c0,1.104,0.896,2,2,2h9c1.105,0,2-0.896,2-2
		v-9C233,266.896,232.105,266,231,266z"/>
	<path fill="#FF5E63" d="M258,269v-3c0-1.657-1.343-3-3-3s-3,1.343-3,3v3c0,1.657,1.343,3,3,3S258,270.657,258,269z M254,269v-3
		c0-0.552,0.448-1,1-1s1,0.448,1,1v3c0,0.553-0.448,1-1,1S254,269.552,254,269z"/>
	<path fill="#FF5E63" d="M255,274c-2.419,0-4.436-1.718-4.898-4h-2.01c0.442,3.056,2.85,5.458,5.908,5.899V277h-2
		c-0.552,0-1,0.448-1,1c0,0.553,0.448,1,1,1h6c0.552,0,1-0.447,1-1c0-0.552-0.448-1-1-1h-2v-1.101
		c3.059-0.442,5.466-2.844,5.908-5.899H259.9C259.436,272.282,257.419,274,255,274z"/>
	<path fill="#FF5E63" d="M290.991,270.181c0.002-0.062,0.009-0.12,0.009-0.182c0-3.313-2.686-6-6-6c-3.313,0-6,2.688-6,6
		c0,0.062,0.007,0.12,0.009,0.182c-1.167,0.41-2.009,1.511-2.009,2.818v2c0,0.886,0.391,1.672,1,2.222
		c0.532,0.479,1.229,0.778,2,0.778c1.441,0,2.645-1.018,2.932-2.374c0.043-0.203,0.068-0.411,0.068-0.626v-1.555V273
		c0-1.297-0.828-2.392-1.98-2.811c-0.004-0.064-0.02-0.124-0.02-0.189c0-2.209,1.791-4,4-4s4,1.791,4,4
		c0,0.065-0.016,0.125-0.02,0.189c-1.152,0.419-1.98,1.514-1.98,2.811v0.445V275c0,0.215,0.025,0.424,0.068,0.626
		c0.289,1.355,1.49,2.374,2.932,2.374c0.771,0,1.468-0.3,2-0.778c0.609-0.55,1-1.336,1-2.222v-2
		C293,271.692,292.158,270.592,290.991,270.181z M281,274.463V275c0,0.553-0.448,1-1,1s-1-0.447-1-1v-2
		c0-0.333,0.173-0.612,0.424-0.795c0.165-0.12,0.357-0.205,0.576-0.205c0.552,0,1,0.448,1,1V274.463z M291,275c0,0.553-0.448,1-1,1
		s-1-0.447-1-1v-0.537V273c0-0.552,0.448-1,1-1c0.219,0,0.412,0.085,0.576,0.205c0.25,0.183,0.424,0.462,0.424,0.795V275z"/>
	<path fill="#FF5E63" d="M51,264H39c-1.104,0-2,0.897-2,2.004v6.021c0,1.106,0.896,2.004,2,2.004h1c0.552,0,1-0.448,1-1.002
		c0-0.553-0.448-1.002-1-1.002s-1-0.448-1-1.002v-4.017c0-0.553,0.448-1.002,1-1.002h10c0.552,0,1,0.449,1,1.002v4.017
		c0,0.554-0.448,1.002-1,1.002h-3.597l1.316-1.282c0.391-0.391,0.391-1.025,0-1.417c-0.391-0.392-1.023-0.392-1.414,0l-3.016,2.957
		c-0.188,0.188-0.293,0.442-0.293,0.708c0,0.267,0.105,0.521,0.293,0.708l3.024,3.027c0.391,0.392,1.023,0.392,1.414,0
		s0.391-1.025,0-1.417l-1.281-1.282H51c1.104,0,2-0.897,2-2.004v-6.021C53,264.897,52.104,264,51,264z"/>
	<circle fill="#FF5E63" cx="71" cy="267" r="1"/>
	<path fill="#FF5E63" d="M83,266h-7.101c-0.463-2.282-2.48-4-4.899-4c-2.761,0-5,2.239-5,5c0,2.049,1.236,3.807,3,4.578v2.445
		c0,1.106,0.896,2.004,2,2.004h1c0.552,0,1-0.448,1-1.002c0-0.553-0.448-1.002-1-1.002s-1-0.449-1-1.002V272
		c2.417,0,4.434-1.716,4.899-3.996H82c0.552,0,1,0.449,1,1.002v4.017c0,0.553-0.448,1.002-1,1.002h-3.597l1.316-1.282
		c0.391-0.391,0.391-1.025,0-1.417c-0.391-0.392-1.023-0.392-1.414,0l-3.016,2.957c-0.188,0.188-0.293,0.442-0.293,0.708
		s0.105,0.521,0.293,0.708l3.024,3.027c0.391,0.392,1.023,0.392,1.414,0s0.391-1.025,0-1.417l-1.281-1.282H83
		c1.104,0,2-0.897,2-2.004v-6.021C85,266.897,84.104,266,83,266z M71,270c-1.657,0-3-1.343-3-3s1.343-3,3-3s3,1.343,3,3
		S72.657,270,71,270z"/>
	<path fill="#FF5E63" d="M98,266c-0.553,0-1,0.447-1,1c0,0.554,0.447,1,1,1h2.54l0.871,1.168l1.398-1.41l-1.05-1.408
		c-0.189-0.223-0.467-0.351-0.759-0.351L98,266L98,266z"/>
	<path fill="#FF5E63" d="M110.713,272.307c-0.388-0.394-1.016-0.394-1.403,0c-0.388,0.393-0.388,1.027,0,1.421l0.282,0.271h-2.132
		l-0.907-1.217l-1.398,1.41l1.086,1.458c0.189,0.222,0.467,0.35,0.759,0.35h2.602l-0.3,0.305c-0.387,0.393-0.387,1.028,0,1.421
		c0.388,0.393,1.016,0.393,1.403,0l2.008-2.034c0.186-0.188,0.291-0.444,0.291-0.711c0-0.268-0.104-0.522-0.291-0.711
		L110.713,272.307z"/>
	<path fill="#FF5E63" d="M110.705,264.275c-0.388-0.394-1.016-0.394-1.403,0c-0.387,0.393-0.387,1.029,0,1.421l0.3,0.304H107
		c-0.292,0-0.569,0.128-0.759,0.351L100.54,274H98c-0.553,0-1,0.447-1,1c0,0.554,0.447,1,1,1h3c0.292,0,0.569-0.128,0.759-0.35
		l5.701-7.65h2.132l-0.282,0.272c-0.388,0.393-0.388,1.027,0,1.421c0.388,0.393,1.016,0.393,1.403,0l2-1.963
		c0.186-0.188,0.291-0.444,0.291-0.711c0-0.268-0.104-0.522-0.291-0.711L110.705,264.275z"/>
</g>
</svg>
