<svg width="18" height="18" viewBox="0 0 18 18" xmlns="http://www.w3.org/2000/svg">
	<title>buyer</title>
	<g fill="none" fill-rule="evenodd">
		<path fill="#29AD2E" fill-rule="nonzero"
		      d="M8.737 17.314l-1.28.572c-.555.25-1.21.074-1.566-.42l-.82-1.135c-.108-.147-.273-.243-.455-.262l-1.394-.143c-.605-.062-1.084-.54-1.146-1.147l-.144-1.394c-.018-.182-.114-.348-.262-.455l-1.136-.822c-.493-.357-.67-1.01-.42-1.567l.573-1.278c.075-.167.075-.358 0-.525l-.573-1.28c-.25-.555-.073-1.21.42-1.566l1.136-.82c.148-.108.244-.273.262-.455l.144-1.394c.062-.605.54-1.084 1.147-1.146l1.395-.144c.182-.018.347-.114.455-.262L5.89.532C6.25.04 6.903-.138 7.46.112l1.28.573c.166.075.357.075.524 0l1.28-.573c.555-.25 1.21-.073 1.566.42l.82 1.136c.108.148.274.244.456.262l1.394.144c.606.062 1.085.54 1.147 1.147l.143 1.395c.02.182.115.347.263.455l1.136.82c.494.358.67 1.012.42 1.568l-.572 1.28c-.075.166-.075.357 0 .524l.572 1.28c.25.555.074 1.21-.42 1.566l-1.135.82c-.147.108-.243.274-.262.456l-.143 1.394c-.062.606-.54 1.085-1.147 1.147l-1.394.143c-.182.02-.348.115-.455.263l-.822 1.136c-.357.494-1.01.67-1.567.42l-1.278-.572c-.167-.075-.358-.075-.525 0z"/>
		<path fill="#FFF"
		      d="M14.396 6.738L8.1 12.898c-.07.068-.16.102-.25.102-.092 0-.182-.034-.25-.102l-3.496-3.42c-.14-.135-.14-.354 0-.49l1.17-1.145c.14-.136.363-.136.502 0l2.073 2.03 4.875-4.77c.138-.137.363-.137.5 0l1.17 1.144c.068.065.105.153.105.245s-.037.18-.104.246z"/>
	</g>
</svg>